<svg xmlns="http://www.w3.org/2000/svg" xmlns:xlink="http://www.w3.org/1999/xlink" width="1800" height="1120"><g transform="translate(20 20)"><path d="M600 148.78c0-2.76 2.24-5 5-5h530c2.76 0 5 2.24 5 5v298.44c0 2.76-2.24 5-5 5H605c-2.76 0-5-2.24-5-5z" stroke="#666" stroke-width="2" fill="#e7e5e5"/><use xlink:href="#a" transform="matrix(1,0,0,1,612,155.7777777777778) translate(0 25.671111111111113)"/><use xlink:href="#b" transform="matrix(1,0,0,1,612,155.7777777777778) translate(0 61.226666666666674)"/><use xlink:href="#c" transform="matrix(1,0,0,1,612,155.7777777777778) translate(0 96.78222222222223)"/><use xlink:href="#d" transform="matrix(1,0,0,1,612,155.7777777777778) translate(100.65777777777778 96.78222222222223)"/><use xlink:href="#e" transform="matrix(1,0,0,1,612,155.7777777777778) translate(191.25333333333333 96.78222222222223)"/><use xlink:href="#f" transform="matrix(1,0,0,1,612,155.7777777777778) translate(0 132.33777777777777)"/><use xlink:href="#g" transform="matrix(1,0,0,1,612,155.7777777777778) translate(74.80888888888889 132.33777777777777)"/><use xlink:href="#h" transform="matrix(1,0,0,1,612,155.7777777777778) translate(118.86222222222221 132.33777777777777)"/><use xlink:href="#i" transform="matrix(1,0,0,1,612,155.7777777777778) translate(219.0933333333333 132.33777777777777)"/><use xlink:href="#e" transform="matrix(1,0,0,1,612,155.7777777777778) translate(340.69333333333327 132.33777777777777)"/><use xlink:href="#j" transform="matrix(1,0,0,1,612,155.7777777777778) translate(0 167.89333333333335)"/><use xlink:href="#k" transform="matrix(1,0,0,1,612,155.7777777777778) translate(133.83111111111108 167.89333333333335)"/><use xlink:href="#l" transform="matrix(1,0,0,1,612,155.7777777777778) translate(225.0311111111111 167.89333333333335)"/><use xlink:href="#m" transform="matrix(1,0,0,1,612,155.7777777777778) translate(303.46666666666664 167.89333333333335)"/><use xlink:href="#n" transform="matrix(1,0,0,1,612,155.7777777777778) translate(0 203.4488888888889)"/><use xlink:href="#o" transform="matrix(1,0,0,1,612,155.7777777777778) translate(106.55999999999999 203.4488888888889)"/><use xlink:href="#l" transform="matrix(1,0,0,1,612,155.7777777777778) translate(237.04888888888888 203.4488888888889)"/><use xlink:href="#m" transform="matrix(1,0,0,1,612,155.7777777777778) translate(315.4844444444444 203.4488888888889)"/><use xlink:href="#p" transform="matrix(1,0,0,1,612,155.7777777777778) translate(0 239.00444444444443)"/><use xlink:href="#q" transform="matrix(1,0,0,1,612,155.7777777777778) translate(140.01777777777778 239.00444444444443)"/><use xlink:href="#r" transform="matrix(1,0,0,1,612,155.7777777777778) translate(185.9911111111111 239.00444444444443)"/><use xlink:href="#l" transform="matrix(1,0,0,1,612,155.7777777777778) translate(340.08888888888885 239.00444444444443)"/><use xlink:href="#s" transform="matrix(1,0,0,1,612,155.7777777777778) translate(418.5244444444444 239.00444444444443)"/><path d="M1180 42.1c0-2.75 2.24-5 5-5h490c2.76 0 5 2.25 5 5v511.8c0 2.75-2.24 5-5 5h-490c-2.76 0-5-2.25-5-5z" stroke="#666" stroke-width="2" fill="#deebf7"/><use xlink:href="#t" transform="matrix(1,0,0,1,1192,49.1111111111112) translate(0 25.671111111111113)"/><use xlink:href="#u" transform="matrix(1,0,0,1,1192,49.1111111111112) translate(163.59111111111108 25.671111111111113)"/><use xlink:href="#v" transform="matrix(1,0,0,1,1192,49.1111111111112) translate(320.78222222222223 25.671111111111113)"/><use xlink:href="#w" transform="matrix(1,0,0,1,1192,49.1111111111112) translate(0 61.226666666666674)"/><use xlink:href="#x" transform="matrix(1,0,0,1,1192,49.1111111111112) translate(0 96.78222222222223)"/><use xlink:href="#y" transform="matrix(1,0,0,1,1192,49.1111111111112) translate(97.74222222222221 96.78222222222223)"/><use xlink:href="#z" transform="matrix(1,0,0,1,1192,49.1111111111112) translate(144.60444444444443 96.78222222222223)"/><use xlink:href="#A" transform="matrix(1,0,0,1,1192,49.1111111111112) translate(0 132.33777777777777)"/><use xlink:href="#y" transform="matrix(1,0,0,1,1192,49.1111111111112) translate(106.70222222222222 132.33777777777777)"/><use xlink:href="#B" transform="matrix(1,0,0,1,1192,49.1111111111112) translate(153.56444444444446 132.33777777777777)"/><use xlink:href="#C" transform="matrix(1,0,0,1,1192,49.1111111111112) translate(0 167.89333333333335)"/><use xlink:href="#D" transform="matrix(1,0,0,1,1192,49.1111111111112) translate(108.62222222222222 167.89333333333335)"/><use xlink:href="#E" transform="matrix(1,0,0,1,1192,49.1111111111112) translate(0 203.4488888888889)"/><use xlink:href="#F" transform="matrix(1,0,0,1,1192,49.1111111111112) translate(119.18222222222221 203.4488888888889)"/><use xlink:href="#G" transform="matrix(1,0,0,1,1192,49.1111111111112) translate(0 239.00444444444443)"/><use xlink:href="#H" transform="matrix(1,0,0,1,1192,49.1111111111112) translate(180.65777777777777 239.00444444444443)"/><use xlink:href="#I" transform="matrix(1,0,0,1,1192,49.1111111111112) translate(226.02666666666664 239.00444444444443)"/><use xlink:href="#J" transform="matrix(1,0,0,1,1192,49.1111111111112) translate(0 274.55999999999995)"/><use xlink:href="#K" transform="matrix(1,0,0,1,1192,49.1111111111112) translate(129.35111111111112 274.55999999999995)"/><use xlink:href="#L" transform="matrix(1,0,0,1,1192,49.1111111111112) translate(0 310.1155555555555)"/><use xlink:href="#M" transform="matrix(1,0,0,1,1192,49.1111111111112) translate(84.40888888888888 310.1155555555555)"/><use xlink:href="#N" transform="matrix(1,0,0,1,1192,49.1111111111112) translate(202.27555555555554 310.1155555555555)"/><use xlink:href="#O" transform="matrix(1,0,0,1,1192,49.1111111111112) translate(0 345.67111111111103)"/><use xlink:href="#P" transform="matrix(1,0,0,1,1192,49.1111111111112) translate(97.20888888888888 345.67111111111103)"/><use xlink:href="#Q" transform="matrix(1,0,0,1,1192,49.1111111111112) translate(0 381.2266666666666)"/><use xlink:href="#R" transform="matrix(1,0,0,1,1192,49.1111111111112) translate(123.48444444444443 381.2266666666666)"/><use xlink:href="#S" transform="matrix(1,0,0,1,1192,49.1111111111112) translate(0 416.7822222222221)"/><use xlink:href="#T" transform="matrix(1,0,0,1,1192,49.1111111111112) translate(150.43555555555557 416.7822222222221)"/><use xlink:href="#U" transform="matrix(1,0,0,1,1192,49.1111111111112) translate(0 452.33777777777766)"/><use xlink:href="#V" transform="matrix(1,0,0,1,1192,49.1111111111112) translate(131.4488888888889 452.33777777777766)"/><use xlink:href="#W" transform="matrix(1,0,0,1,1192,49.1111111111112) translate(185.2088888888889 452.33777777777766)"/><use xlink:href="#X" transform="matrix(1,0,0,1,1192,49.1111111111112) translate(0 487.8933333333332)"/><use xlink:href="#Y" transform="matrix(1,0,0,1,1192,49.1111111111112) translate(125.9377777777778 487.8933333333332)"/><path d="M140 205.67c0-2.76 2.24-5 5-5h410c2.76 0 5 2.24 5 5v184.66c0 2.76-2.24 5-5 5H145c-2.76 0-5-2.24-5-5z" stroke="#666" stroke-width="2" fill="#deebf7"/><g><use xlink:href="#Z" transform="matrix(1,0,0,1,152,212.66666666666666) translate(0 25.671111111111113)"/><use xlink:href="#aa" transform="matrix(1,0,0,1,152,212.66666666666666) translate(212.08888888888885 25.671111111111113)"/><use xlink:href="#ab" transform="matrix(1,0,0,1,152,212.66666666666666) translate(0 61.226666666666674)"/><use xlink:href="#ac" transform="matrix(1,0,0,1,152,212.66666666666666) translate(0 96.78222222222223)"/><use xlink:href="#ad" transform="matrix(1,0,0,1,152,212.66666666666666) translate(143.92888888888888 96.78222222222223)"/><use xlink:href="#ae" transform="matrix(1,0,0,1,152,212.66666666666666) translate(0 132.33777777777777)"/><use xlink:href="#af" transform="matrix(1,0,0,1,152,212.66666666666666) translate(129.35111111111112 132.33777777777777)"/></g><path d="M1340 685c0-2.76 2.24-5 5-5h370c2.76 0 5 2.24 5 5v350c0 2.76-2.24 5-5 5h-370c-2.76 0-5-2.24-5-5z" stroke="#666" stroke-width="2" fill="#e7e5e5"/><g><use xlink:href="#ag" transform="matrix(1,0,0,1,1352,692) translate(0 25.671111111111113)"/><use xlink:href="#ah" transform="matrix(1,0,0,1,1352,692) translate(0 61.226666666666674)"/><use xlink:href="#ai" transform="matrix(1,0,0,1,1352,692) translate(0 96.78222222222223)"/><use xlink:href="#g" transform="matrix(1,0,0,1,1352,692) translate(74.80888888888889 96.78222222222223)"/><use xlink:href="#aj" transform="matrix(1,0,0,1,1352,692) translate(118.86222222222221 96.78222222222223)"/><use xlink:href="#ak" transform="matrix(1,0,0,1,1352,692) translate(0 132.33777777777777)"/><use xlink:href="#al" transform="matrix(1,0,0,1,1352,692) translate(74.27555555555556 132.33777777777777)"/><use xlink:href="#am" transform="matrix(1,0,0,1,1352,692) translate(0 167.89333333333335)"/><use xlink:href="#an" transform="matrix(1,0,0,1,1352,692) translate(73.10222222222222 167.89333333333335)"/><use xlink:href="#C" transform="matrix(1,0,0,1,1352,692) translate(0 203.4488888888889)"/><use xlink:href="#ao" transform="matrix(1,0,0,1,1352,692) translate(108.62222222222222 203.4488888888889)"/></g><path d="M880 685c0-2.76 2.24-5 5-5h410c2.76 0 5 2.24 5 5v350c0 2.76-2.24 5-5 5H885c-2.76 0-5-2.24-5-5z" stroke="#666" stroke-width="2" fill="#e7e5e5"/><g><use xlink:href="#ap" transform="matrix(1,0,0,1,892,692) translate(0 25.671111111111113)"/><use xlink:href="#b" transform="matrix(1,0,0,1,892,692) translate(0 61.226666666666674)"/><use xlink:href="#aq" transform="matrix(1,0,0,1,892,692) translate(0 96.78222222222223)"/><use xlink:href="#g" transform="matrix(1,0,0,1,892,692) translate(74.80888888888889 96.78222222222223)"/><use xlink:href="#aj" transform="matrix(1,0,0,1,892,692) translate(118.86222222222221 96.78222222222223)"/><use xlink:href="#ar" transform="matrix(1,0,0,1,892,692) translate(0 132.33777777777777)"/><use xlink:href="#q" transform="matrix(1,0,0,1,892,692) translate(140.01777777777778 132.33777777777777)"/><use xlink:href="#as" transform="matrix(1,0,0,1,892,692) translate(185.9911111111111 132.33777777777777)"/><use xlink:href="#at" transform="matrix(1,0,0,1,892,692) translate(0 167.89333333333335)"/><use xlink:href="#au" transform="matrix(1,0,0,1,892,692) translate(113.70666666666666 167.89333333333335)"/><use xlink:href="#av" transform="matrix(1,0,0,1,892,692) translate(0 203.4488888888889)"/><use xlink:href="#aw" transform="matrix(1,0,0,1,892,692) translate(122.38222222222221 203.4488888888889)"/><use xlink:href="#g" transform="matrix(1,0,0,1,892,692) translate(231.25333333333333 203.4488888888889)"/><use xlink:href="#ax" transform="matrix(1,0,0,1,892,692) translate(275.3066666666667 203.4488888888889)"/><use xlink:href="#ay" transform="matrix(1,0,0,1,892,692) translate(308.6933333333333 203.4488888888889)"/><use xlink:href="#az" transform="matrix(1,0,0,1,892,692) translate(0 239.00444444444443)"/><use xlink:href="#aA" transform="matrix(1,0,0,1,892,692) translate(113.45777777777776 239.00444444444443)"/><use xlink:href="#am" transform="matrix(1,0,0,1,892,692) translate(0 274.55999999999995)"/><use xlink:href="#an" transform="matrix(1,0,0,1,892,692) translate(73.10222222222222 274.55999999999995)"/><use xlink:href="#C" transform="matrix(1,0,0,1,892,692) translate(0 310.1155555555555)"/><use xlink:href="#ao" transform="matrix(1,0,0,1,892,692) translate(108.62222222222222 310.1155555555555)"/></g><path d="M460 685c0-2.76 2.24-5 5-5h370c2.76 0 5 2.24 5 5v350c0 2.76-2.24 5-5 5H465c-2.76 0-5-2.24-5-5z" stroke="#666" stroke-width="2" fill="#e7e5e5"/><g><use xlink:href="#aB" transform="matrix(1,0,0,1,472,692) translate(0 25.671111111111113)"/><use xlink:href="#b" transform="matrix(1,0,0,1,472,692) translate(0 61.226666666666674)"/><use xlink:href="#aC" transform="matrix(1,0,0,1,472,692) translate(0 96.78222222222223)"/><use xlink:href="#aD" transform="matrix(1,0,0,1,472,692) translate(133.83111111111108 96.78222222222223)"/><use xlink:href="#aE" transform="matrix(1,0,0,1,472,692) translate(0 132.33777777777777)"/><use xlink:href="#aF" transform="matrix(1,0,0,1,472,692) translate(100.65777777777778 132.33777777777777)"/><use xlink:href="#aG" transform="matrix(1,0,0,1,472,692) translate(0 167.89333333333335)"/><use xlink:href="#q" transform="matrix(1,0,0,1,472,692) translate(97.81333333333333 167.89333333333335)"/><use xlink:href="#aH" transform="matrix(1,0,0,1,472,692) translate(143.78666666666666 167.89333333333335)"/><use xlink:href="#aI" transform="matrix(1,0,0,1,472,692) translate(0 203.4488888888889)"/><use xlink:href="#aJ" transform="matrix(1,0,0,1,472,692) translate(78.72 203.4488888888889)"/><use xlink:href="#am" transform="matrix(1,0,0,1,472,692) translate(0 239.00444444444443)"/><use xlink:href="#aK" transform="matrix(1,0,0,1,472,692) translate(73.10222222222222 239.00444444444443)"/><use xlink:href="#az" transform="matrix(1,0,0,1,472,692) translate(0 274.55999999999995)"/><use xlink:href="#aL" transform="matrix(1,0,0,1,472,692) translate(113.45777777777776 274.55999999999995)"/></g><path d="M40 685c0-2.76 2.24-5 5-5h370c2.76 0 5 2.24 5 5v350c0 2.76-2.24 5-5 5H45c-2.76 0-5-2.24-5-5z" stroke="#666" stroke-width="2" fill="#e7e5e5"/><g><use xlink:href="#aM" transform="matrix(1,0,0,1,52,692) translate(0 25.671111111111113)"/><use xlink:href="#ah" transform="matrix(1,0,0,1,52,692) translate(0 61.226666666666674)"/><use xlink:href="#aN" transform="matrix(1,0,0,1,52,692) translate(0 96.78222222222223)"/><use xlink:href="#aO" transform="matrix(1,0,0,1,52,692) translate(106.55999999999999 96.78222222222223)"/><use xlink:href="#aE" transform="matrix(1,0,0,1,52,692) translate(0 132.33777777777777)"/><use xlink:href="#aF" transform="matrix(1,0,0,1,52,692) translate(100.65777777777778 132.33777777777777)"/><use xlink:href="#aG" transform="matrix(1,0,0,1,52,692) translate(0 167.89333333333335)"/><use xlink:href="#q" transform="matrix(1,0,0,1,52,692) translate(97.81333333333333 167.89333333333335)"/><use xlink:href="#aH" transform="matrix(1,0,0,1,52,692) translate(143.78666666666666 167.89333333333335)"/><use xlink:href="#aP" transform="matrix(1,0,0,1,52,692) translate(0 203.4488888888889)"/><use xlink:href="#y" transform="matrix(1,0,0,1,52,692) translate(150.07999999999998 203.4488888888889)"/><use xlink:href="#aQ" transform="matrix(1,0,0,1,52,692) translate(196.9422222222222 203.4488888888889)"/><use xlink:href="#aI" transform="matrix(1,0,0,1,52,692) translate(0 239.00444444444443)"/><use xlink:href="#aR" transform="matrix(1,0,0,1,52,692) translate(78.72 239.00444444444443)"/></g><path d="M560 298h19.2c.14 0 .25.1.25.23s.1.24.23.24h19.2" stroke="#999" stroke-width="4" fill="none"/><path d="M600 300.47h-1.1v-4h1.1z" fill="#999"/><path d="M1179 298h-39" stroke="#999" stroke-width="4" fill="none"/><path d="M1180 300h-1v-4h1z" fill="#999"/><path d="M0 5c0-2.76 2.24-5 5-5h1750c2.76 0 5 2.24 5 5v1070c0 2.76-2.24 5-5 5H5c-2.76 0-5-2.24-5-5z" stroke="#666" stroke-width="2" fill="none"/><path d="M857.55 453.22l.92 186.78" stroke="#999" stroke-width="4" fill="none"/><path d="M859.55 453.2l-4 .03v-1h4z" fill="#999"/><path d="M1090 680l-.4-40" stroke="#999" stroke-width="4" fill="none"/><path d="M1092 680h-2l2-.02z" fill="#999"/><path d="M645.6 679v-39" stroke="#999" stroke-width="4" fill="none"/><path d="M647.6 680h-4v-1h4z" fill="#999"/><path d="M240 679v-39" stroke="#999" stroke-width="4" fill="none"/><path d="M242 680h-4v-1h4z" fill="#999"/><path d="M240 640h1270M1180 298l-1.14.77" stroke="#999" stroke-width="2" fill="none"/><path d="M1180 298l-.56-.83.56-.38zM1179.42 299.6l-2.48 1.68-1.12-1.65 2.48-1.7z" fill="#999"/><path d="M1509.6 679v-39" stroke="#999" stroke-width="4" fill="none"/><path d="M1511.6 680h-4v-1h4z" fill="#999"/><defs><path d="M123-531c1-86-22-90-99-94v-42c190-15 435-31 582 14 136 41 222 158 222 302 0 135-84 258-204 310C489 18 223-6 23 0v-42c78-3 100-9 100-94v-395zm545 196c2-216-154-328-397-292v502c0 73 11 83 91 83 191 0 305-111 306-293" id="aS"/><path d="M147-558c-47 0-83-32-83-73 0-40 40-74 88-74 46 0 83 33 83 74s-39 73-88 73zm72 439c-3 69 14 79 66 85V0H17v-34c52 3 71-15 71-75v-202c12-50-41-50-72-67v-26l183-60h20v345" id="aT"/><path d="M20 0v-34c50 2 68-17 68-75v-176c6-63-27-67-68-83v-27l176-66h23v120c69-113 55-119 140-98l62 24c-12 41-33 89-51 114-26-8-58-27-88-27-20 0-40 15-63 48v161c-4 81 28 88 100 85V0H20" id="aU"/><path d="M37-209c0-140 96-240 230-240 104 0 172 56 185 159 3 17 8 26 21 34v24H174c6 91 66 164 136 164 38 0 78-23 129-77l24 21C402-39 316 11 233 11 117 11 37-79 37-209zm135-57h153c-1-82-29-132-76-132-49-1-81 58-77 132" id="aV"/><path d="M37-201c0-140 121-249 277-249 93 0 163 39 163 91 0 32-22 54-55 54-32 0-47-7-90-57-77-90-151-8-151 125 0 114 54 193 133 193 47 0 92-26 136-77l31 18C431-29 356 11 262 11 131 11 37-78 37-201" id="aW"/><path d="M205 11C114 11 84-40 84-152v-233H27v-21c61-23 138-105 158-166h30v130h142l-15 57H215v242c-3 62 8 72 50 81 26 0 51-17 81-54l16 30c-33 57-97 97-157 97" id="aX"/><path d="M37-216c0-131 118-234 269-234 148 0 254 93 254 223C560-90 445 11 288 11 141 11 37-83 37-216zm142-61c0 100 44 244 143 244 60 0 96-49 96-133 0-139-58-239-139-239-63 0-100 48-100 128" id="aY"/><path d="M251-450c91 0 175 40 175 150 0 55-2 180 4 217 10 24 27 21 49 4l16 25c-35 37-87 64-122 64-40 0-66-22-75-64-36 29-76 65-134 65C87 11 39-32 39-101c0-74 46-111 122-130 63-16 104-39 132-64 7-62-13-111-66-112-43-1-65 35-56 83L51-282c-4-17-5-25-5-36 0-85 127-132 205-132zm-83 327c0 44 22 74 54 74 18 0 32-8 73-44v-154c-20 16-28 20-69 39-43 21-58 43-58 85" id="aZ"/><g id="a"><use transform="matrix(0.035555555555555556,0,0,0.035555555555555556,0,0)" xlink:href="#aS"/><use transform="matrix(0.035555555555555556,0,0,0.035555555555555556,31.11111111111111,0)" xlink:href="#aT"/><use transform="matrix(0.035555555555555556,0,0,0.035555555555555556,42.026666666666664,0)" xlink:href="#aU"/><use transform="matrix(0.035555555555555556,0,0,0.035555555555555556,56.675555555555555,0)" xlink:href="#aV"/><use transform="matrix(0.035555555555555556,0,0,0.035555555555555556,74.66666666666666,0)" xlink:href="#aW"/><use transform="matrix(0.035555555555555556,0,0,0.035555555555555556,92.9422222222222,0)" xlink:href="#aX"/><use transform="matrix(0.035555555555555556,0,0,0.035555555555555556,105.9911111111111,0)" xlink:href="#aY"/><use transform="matrix(0.035555555555555556,0,0,0.035555555555555556,127.00444444444443,0)" xlink:href="#aU"/><use transform="matrix(0.035555555555555556,0,0,0.035555555555555556,141.97333333333333,0)" xlink:href="#aZ"/><use transform="matrix(0.035555555555555556,0,0,0.035555555555555556,159.32444444444442,0)" xlink:href="#aX"/><use transform="matrix(0.035555555555555556,0,0,0.035555555555555556,172.48,0)" xlink:href="#aV"/></g><path d="M157-328C157-84 384 68 600-51c-3-53 9-183-16-195-14-20-67-21-109-20v-20h289v19c-68 7-75 22-75 116v100c-58 36-195 68-286 68C203 17 57-126 57-321c0-199 160-363 375-363 58 0 135 21 215 37 15 3 20-11 38-8v174h-21c-23-114-100-178-217-178-176 0-290 130-290 331" id="ba"/><path d="M136-604c-28 0-47-17-47-42 0-23 20-40 47-40s47 17 47 41-20 41-47 41zM18-20c77-11 89-9 89-105v-179c0-56 0-55-56-67l-27-6v-17l139-48h15v317c0 62 1 68 13 83 12 14 26 19 64 22V0H18v-20" id="bb"/><path d="M203 13C132 13 90-27 90-126v-210c7-38-30-46-67-54v-16l138-30v251c0 75 0 90 16 109 57 67 140 38 209-22v-199c0-55-1-62-7-72-7-12-9-14-55-21l-32-5v-15l165-26v359c-3 51 38 30 72 27v19L386 13v-87c-78 57-141 87-183 87" id="bc"/><path d="M11 0v-20c35 1 61-6 75-22 14-15 14-16 14-95v-434c0-65 0-65-6-72-6-10-55-12-75-16v-18l136-44h16c2 216-4 455 3 664 8 28 34 38 78 37V0H11" id="bd"/><path d="M255-52c-39 28-89 75-129 65-56 0-95-36-95-88 0-54 33-80 126-105 41-11 68-23 96-41v-85c7-65-33-99-79-99-38 0-82 36-60 72l-73 36c-23-58 109-139 155-139 43 0 88 24 112 56 34 46 3 251 20 323 3 12 12 18 25 18 16 0 29-6 52-23l5 15c-40 36-83 60-106 60-30 0-47-23-49-65zm-92 27c14 8 60-30 90-47v-128c-19 11-32 17-93 42-43 18-60 38-60 70 0 35 28 63 63 63" id="be"/><g id="c"><use transform="matrix(0.035555555555555556,0,0,0.035555555555555556,0,0)" xlink:href="#ba"/><use transform="matrix(0.035555555555555556,0,0,0.035555555555555556,27.875555555555554,0)" xlink:href="#bb"/><use transform="matrix(0.035555555555555556,0,0,0.035555555555555556,37.79555555555555,0)" xlink:href="#bc"/><use transform="matrix(0.035555555555555556,0,0,0.035555555555555556,57.635555555555555,0)" xlink:href="#bd"/><use transform="matrix(0.035555555555555556,0,0,0.035555555555555556,66.91555555555556,0)" xlink:href="#bb"/><use transform="matrix(0.035555555555555556,0,0,0.035555555555555556,77.04888888888888,0)" xlink:href="#be"/></g><path d="M174 32c0-33-20-18-44-18-25 0-45-22-45-49 0-30 25-54 58-54 43 0 75 38 75 90 0 66-49 130-119 158l-7-20c52-30 82-69 82-107" id="bf"/><g id="d"><use transform="matrix(0.035555555555555556,0,0,0.035555555555555556,0,0)" xlink:href="#ba"/><use transform="matrix(0.035555555555555556,0,0,0.035555555555555556,28.58666666666667,0)" xlink:href="#be"/><use transform="matrix(0.035555555555555556,0,0,0.035555555555555556,43.30666666666667,0)" xlink:href="#bd"/><use transform="matrix(0.035555555555555556,0,0,0.035555555555555556,52.58666666666667,0)" xlink:href="#bd"/><use transform="matrix(0.035555555555555556,0,0,0.035555555555555556,61.866666666666674,0)" xlink:href="#bb"/><use transform="matrix(0.035555555555555556,0,0,0.035555555555555556,71.78666666666668,0)" xlink:href="#bf"/></g><path d="M348-677c248 0 415 108 415 320C763-171 614-10 401-2 301 2 134-1 23 0v-20c40 1 73-5 87-21 14-17 16-18 16-94v-398c0-64-4-80-16-95s-40-20-87-19v-20c185-7 293-10 325-10zM226-35c10 12 25 15 69 15 139 0 191-14 254-66 74-62 114-150 114-253 0-162-88-278-232-304-59-11-144-15-216-10v558c0 43 1 50 11 60" id="bg"/><path d="M246-368c-33 0-65 69-75 81v153c0 81 0 81 10 94 8 24 62 20 101 20V0H29v-20c23 1 46-9 58-23 11-14 13-25 13-90v-216l-71-26v-18l121-43h21v113c33-45 66-139 141-98 9 5 32 10 55 16l-26 65c-22 0-70-28-95-28" id="bh"/><path d="M418-98C381-53 308 13 227 13 122 13 40-83 40-207c0-115 76-230 209-230 86 0 128 35 154 107 7 19 24 23 21 50H111C88-151 163-39 270-40c54 0 95-22 136-71zM114-300h220c-11-70-54-116-108-116-53 0-93 41-112 116" id="bi"/><path d="M226 13C114 13 41-85 40-194c0-134 111-243 247-243 67 0 120 27 120 61 0 18-14 32-32 32-33 10-87-78-125-66-74 0-138 89-138 191 0 108 64 188 151 188 53 0 89-21 131-77l16 9C366-27 301 13 226 13" id="bj"/><path d="M103-41C88-65 87-77 87-154v-224H38v-17c40-19 81-73 102-136h18v106h153l-17 47H158v199c0 77 2 91 16 109 41 51 89 42 121-21l17 15C277 22 157 46 103-41" id="bk"/><path d="M274 13C149 13 40-81 40-214c0-125 100-222 230-222 131 0 232 98 232 226C502-85 402 13 274 13zM120-244c0 128 74 232 166 232 78 0 136-74 136-172 0-123-76-227-166-227-78 0-136 71-136 167" id="bl"/><g id="e"><use transform="matrix(0.035555555555555556,0,0,0.035555555555555556,0,0)" xlink:href="#bg"/><use transform="matrix(0.035555555555555556,0,0,0.035555555555555556,29.191111111111113,0)" xlink:href="#bb"/><use transform="matrix(0.035555555555555556,0,0,0.035555555555555556,39.111111111111114,0)" xlink:href="#bh"/><use transform="matrix(0.035555555555555556,0,0,0.035555555555555556,51.55555555555556,0)" xlink:href="#bi"/><use transform="matrix(0.035555555555555556,0,0,0.035555555555555556,67.84,0)" xlink:href="#bj"/><use transform="matrix(0.035555555555555556,0,0,0.035555555555555556,83.80444444444444,0)" xlink:href="#bk"/><use transform="matrix(0.035555555555555556,0,0,0.035555555555555556,95.00444444444445,0)" xlink:href="#bl"/><use transform="matrix(0.035555555555555556,0,0,0.035555555555555556,113.92,0)" xlink:href="#bh"/></g><path d="M-77 151c17-9 86 62 110 51 24 0 46-11 60-30 24-34 27-56 27-199v-505c0-76-2-78-16-94s-43-22-82-21v-20h270v20c-73 3-83 20-83 115 0 140 7 401-6 512-20 169-103 272-215 272-59 0-105-25-105-58 0-23 18-43 40-43" id="bm"/><path d="M313-387c-24-9-119 47-142 64v189c0 81 1 80 10 94 10 15 27 20 62 20V0H28v-20c24 1 47-9 59-23 23-29 13-170 13-231 0-106 10-71-69-100v-16l124-46h16v93c77-55 147-87 189-87 146 0 113 207 103 365-2 38 28 47 84 45V0H316v-20c46-4 61-12 70-36 8-21 14-117 14-209 0-77-24-117-87-122" id="bn"/><g id="f"><use transform="matrix(0.035555555555555556,0,0,0.035555555555555556,0,0)" xlink:href="#bm"/><use transform="matrix(0.035555555555555556,0,0,0.035555555555555556,11.093333333333334,0)" xlink:href="#bc"/><use transform="matrix(0.035555555555555556,0,0,0.035555555555555556,31.217777777777776,0)" xlink:href="#be"/><use transform="matrix(0.035555555555555556,0,0,0.035555555555555556,45.937777777777775,0)" xlink:href="#bn"/></g><path d="M450-117c0 86 20 68 78 54v22L392 13h-13v-77c-72 51-129 77-169 77-94 0-171-93-171-208 0-171 171-287 340-216v-183c0-56-1-56-43-61l-36-4v-18l137-44h13v604zM110-226c0 107 62 192 140 192 33 0 84-20 129-51v-237c-40-57-79-81-131-81-80 0-138 74-138 177" id="bo"/><g id="g"><use transform="matrix(0.035555555555555556,0,0,0.035555555555555556,0,0)" xlink:href="#bo"/><use transform="matrix(0.035555555555555556,0,0,0.035555555555555556,18.88,0)" xlink:href="#bi"/></g><path d="M40 0v-20c38-3 75-4 79-20 8-12 8-12 8-88v-429c0-60-1-64-11-76-11-13-15-14-67-14H23v-20c247-16 533-47 544 179 7 155-168 235-351 197 3 66-8 201 10 241 12 27 64 33 112 30V0H40zm427-490c0-138-103-189-251-162v341c139 35 251-49 251-179" id="bp"/><path d="M80-7v-582c-2-74 7-48-44-65l-30-5v-19l129-43h16v362c78-55 125-77 164-77 93 0 174 95 174 206C489-91 381 13 237 13 202 13 133 4 80-7zm91-59c21 31 56 48 97 48 88 0 150-75 150-182s-63-188-146-188c-34 0-71 16-121 51 5 77-13 241 20 271" id="bq"/><g id="h"><use transform="matrix(0.035555555555555556,0,0,0.035555555555555556,0,0)" xlink:href="#bp"/><use transform="matrix(0.035555555555555556,0,0,0.035555555555555556,20.72888888888889,0)" xlink:href="#be"/><use transform="matrix(0.035555555555555556,0,0,0.035555555555555556,35.342222222222226,0)" xlink:href="#bq"/><use transform="matrix(0.035555555555555556,0,0,0.035555555555555556,53.653333333333336,0)" xlink:href="#bd"/><use transform="matrix(0.035555555555555556,0,0,0.035555555555555556,62.57777777777778,0)" xlink:href="#bl"/><use transform="matrix(0.035555555555555556,0,0,0.035555555555555556,81.42222222222222,0)" xlink:href="#bf"/></g><path d="M90 114c-1-146 1-295-1-440-1-25-2-26-64-41v-21l115-70h21v103c79-57 124-78 167-78 84 0 159 95 159 200C487-70 326 60 161-14c4 59-11 208 16 225 14 18 47 20 83 19v20H7v-20c35 1 59-5 72-23 9-13 11-27 11-93zm71-200c39 36 88 59 128 59 73 0 127-70 127-165 0-106-62-189-141-189-34 0-74 19-114 53v242" id="br"/><path d="M127 171c41-10 57-31 88-108l21-52L88-304c-40-84-51-98-103-101v-20h216v20c-44 1-63 10-63 30 0 11 2 15 25 65L271-78l79-199c22-54 27-71 27-86 0-30-16-40-67-42v-20h178v20c-52 8-67 28-111 138L238 81c-37 94-45 111-62 136-17 23-33 33-54 33-24 0-43-16-43-37s14-33 48-42" id="bs"/><g id="i"><use transform="matrix(0.035555555555555556,0,0,0.035555555555555556,0,0)" xlink:href="#bg"/><use transform="matrix(0.035555555555555556,0,0,0.035555555555555556,29.084444444444447,0)" xlink:href="#bi"/><use transform="matrix(0.035555555555555556,0,0,0.035555555555555556,45.013333333333335,0)" xlink:href="#br"/><use transform="matrix(0.035555555555555556,0,0,0.035555555555555556,63.50222222222222,0)" xlink:href="#bc"/><use transform="matrix(0.035555555555555556,0,0,0.035555555555555556,82.66666666666667,0)" xlink:href="#bk"/><use transform="matrix(0.035555555555555556,0,0,0.035555555555555556,95.53777777777778,0)" xlink:href="#bs"/></g><path d="M490-256c-12-69-12-82-104-82H215v203c0 75 1 78 16 94 13 15 40 22 78 21V0H48v-20c69-5 78-21 78-115v-397c0-94-10-111-80-115v-20h481v126h-20c-1-32-7-51-18-65-16-19-29-22-101-22H215v251h176c87 1 86-9 99-68h18v189h-18" id="bt"/><path d="M376-343c-34 8-88-77-127-67-72 0-139 93-139 191 0 106 67 189 152 189 52 0 91-23 132-79l16 10C370-32 305 10 238 12c-4 17-8 30-14 45 46 2 80 34 80 76 0 60-79 108-138 113v-19c92-12 112-110 12-118 15-28 19-36 35-95-79-22-79-22-88-27-46-28-86-113-86-181 0-133 113-243 249-243 64 0 120 29 120 61 0 16-16 33-32 33" id="bu"/><path d="M177 13c-22 0-50-8-77-15-8 0-12 4-17 14H66L55-108h17C80-46 120-6 173-6c42 0 76-32 76-72 0-36-26-67-98-115-82-55-97-74-97-122 0-103 127-148 223-105l3 99h-19c-9-55-42-90-85-90-37 0-66 27-66 61 0 35 18 55 84 97 73 46 116 60 116 144 0 69-58 122-133 122" id="bv"/><g id="j"><use transform="matrix(0.035555555555555556,0,0,0.035555555555555556,0,0)" xlink:href="#bt"/><use transform="matrix(0.035555555555555556,0,0,0.035555555555555556,20.302222222222223,0)" xlink:href="#bh"/><use transform="matrix(0.035555555555555556,0,0,0.035555555555555556,33.35111111111111,0)" xlink:href="#be"/><use transform="matrix(0.035555555555555556,0,0,0.035555555555555556,48.07111111111111,0)" xlink:href="#bn"/><use transform="matrix(0.035555555555555556,0,0,0.035555555555555556,68.05333333333333,0)" xlink:href="#bu"/><use transform="matrix(0.035555555555555556,0,0,0.035555555555555556,84.01777777777777,0)" xlink:href="#bl"/><use transform="matrix(0.035555555555555556,0,0,0.035555555555555556,102.79111111111109,0)" xlink:href="#bb"/><use transform="matrix(0.035555555555555556,0,0,0.035555555555555556,112.7111111111111,0)" xlink:href="#bv"/></g><path d="M21 149C7 99 127 41 136 16 45 10-15-79 88-113c34-11 44-18 55-26-66-24-103-72-103-133 0-92 82-164 188-164 49 0 91 15 120 42 50-1 85-3 141-11v67c-41-2-85-7-107-13 67 133-62 252-220 218 1 9-64 28-64 55 0 17 19 25 63 32 34 5 224-1 254 24 37 14 64 54 64 95 0 112-160 177-291 177-99 0-167-41-167-101zm204-295c62 0 104-51 104-127 0-83-48-144-114-144-61 0-104 48-104 116 0 90 47 155 114 155zM157 20c3 9-69 54-69 91 0 56 76 108 157 108 94 0 178-60 178-126 0-32-19-54-56-62 32-4-184-6-210-11" id="bw"/><g id="k"><use transform="matrix(0.035555555555555556,0,0,0.035555555555555556,0,0)" xlink:href="#ba"/><use transform="matrix(0.035555555555555556,0,0,0.035555555555555556,28.053333333333335,0)" xlink:href="#bs"/><use transform="matrix(0.035555555555555556,0,0,0.035555555555555556,45.22666666666667,0)" xlink:href="#bw"/><use transform="matrix(0.035555555555555556,0,0,0.035555555555555556,62.471111111111114,0)" xlink:href="#bb"/><use transform="matrix(0.035555555555555556,0,0,0.035555555555555556,72.39111111111112,0)" xlink:href="#bf"/></g><path d="M195 0v-20c43 1 92-1 107-21 13-17 16-19 16-94v-493H155c-55 0-59 2-75 25-11 17-20 46-28 93H33l17-174h19c7 16 11 17 64 17h459c53 0 57-1 64-17h19l17 174h-19c-9-53-19-81-32-98-15-19-18-20-71-20H407v493c0 76 3 77 16 94 15 19 63 22 105 21V0H195" id="bx"/><path d="M27 0v-20c25 1 48-8 60-23 11-14 13-25 13-90v-438c0-65 0-65-6-71-3-9-51-13-69-17v-19l130-43h16v465l143-100c22-15 29-23 29-31 0-13-21-19-57-18v-20h213v20c-80-10-194 92-264 138L407-91c58 60 77 68 127 71V0H304v-20c60-4 57-20 22-57L171-237c3 47-9 195 12 202 10 14 31 15 62 15V0H27" id="by"/><g id="l"><use transform="matrix(0.035555555555555556,0,0,0.035555555555555556,0,0)" xlink:href="#bx"/><use transform="matrix(0.035555555555555556,0,0,0.035555555555555556,23.217777777777783,0)" xlink:href="#be"/><use transform="matrix(0.035555555555555556,0,0,0.035555555555555556,38.18666666666667,0)" xlink:href="#bv"/><use transform="matrix(0.035555555555555556,0,0,0.035555555555555556,50.41777777777778,0)" xlink:href="#by"/></g><path d="M24 0v-19c40 1 80-1 89-17 14-15 14-21 14-104v-392c0-76-2-77-16-94-14-16-45-22-84-21v-20h317v20c-15 1-20 2-40 2-87 3-88 5-88 108v436c0 58 3 62 55 62h120c79 0 87-4 141-73l35-45h19L504 0H24" id="bz"/><g id="m"><use transform="matrix(0.035555555555555556,0,0,0.035555555555555556,0,0)" xlink:href="#bz"/><use transform="matrix(0.035555555555555556,0,0,0.035555555555555556,21.902222222222225,0)" xlink:href="#bi"/><use transform="matrix(0.035555555555555556,0,0,0.035555555555555556,38.18666666666667,0)" xlink:href="#be"/><use transform="matrix(0.035555555555555556,0,0,0.035555555555555556,52.906666666666666,0)" xlink:href="#bo"/></g><path d="M13 0v-20c79-1 88-14 94-115 9-152 27-304 27-457 0-39-16-52-66-55v-20h162l259 542 257-542h158v20c-92 12-73 15-67 97l29 412c6 88 7 89 17 102 11 14 38 16 78 16V0H685v-20c99-5 98-37 91-136l-28-416L479 0h-24L180-572c-9 161-29 320-29 483 0 46 24 66 85 69V0H13" id="bA"/><g id="n"><use transform="matrix(0.035555555555555556,0,0,0.035555555555555556,0,0)" xlink:href="#bA"/><use transform="matrix(0.035555555555555556,0,0,0.035555555555555556,35.48444444444444,0)" xlink:href="#be"/><use transform="matrix(0.035555555555555556,0,0,0.035555555555555556,50.20444444444444,0)" xlink:href="#bh"/><use transform="matrix(0.035555555555555556,0,0,0.035555555555555556,62.43555555555555,0)" xlink:href="#bj"/><use transform="matrix(0.035555555555555556,0,0,0.035555555555555556,78.39999999999998,0)" xlink:href="#bl"/></g><path d="M226 9L85-316c-33-77-38-82-95-89v-20h219v20c-90 9-78 15-51 81L263-78l102-232c32-59 15-90-62-95v-20h187v20c-50 12-62 26-100 112L258 9h-32" id="bB"/><g id="o"><use transform="matrix(0.035555555555555556,0,0,0.035555555555555556,0,0)" xlink:href="#ba"/><use transform="matrix(0.035555555555555556,0,0,0.035555555555555556,28.444444444444443,0)" xlink:href="#bl"/><use transform="matrix(0.035555555555555556,0,0,0.035555555555555556,46.75555555555557,0)" xlink:href="#bB"/><use transform="matrix(0.035555555555555556,0,0,0.035555555555555556,62.96888888888889,0)" xlink:href="#bl"/><use transform="matrix(0.035555555555555556,0,0,0.035555555555555556,81.77777777777777,0)" xlink:href="#bn"/><use transform="matrix(0.035555555555555556,0,0,0.035555555555555556,101.75999999999998,0)" xlink:href="#bb"/><use transform="matrix(0.035555555555555556,0,0,0.035555555555555556,111.68,0)" xlink:href="#bf"/></g><path d="M467-254c0 55-3 144-5 192-1 34 24 43 81 42V0H312v-20c107 2 84-88 84-199 0-79-4-106-17-129-17-29-46-45-83-45-36 0-62 10-125 46v213c0 81 1 81 10 94 10 15 26 20 60 20V0H27v-20c31-1 47-8 60-23 11-13 13-26 13-90v-449c0-55 0-55-6-62-3-9-48-12-68-14v-19l129-44h16v352c87-51 132-68 178-68 98 0 118 61 118 183" id="bC"/><g id="p"><use transform="matrix(0.035555555555555556,0,0,0.035555555555555556,0,0)" xlink:href="#bm"/><use transform="matrix(0.035555555555555556,0,0,0.035555555555555556,11.306666666666667,0)" xlink:href="#bl"/><use transform="matrix(0.035555555555555556,0,0,0.035555555555555556,30.115555555555556,0)" xlink:href="#bn"/><use transform="matrix(0.035555555555555556,0,0,0.035555555555555556,50.488888888888894,0)" xlink:href="#be"/><use transform="matrix(0.035555555555555556,0,0,0.035555555555555556,64.8888888888889,0)" xlink:href="#bk"/><use transform="matrix(0.035555555555555556,0,0,0.035555555555555556,76.2311111111111,0)" xlink:href="#bC"/><use transform="matrix(0.035555555555555556,0,0,0.035555555555555556,96.42666666666668,0)" xlink:href="#be"/><use transform="matrix(0.035555555555555556,0,0,0.035555555555555556,111.14666666666669,0)" xlink:href="#bn"/></g><path d="M22 0v-20c40 2 75-4 89-21s16-18 16-94v-397c0-76-2-77-16-94s-49-23-89-21v-20h289v20c-38-1-66 6-79 21-15 16-16 18-16 94v202c52-7 96-37 163-114 67-76 107-140 107-169 0-26-13-32-74-34v-20h281v20c-108 3-128 16-192 113-65 97-113 148-163 184 16 3 25 9 55 36 54 50 124 128 203 223 56 66 59 65 156 71V0H437v-20c50-1 70-10 70-31 0-14-9-28-51-76-62-71-128-136-166-164-23-16-43-22-74-19v175c0 76 2 77 16 94 14 16 45 22 84 21V0H22" id="bD"/><path d="M84-39c0-28 24-50 55-50 33 0 56 22 56 51 0 30-23 51-56 51-32 0-55-22-55-52" id="bE"/><g id="q"><use transform="matrix(0.035555555555555556,0,0,0.035555555555555556,0,0)" xlink:href="#bD"/><use transform="matrix(0.035555555555555556,0,0,0.035555555555555556,27.164444444444445,0)" xlink:href="#bE"/></g><path d="M259-647c-87-3-84 32-55 105L384-88l116-287-79-192c-26-63-46-79-118-80v-20h440v20c-73 1-89 15-116 80l-59 144L709-88l176-464c20-53 20-53 20-61 0-24-20-32-82-34v-20h222v20c-65 1-83 17-113 97L716 19h-51L525-315 390 19h-53L121-534C83-630 66-647-19-647v-20h278v20zm284 164c15-41 47-98 54-141 5-29-47-23-77-23-47 0-39 19-22 59" id="bF"/><path d="M657-436c149-1 101 215 101 367 0 42 30 51 92 49V0H609v-20c49 1 70-7 75-47 4-31 16-253-6-280-13-29-38-46-69-46-33 0-91 25-144 62v197c0 81 1 81 10 94 10 15 27 21 58 20V0H314v-20c29 1 53-8 67-23 21-21 13-159 13-214 0-71-1-79-11-99-11-23-39-38-68-38-33 0-71 16-144 62v198c0 81 1 80 10 94 10 16 29 21 66 20V0H24v-20c28 1 51-8 63-23 24-30 13-175 13-238 0-55-2-64-4-72-3-12-41-20-69-21v-18l128-46h16v86c87-58 148-84 193-84 51 0 89 33 99 85 91-58 152-85 194-85" id="bG"/><g id="r"><use transform="matrix(0.035555555555555556,0,0,0.035555555555555556,0,0)" xlink:href="#bF"/><use transform="matrix(0.035555555555555556,0,0,0.035555555555555556,36.94222222222222,0)" xlink:href="#bC"/><use transform="matrix(0.035555555555555556,0,0,0.035555555555555556,56.74666666666667,0)" xlink:href="#bb"/><use transform="matrix(0.035555555555555556,0,0,0.035555555555555556,66.66666666666667,0)" xlink:href="#bk"/><use transform="matrix(0.035555555555555556,0,0,0.035555555555555556,78.00888888888889,0)" xlink:href="#bG"/><use transform="matrix(0.035555555555555556,0,0,0.035555555555555556,107.98222222222222,0)" xlink:href="#bi"/><use transform="matrix(0.035555555555555556,0,0,0.035555555555555556,123.73333333333333,0)" xlink:href="#bh"/><use transform="matrix(0.035555555555555556,0,0,0.035555555555555556,135.2888888888889,0)" xlink:href="#bf"/></g><g id="s"><use transform="matrix(0.035555555555555556,0,0,0.035555555555555556,0,0)" xlink:href="#bz"/><use transform="matrix(0.035555555555555556,0,0,0.035555555555555556,21.902222222222225,0)" xlink:href="#bi"/><use transform="matrix(0.035555555555555556,0,0,0.035555555555555556,38.18666666666667,0)" xlink:href="#be"/><use transform="matrix(0.035555555555555556,0,0,0.035555555555555556,52.906666666666666,0)" xlink:href="#bo"/></g><path d="M320 15c-43 0-88-12-180-35-9 0-17 6-22 17H90L63-197h41C141-91 203-36 289-36c70 0 124-46 124-105 0-35-19-68-54-95-24-19-29-23-123-71S68-400 68-509c0-102 90-175 218-175 43 0 113 15 165 28 7 0 12-2 21-11h23l20 173h-43c-22-86-92-142-175-142-60 0-105 32-105 74 0 39 28 70 97 106 87 46 101 55 140 81 85 57 123 116 123 191C552-73 450 15 320 15" id="bH"/><path d="M219-119c-3 72 16 82 74 85V0H20v-34c50 2 68-17 68-75v-215c3-22-38-42-73-49v-27l184-61h20v96c47-32 159-93 199-84 134-1 112 173 112 314 1 86-3 93 62 101V0H338v-34c48-6 61-36 61-141v-64c-1-166-79-150-180-82v202" id="bI"/><path d="M304-661c-68 0-89 54-85 144v79h107l-7 56H219v263c-4 73 36 89 115 85V0H9v-34c57 4 80-12 79-75v-273H9v-23l79-33c-1-167 141-284 279-284 69 0 168 40 131 85-15 19-30 51-56 57-11 0-11 0-47-32-40-37-63-49-91-49" id="bJ"/><g id="t"><use transform="matrix(0.035555555555555556,0,0,0.035555555555555556,0,0)" xlink:href="#bH"/><use transform="matrix(0.035555555555555556,0,0,0.035555555555555556,21.44,0)" xlink:href="#aW"/><use transform="matrix(0.035555555555555556,0,0,0.035555555555555556,39.715555555555554,0)" xlink:href="#aT"/><use transform="matrix(0.035555555555555556,0,0,0.035555555555555556,50.41777777777778,0)" xlink:href="#aV"/><use transform="matrix(0.035555555555555556,0,0,0.035555555555555556,68.16,0)" xlink:href="#bI"/><use transform="matrix(0.035555555555555556,0,0,0.035555555555555556,89.49333333333334,0)" xlink:href="#aX"/><use transform="matrix(0.035555555555555556,0,0,0.035555555555555556,102.64888888888888,0)" xlink:href="#aT"/><use transform="matrix(0.035555555555555556,0,0,0.035555555555555556,113.56444444444443,0)" xlink:href="#bJ"/><use transform="matrix(0.035555555555555556,0,0,0.035555555555555556,125.8311111111111,0)" xlink:href="#aT"/><use transform="matrix(0.035555555555555556,0,0,0.035555555555555556,136.42666666666665,0)" xlink:href="#aW"/></g><path d="M186-122c-35 72 25 83 99 80V0H0v-42c69 3 91-16 121-99l183-512-11-30h157l215 545c28 71 53 92 109 96V0H424v-42c49 2 109 0 102-41-11-56-43-114-62-166H231zm67-186h187l-99-250" id="bK"/><path d="M383-560c4-66-26-64-72-78v-26l167-53h36v576c-4 82 24 87 76 73v32L412 11h-29v-85c-67 59-118 85-172 85C109 11 37-73 37-191c0-176 155-306 346-244v-125zM168-249c0 167 125 237 215 127v-239c-91-93-215-43-215 112" id="bL"/><path d="M237 6L86-319c-30-64-45-81-91-85v-34h272v34c-28 0-67-2-61 23 0 10 4 22 15 46l91 205 83-190c24-54 16-77-63-84v-34h214v34c-58 4-68 17-106 102L303 6h-66" id="bM"/><path d="M220 12c-28 0-77-8-111-16-6 0-12 4-22 14H57L45-126h34c24 60 61 91 112 91 47 0 73-53 39-84-14-12-13-13-80-56-78-50-104-84-104-138 0-125 169-167 287-114l2 115h-33c-20-60-56-93-102-93-28 0-49 18-49 42 0 27 20 48 78 81 68 39 75 44 97 66 23 23 36 56 36 92 0 79-60 136-142 136" id="bN"/><path d="M121 120c61 0 99-77 120-131L95-306c-41-83-53-95-101-98v-34h274v34c-56-1-64 27-41 74l85 175 82-165c27-47 4-82-56-84v-34h200v34c-47 10-64 24-94 86L228 124c-32 65-32 65-47 85-19 26-46 41-74 41-39 0-67-26-67-61 0-43 25-69 81-69" id="bO"/><g id="u"><use transform="matrix(0.035555555555555556,0,0,0.035555555555555556,0,0)" xlink:href="#bK"/><use transform="matrix(0.035555555555555556,0,0,0.035555555555555556,27.52,0)" xlink:href="#bL"/><use transform="matrix(0.035555555555555556,0,0,0.035555555555555556,48.568888888888885,0)" xlink:href="#bM"/><use transform="matrix(0.035555555555555556,0,0,0.035555555555555556,67.94666666666667,0)" xlink:href="#aT"/><use transform="matrix(0.035555555555555556,0,0,0.035555555555555556,78.86222222222223,0)" xlink:href="#bN"/><use transform="matrix(0.035555555555555556,0,0,0.035555555555555556,93.01333333333335,0)" xlink:href="#aY"/><use transform="matrix(0.035555555555555556,0,0,0.035555555555555556,114.02666666666669,0)" xlink:href="#aU"/><use transform="matrix(0.035555555555555556,0,0,0.035555555555555556,128.99555555555557,0)" xlink:href="#bO"/></g><path d="M692-201C692-72 557 0 383 0H0v-42c93 1 130-22 130-90v-399c7-94-31-95-120-94v-42c183-15 224-17 306-17 178 0 338 36 338 174 0 66-43 107-132 126 103 24 170 96 170 183zM497-514c5-105-101-144-219-126v239c24 2 44 3 61 3 111 3 154-29 158-116zM278-155c-1 89 19 102 97 107 100 6 151-59 151-148 0-113-58-167-200-160-17 0-30 0-48 1v200" id="bP"/><g id="v"><use transform="matrix(0.035555555555555556,0,0,0.035555555555555556,0,0)" xlink:href="#bP"/><use transform="matrix(0.035555555555555556,0,0,0.035555555555555556,26.31111111111111,0)" xlink:href="#aY"/><use transform="matrix(0.035555555555555556,0,0,0.035555555555555556,47.50222222222222,0)" xlink:href="#aZ"/><use transform="matrix(0.035555555555555556,0,0,0.035555555555555556,65.10222222222222,0)" xlink:href="#aU"/><use transform="matrix(0.035555555555555556,0,0,0.035555555555555556,79.60888888888888,0)" xlink:href="#bL"/></g><g id="x"><use transform="matrix(0.035555555555555556,0,0,0.035555555555555556,0,0)" xlink:href="#bg"/><use transform="matrix(0.035555555555555556,0,0,0.035555555555555556,29.191111111111113,0)" xlink:href="#be"/><use transform="matrix(0.035555555555555556,0,0,0.035555555555555556,43.164444444444456,0)" xlink:href="#bB"/><use transform="matrix(0.035555555555555556,0,0,0.035555555555555556,60.33777777777778,0)" xlink:href="#bb"/><use transform="matrix(0.035555555555555556,0,0,0.035555555555555556,69.79555555555555,0)" xlink:href="#bo"/></g><g id="y"><use transform="matrix(0.035555555555555556,0,0,0.035555555555555556,0,0)" xlink:href="#ba"/><use transform="matrix(0.035555555555555556,0,0,0.035555555555555556,28.053333333333335,0)" xlink:href="#bE"/></g><path d="M674-11c-46-12-174 28-243 28C214 17 57-126 57-325c0-209 161-359 385-359 77 0 154 25 227 44 8 2 20-9 35-6l9 154h-20c-36-100-134-166-245-166-171 1-291 130-291 310 0 190 132 336 305 336 114 0 200-52 260-156h21c-11 39-45 118-69 157" id="bQ"/><g id="z"><use transform="matrix(0.035555555555555556,0,0,0.035555555555555556,0,0)" xlink:href="#bQ"/><use transform="matrix(0.035555555555555556,0,0,0.035555555555555556,27.804444444444446,0)" xlink:href="#be"/><use transform="matrix(0.035555555555555556,0,0,0.035555555555555556,42.52444444444444,0)" xlink:href="#bC"/><use transform="matrix(0.035555555555555556,0,0,0.035555555555555556,62.3288888888889,0)" xlink:href="#bb"/><use transform="matrix(0.035555555555555556,0,0,0.035555555555555556,72.2488888888889,0)" xlink:href="#bd"/><use transform="matrix(0.035555555555555556,0,0,0.035555555555555556,81.5288888888889,0)" xlink:href="#bd"/></g><path d="M257 17c-35 0-103-28-150-28-9 0-15 3-20 11H69L47-163h21C91-71 153-15 248-12c119 4 193-116 119-204-19-37-229-152-254-187-39-35-60-79-60-125 0-90 81-156 191-156 44 0 107 20 146 27 10 2 17-15 35-10l19 136h-19c-29-77-98-128-173-128-116 0-156 120-77 188 27 23 40 35 118 84 142 90 184 140 184 221 0 105-94 183-220 183" id="bR"/><g id="A"><use transform="matrix(0.035555555555555556,0,0,0.035555555555555556,0,0)" xlink:href="#bR"/><use transform="matrix(0.035555555555555556,0,0,0.035555555555555556,18.453333333333333,0)" xlink:href="#bk"/><use transform="matrix(0.035555555555555556,0,0,0.035555555555555556,29.795555555555556,0)" xlink:href="#bi"/><use transform="matrix(0.035555555555555556,0,0,0.035555555555555556,45.724444444444444,0)" xlink:href="#bB"/><use transform="matrix(0.035555555555555556,0,0,0.035555555555555556,62.00888888888889,0)" xlink:href="#bi"/><use transform="matrix(0.035555555555555556,0,0,0.035555555555555556,77.83111111111111,0)" xlink:href="#bn"/></g><g id="B"><use transform="matrix(0.035555555555555556,0,0,0.035555555555555556,0,0)" xlink:href="#bz"/><use transform="matrix(0.035555555555555556,0,0,0.035555555555555556,21.866666666666667,0)" xlink:href="#bl"/><use transform="matrix(0.035555555555555556,0,0,0.035555555555555556,40.782222222222224,0)" xlink:href="#bc"/><use transform="matrix(0.035555555555555556,0,0,0.035555555555555556,60.62222222222222,0)" xlink:href="#bb"/><use transform="matrix(0.035555555555555556,0,0,0.035555555555555556,70.04444444444444,0)" xlink:href="#bi"/></g><path d="M35-20c80-5 92-18 92-116v-484c-22-17-54-26-90-27v-20h169l505 527v-393c0-76-4-90-29-103-11-6-31-9-76-11v-20h251v20c-51 2-72 5-82 14-15 12-15 13-15 83V7h-28L176-574v433c0 65 3 81 13 97 11 19 34 20 95 24V0H35v-20" id="bS"/><g id="C"><use transform="matrix(0.035555555555555556,0,0,0.035555555555555556,0,0)" xlink:href="#bS"/><use transform="matrix(0.035555555555555556,0,0,0.035555555555555556,31.075555555555557,0)" xlink:href="#bb"/><use transform="matrix(0.035555555555555556,0,0,0.035555555555555556,40.49777777777778,0)" xlink:href="#bj"/><use transform="matrix(0.035555555555555556,0,0,0.035555555555555556,56.46222222222222,0)" xlink:href="#bl"/><use transform="matrix(0.035555555555555556,0,0,0.035555555555555556,75.23555555555555,0)" xlink:href="#bd"/><use transform="matrix(0.035555555555555556,0,0,0.035555555555555556,85.01333333333334,0)" xlink:href="#be"/></g><path d="M303-39c82 5 71-30 101-78h19L379 0H34v-20l271-366H158c-49 0-50 0-58 12s-26 61-33 91H47l33-171h18c0 24 9 29 51 29h256v19L133-39h170" id="bT"/><g id="D"><use transform="matrix(0.035555555555555556,0,0,0.035555555555555556,0,0)" xlink:href="#bA"/><use transform="matrix(0.035555555555555556,0,0,0.035555555555555556,35.48444444444444,0)" xlink:href="#be"/><use transform="matrix(0.035555555555555556,0,0,0.035555555555555556,50.20444444444444,0)" xlink:href="#bh"/><use transform="matrix(0.035555555555555556,0,0,0.035555555555555556,63.28888888888888,0)" xlink:href="#bT"/><use transform="matrix(0.035555555555555556,0,0,0.035555555555555556,79.28888888888889,0)" xlink:href="#be"/><use transform="matrix(0.035555555555555556,0,0,0.035555555555555556,94.00888888888889,0)" xlink:href="#bh"/><use transform="matrix(0.035555555555555556,0,0,0.035555555555555556,107.87555555555555,0)" xlink:href="#bb"/></g><g id="E"><use transform="matrix(0.035555555555555556,0,0,0.035555555555555556,0,0)" xlink:href="#bA"/><use transform="matrix(0.035555555555555556,0,0,0.035555555555555556,35.48444444444444,0)" xlink:href="#be"/><use transform="matrix(0.035555555555555556,0,0,0.035555555555555556,50.20444444444444,0)" xlink:href="#bh"/><use transform="matrix(0.035555555555555556,0,0,0.035555555555555556,62.43555555555555,0)" xlink:href="#bj"/><use transform="matrix(0.035555555555555556,0,0,0.035555555555555556,78.39999999999998,0)" xlink:href="#bc"/><use transform="matrix(0.035555555555555556,0,0,0.035555555555555556,98.06222222222222,0)" xlink:href="#bv"/></g><path d="M381-553c-27 0-48-21-48-48 0-26 22-47 47-47 27 0 48 21 48 47s-22 48-47 48zm-208 0c-27 0-48-22-48-48s22-47 48-47 47 21 47 47-22 48-47 48zm30 566C132 13 90-27 90-126v-210c7-38-30-46-67-54v-16l138-30v251c0 75 0 90 16 109 57 67 140 38 209-22v-199c0-55-1-62-7-72-7-12-9-14-55-21l-32-5v-15l165-26v359c-3 51 38 30 72 27v19L386 13v-87c-78 57-141 87-183 87" id="bU"/><g id="F"><use transform="matrix(0.035555555555555556,0,0,0.035555555555555556,0,0)" xlink:href="#bA"/><use transform="matrix(0.035555555555555556,0,0,0.035555555555555556,34.95111111111111,0)" xlink:href="#bU"/><use transform="matrix(0.035555555555555556,0,0,0.035555555555555556,54.7911111111111,0)" xlink:href="#bd"/><use transform="matrix(0.035555555555555556,0,0,0.035555555555555556,64.07111111111111,0)" xlink:href="#bd"/><use transform="matrix(0.035555555555555556,0,0,0.035555555555555556,72.99555555555555,0)" xlink:href="#bi"/><use transform="matrix(0.035555555555555556,0,0,0.035555555555555556,88.74666666666667,0)" xlink:href="#bh"/></g><path d="M146-59c4 37 46 38 104 39V0H3v-20c68-2 82-15 115-106l196-534-10-24h93l205 544C641-35 651-20 719-20V0H424v-20c116-3 129-5 96-92l-69-184H229c-21 64-68 178-83 237zm102-284h186l-95-251" id="bV"/><g id="G"><use transform="matrix(0.035555555555555556,0,0,0.035555555555555556,0,0)" xlink:href="#bV"/><use transform="matrix(0.035555555555555556,0,0,0.035555555555555556,25.493333333333336,0)" xlink:href="#bk"/><use transform="matrix(0.035555555555555556,0,0,0.035555555555555556,36.83555555555556,0)" xlink:href="#bC"/><use transform="matrix(0.035555555555555556,0,0,0.035555555555555556,57.031111111111116,0)" xlink:href="#be"/><use transform="matrix(0.035555555555555556,0,0,0.035555555555555556,71.75111111111111,0)" xlink:href="#bn"/><use transform="matrix(0.035555555555555556,0,0,0.035555555555555556,92.12444444444445,0)" xlink:href="#be"/><use transform="matrix(0.035555555555555556,0,0,0.035555555555555556,107.09333333333333,0)" xlink:href="#bv"/><use transform="matrix(0.035555555555555556,0,0,0.035555555555555556,119.14666666666669,0)" xlink:href="#bv"/><use transform="matrix(0.035555555555555556,0,0,0.035555555555555556,131.3777777777778,0)" xlink:href="#bb"/><use transform="matrix(0.035555555555555556,0,0,0.035555555555555556,140.69333333333333,0)" xlink:href="#bl"/><use transform="matrix(0.035555555555555556,0,0,0.035555555555555556,159.5377777777778,0)" xlink:href="#bv"/></g><path d="M43 0v-25l482-603H236c-78 0-92 3-107 27-11 17-16 40-21 85H88l6-151h552v24L161-39h344c61 0 73-2 92-13 27-16 33-30 59-142h18L662 0H43" id="bW"/><g id="H"><use transform="matrix(0.035555555555555556,0,0,0.035555555555555556,0,0)" xlink:href="#bW"/><use transform="matrix(0.035555555555555556,0,0,0.035555555555555556,26.56,0)" xlink:href="#bE"/></g><g id="I"><use transform="matrix(0.035555555555555556,0,0,0.035555555555555556,0,0)" xlink:href="#bp"/><use transform="matrix(0.035555555555555556,0,0,0.035555555555555556,20.72888888888889,0)" xlink:href="#be"/><use transform="matrix(0.035555555555555556,0,0,0.035555555555555556,35.44888888888889,0)" xlink:href="#bn"/><use transform="matrix(0.035555555555555556,0,0,0.035555555555555556,55.82222222222222,0)" xlink:href="#be"/><use transform="matrix(0.035555555555555556,0,0,0.035555555555555556,71.21777777777778,0)" xlink:href="#bw"/><use transform="matrix(0.035555555555555556,0,0,0.035555555555555556,88.46222222222222,0)" xlink:href="#bb"/><use transform="matrix(0.035555555555555556,0,0,0.035555555555555556,97.77777777777777,0)" xlink:href="#bl"/><use transform="matrix(0.035555555555555556,0,0,0.035555555555555556,116.62222222222223,0)" xlink:href="#bk"/><use transform="matrix(0.035555555555555556,0,0,0.035555555555555556,127.82222222222224,0)" xlink:href="#bl"/><use transform="matrix(0.035555555555555556,0,0,0.035555555555555556,146.77333333333337,0)" xlink:href="#br"/><use transform="matrix(0.035555555555555556,0,0,0.035555555555555556,165.51111111111115,0)" xlink:href="#bl"/><use transform="matrix(0.035555555555555556,0,0,0.035555555555555556,184.4266666666667,0)" xlink:href="#bc"/><use transform="matrix(0.035555555555555556,0,0,0.035555555555555556,204.2666666666667,0)" xlink:href="#bd"/><use transform="matrix(0.035555555555555556,0,0,0.035555555555555556,213.19111111111116,0)" xlink:href="#bl"/><use transform="matrix(0.035555555555555556,0,0,0.035555555555555556,232.0355555555556,0)" xlink:href="#bv"/></g><g id="J"><use transform="matrix(0.035555555555555556,0,0,0.035555555555555556,0,0)" xlink:href="#bA"/><use transform="matrix(0.035555555555555556,0,0,0.035555555555555556,35.91111111111111,0)" xlink:href="#bb"/><use transform="matrix(0.035555555555555556,0,0,0.035555555555555556,45.333333333333336,0)" xlink:href="#bj"/><use transform="matrix(0.035555555555555556,0,0,0.035555555555555556,60.58666666666667,0)" xlink:href="#bC"/><use transform="matrix(0.035555555555555556,0,0,0.035555555555555556,80.78222222222225,0)" xlink:href="#be"/><use transform="matrix(0.035555555555555556,0,0,0.035555555555555556,95.50222222222222,0)" xlink:href="#bi"/><use transform="matrix(0.035555555555555556,0,0,0.035555555555555556,111.18222222222224,0)" xlink:href="#bd"/></g><g id="K"><use transform="matrix(0.035555555555555556,0,0,0.035555555555555556,0,0)" xlink:href="#bp"/><use transform="matrix(0.035555555555555556,0,0,0.035555555555555556,20.72888888888889,0)" xlink:href="#be"/><use transform="matrix(0.035555555555555556,0,0,0.035555555555555556,34.80888888888889,0)" xlink:href="#bs"/><use transform="matrix(0.035555555555555556,0,0,0.035555555555555556,51.98222222222222,0)" xlink:href="#bn"/><use transform="matrix(0.035555555555555556,0,0,0.035555555555555556,71.50222222222222,0)" xlink:href="#bi"/></g><g id="L"><use transform="matrix(0.035555555555555556,0,0,0.035555555555555556,0,0)" xlink:href="#bp"/><use transform="matrix(0.035555555555555556,0,0,0.035555555555555556,20.16,0)" xlink:href="#bi"/><use transform="matrix(0.035555555555555556,0,0,0.035555555555555556,35.69777777777777,0)" xlink:href="#bk"/><use transform="matrix(0.035555555555555556,0,0,0.035555555555555556,47.03999999999999,0)" xlink:href="#bi"/><use transform="matrix(0.035555555555555556,0,0,0.035555555555555556,62.7911111111111,0)" xlink:href="#bh"/></g><path d="M22 0v-20c40 2 75-4 89-21s16-18 16-94v-398c0-63-4-80-16-94-13-16-40-21-88-20v-20c242-13 557-52 557 180 0 81-54 148-141 175 51 40 74 62 175 165C710-49 773-12 856-7v19c-79 2-157-5-199-25-40-19-68-41-158-131-75-74-129-123-155-139-44 3-82 5-128 1 5 61-13 221 16 241 13 19 54 23 95 21V0H22zm194-302c160 19 263-33 263-177 0-137-104-194-263-176v353" id="bX"/><g id="M"><use transform="matrix(0.035555555555555556,0,0,0.035555555555555556,0,0)" xlink:href="#bX"/><use transform="matrix(0.035555555555555556,0,0,0.035555555555555556,28.586666666666666,0)" xlink:href="#bl"/><use transform="matrix(0.035555555555555556,0,0,0.035555555555555556,47.431111111111115,0)" xlink:href="#bv"/><use transform="matrix(0.035555555555555556,0,0,0.035555555555555556,59.48444444444444,0)" xlink:href="#bv"/><use transform="matrix(0.035555555555555556,0,0,0.035555555555555556,71.71555555555555,0)" xlink:href="#by"/><use transform="matrix(0.035555555555555556,0,0,0.035555555555555556,91.80444444444444,0)" xlink:href="#bs"/></g><path d="M270 231C182 136 78-53 78-237c0-176 102-371 192-469l30 26c-80 91-163 265-163 443 0 170 82 350 163 442" id="bY"/><path d="M25 205c79-91 163-265 163-442 0-171-82-350-163-443l30-26c87 96 192 284 192 469 0 175-104 370-192 468" id="bZ"/><g id="N"><use transform="matrix(0.035555555555555556,0,0,0.035555555555555556,0,0)" xlink:href="#bY"/><use transform="matrix(0.035555555555555556,0,0,0.035555555555555556,11.52,0)" xlink:href="#bQ"/><use transform="matrix(0.035555555555555556,0,0,0.035555555555555556,39.004444444444445,0)" xlink:href="#bC"/><use transform="matrix(0.035555555555555556,0,0,0.035555555555555556,59.2,0)" xlink:href="#be"/><use transform="matrix(0.035555555555555556,0,0,0.035555555555555556,73.92,0)" xlink:href="#bb"/><use transform="matrix(0.035555555555555556,0,0,0.035555555555555556,83.84,0)" xlink:href="#bh"/><use transform="matrix(0.035555555555555556,0,0,0.035555555555555556,96.56888888888889,0)" xlink:href="#bZ"/></g><g id="O"><use transform="matrix(0.035555555555555556,0,0,0.035555555555555556,0,0)" xlink:href="#bV"/><use transform="matrix(0.035555555555555556,0,0,0.035555555555555556,25.84888888888889,0)" xlink:href="#bn"/><use transform="matrix(0.035555555555555556,0,0,0.035555555555555556,46.11555555555555,0)" xlink:href="#bw"/><use transform="matrix(0.035555555555555556,0,0,0.035555555555555556,63.36,0)" xlink:href="#bi"/><use transform="matrix(0.035555555555555556,0,0,0.035555555555555556,79.04,0)" xlink:href="#bd"/></g><g id="P"><use transform="matrix(0.035555555555555556,0,0,0.035555555555555556,0,0)" xlink:href="#bX"/><use transform="matrix(0.035555555555555556,0,0,0.035555555555555556,29.36888888888889,0)" xlink:href="#bc"/><use transform="matrix(0.035555555555555556,0,0,0.035555555555555556,48.675555555555555,0)" xlink:href="#bq"/><use transform="matrix(0.035555555555555556,0,0,0.035555555555555556,66.98666666666666,0)" xlink:href="#bb"/><use transform="matrix(0.035555555555555556,0,0,0.035555555555555556,76.30222222222223,0)" xlink:href="#bl"/></g><path d="M370-365c102 3 83-14 101-81h20v205h-20c-3-28-8-47-17-62-12-21-20-23-87-23H216v195c0 53 2 66 10 77 16 26 130 15 179 15 78 0 97-5 117-28 17-20 33-55 42-93h20L567 0H-4v-21c45 1 94-3 110-17 17-15 21-26 21-97v-397c0-66-3-79-15-94-15-18-54-23-94-21v-20h515l9 149h-20c-5-39-15-69-27-89-14-23-23-25-92-25H216v267h154" id="ca"/><path d="M230 9L86-315c-33-75-43-84-96-90v-20h208v20c-71 9-66 23-41 80L268-75l106-250c-26-62-45-77-105-80v-20h222v20c-72 3-60 35-39 86l99 239 87-213c19-46 24-62 24-75 0-28-14-35-71-37v-20h180v20c-53 7-67 25-107 124L546 9h-30L388-293 260 9h-30" id="cb"/><g id="Q"><use transform="matrix(0.035555555555555556,0,0,0.035555555555555556,0,0)" xlink:href="#ca"/><use transform="matrix(0.035555555555555556,0,0,0.035555555555555556,22.577777777777772,0)" xlink:href="#bo"/><use transform="matrix(0.035555555555555556,0,0,0.035555555555555556,41.635555555555555,0)" xlink:href="#cb"/><use transform="matrix(0.035555555555555556,0,0,0.035555555555555556,68.44444444444444,0)" xlink:href="#be"/><use transform="matrix(0.035555555555555556,0,0,0.035555555555555556,83.16444444444444,0)" xlink:href="#bh"/><use transform="matrix(0.035555555555555556,0,0,0.035555555555555556,95.53777777777778,0)" xlink:href="#bo"/></g><g id="R"><use transform="matrix(0.035555555555555556,0,0,0.035555555555555556,0,0)" xlink:href="#bR"/><use transform="matrix(0.035555555555555556,0,0,0.035555555555555556,18.986666666666668,0)" xlink:href="#bi"/><use transform="matrix(0.035555555555555556,0,0,0.035555555555555556,34.77333333333333,0)" xlink:href="#bb"/><use transform="matrix(0.035555555555555556,0,0,0.035555555555555556,44.23111111111111,0)" xlink:href="#bo"/><use transform="matrix(0.035555555555555556,0,0,0.035555555555555556,63.111111111111114,0)" xlink:href="#bi"/><use transform="matrix(0.035555555555555556,0,0,0.035555555555555556,78.7911111111111,0)" xlink:href="#bd"/></g><g id="S"><use transform="matrix(0.035555555555555556,0,0,0.035555555555555556,0,0)" xlink:href="#bR"/><use transform="matrix(0.035555555555555556,0,0,0.035555555555555556,18.666666666666668,0)" xlink:href="#be"/><use transform="matrix(0.035555555555555556,0,0,0.035555555555555556,33.38666666666667,0)" xlink:href="#bo"/><use transform="matrix(0.035555555555555556,0,0,0.035555555555555556,53.120000000000005,0)" xlink:href="#be"/><use transform="matrix(0.035555555555555556,0,0,0.035555555555555556,68.0888888888889,0)" xlink:href="#bv"/><use transform="matrix(0.035555555555555556,0,0,0.035555555555555556,80.32000000000002,0)" xlink:href="#bb"/><use transform="matrix(0.035555555555555556,0,0,0.035555555555555556,90.02666666666669,0)" xlink:href="#bB"/><use transform="matrix(0.035555555555555556,0,0,0.035555555555555556,106.84444444444446,0)" xlink:href="#be"/><use transform="matrix(0.035555555555555556,0,0,0.035555555555555556,121.56444444444446,0)" xlink:href="#bn"/></g><g id="T"><use transform="matrix(0.035555555555555556,0,0,0.035555555555555556,0,0)" xlink:href="#bR"/><use transform="matrix(0.035555555555555556,0,0,0.035555555555555556,18.666666666666668,0)" xlink:href="#bC"/><use transform="matrix(0.035555555555555556,0,0,0.035555555555555556,38.86222222222223,0)" xlink:href="#be"/><use transform="matrix(0.035555555555555556,0,0,0.035555555555555556,53.58222222222223,0)" xlink:href="#bn"/><use transform="matrix(0.035555555555555556,0,0,0.035555555555555556,73.56444444444445,0)" xlink:href="#by"/><use transform="matrix(0.035555555555555556,0,0,0.035555555555555556,93.26222222222222,0)" xlink:href="#be"/><use transform="matrix(0.035555555555555556,0,0,0.035555555555555556,107.98222222222222,0)" xlink:href="#bh"/></g><g id="U"><use transform="matrix(0.035555555555555556,0,0,0.035555555555555556,0,0)" xlink:href="#bx"/><use transform="matrix(0.035555555555555556,0,0,0.035555555555555556,26.16888888888889,0)" xlink:href="#bC"/><use transform="matrix(0.035555555555555556,0,0,0.035555555555555556,45.54666666666667,0)" xlink:href="#bl"/><use transform="matrix(0.035555555555555556,0,0,0.035555555555555556,64.42666666666668,0)" xlink:href="#bG"/><use transform="matrix(0.035555555555555556,0,0,0.035555555555555556,95.36000000000001,0)" xlink:href="#be"/><use transform="matrix(0.035555555555555556,0,0,0.035555555555555556,110.32888888888891,0)" xlink:href="#bv"/></g><g id="V"><use transform="matrix(0.035555555555555556,0,0,0.035555555555555556,0,0)" xlink:href="#bA"/><use transform="matrix(0.035555555555555556,0,0,0.035555555555555556,34.95111111111111,0)" xlink:href="#bE"/></g><g id="W"><use transform="matrix(0.035555555555555556,0,0,0.035555555555555556,0,0)" xlink:href="#bx"/><use transform="matrix(0.035555555555555556,0,0,0.035555555555555556,23.466666666666665,0)" xlink:href="#bh"/><use transform="matrix(0.035555555555555556,0,0,0.035555555555555556,37.333333333333336,0)" xlink:href="#bc"/><use transform="matrix(0.035555555555555556,0,0,0.035555555555555556,56.995555555555555,0)" xlink:href="#bv"/><use transform="matrix(0.035555555555555556,0,0,0.035555555555555556,69.22666666666666,0)" xlink:href="#by"/><use transform="matrix(0.035555555555555556,0,0,0.035555555555555556,87.7511111111111,0)" xlink:href="#bi"/><use transform="matrix(0.035555555555555556,0,0,0.035555555555555556,103.28888888888888,0)" xlink:href="#bk"/><use transform="matrix(0.035555555555555556,0,0,0.035555555555555556,114.6311111111111,0)" xlink:href="#bk"/></g><g id="X"><use transform="matrix(0.035555555555555556,0,0,0.035555555555555556,0,0)" xlink:href="#bx"/><use transform="matrix(0.035555555555555556,0,0,0.035555555555555556,26.16888888888889,0)" xlink:href="#bC"/><use transform="matrix(0.035555555555555556,0,0,0.035555555555555556,45.54666666666667,0)" xlink:href="#bi"/><use transform="matrix(0.035555555555555556,0,0,0.035555555555555556,61.297777777777775,0)" xlink:href="#bh"/><use transform="matrix(0.035555555555555556,0,0,0.035555555555555556,73.74222222222222,0)" xlink:href="#bi"/><use transform="matrix(0.035555555555555556,0,0,0.035555555555555556,89.88444444444445,0)" xlink:href="#bv"/><use transform="matrix(0.035555555555555556,0,0,0.035555555555555556,102.32888888888891,0)" xlink:href="#be"/></g><g id="Y"><use transform="matrix(0.035555555555555556,0,0,0.035555555555555556,0,0)" xlink:href="#bF"/><use transform="matrix(0.035555555555555556,0,0,0.035555555555555556,37.155555555555544,0)" xlink:href="#bb"/><use transform="matrix(0.035555555555555556,0,0,0.035555555555555556,47.07555555555555,0)" xlink:href="#bn"/><use transform="matrix(0.035555555555555556,0,0,0.035555555555555556,66.63111111111111,0)" xlink:href="#bo"/><use transform="matrix(0.035555555555555556,0,0,0.035555555555555556,85.68888888888888,0)" xlink:href="#bc"/><use transform="matrix(0.035555555555555556,0,0,0.035555555555555556,105.35111111111111,0)" xlink:href="#bv"/></g><path d="M271-136c-1 86 23 90 100 94V0H30v-42c73-5 93-12 93-94v-395c1-83-20-89-93-94v-42h341v42c-78 3-100 9-100 94v395" id="cc"/><path d="M88-152v-163c4-56-16-55-45-71v-24l154-39h22v235c0 71 3 95 17 115 12 19 31 29 53 29 25 0 62-15 108-44v-194c9-66-47-60-88-77v-25l219-39v328c-4 73 21 71 63 58v33L418 11h-21v-85c-96 61-150 85-193 85-76 0-116-57-116-163" id="cd"/><path d="M219-119c-3 67 14 79 64 85V0H17v-34c52 3 71-15 71-75v-442c8-76-34-61-74-81v-32l186-53h19v598" id="ce"/><g id="Z"><use transform="matrix(0.035555555555555556,0,0,0.035555555555555556,0,0)" xlink:href="#cc"/><use transform="matrix(0.035555555555555556,0,0,0.035555555555555556,14.044444444444444,0)" xlink:href="#bI"/><use transform="matrix(0.035555555555555556,0,0,0.035555555555555556,35.87555555555555,0)" xlink:href="#bN"/><use transform="matrix(0.035555555555555556,0,0,0.035555555555555556,49.91999999999998,0)" xlink:href="#aX"/><use transform="matrix(0.035555555555555556,0,0,0.035555555555555556,63.07555555555554,0)" xlink:href="#aT"/><use transform="matrix(0.035555555555555556,0,0,0.035555555555555556,73.9911111111111,0)" xlink:href="#aX"/><use transform="matrix(0.035555555555555556,0,0,0.035555555555555556,87.14666666666665,0)" xlink:href="#cd"/><use transform="matrix(0.035555555555555556,0,0,0.035555555555555556,108.51555555555554,0)" xlink:href="#aX"/><use transform="matrix(0.035555555555555556,0,0,0.035555555555555556,121.67111111111109,0)" xlink:href="#aT"/><use transform="matrix(0.035555555555555556,0,0,0.035555555555555556,132.1244444444444,0)" xlink:href="#aY"/><use transform="matrix(0.035555555555555556,0,0,0.035555555555555556,153.1377777777777,0)" xlink:href="#bI"/><use transform="matrix(0.035555555555555556,0,0,0.035555555555555556,174.82666666666663,0)" xlink:href="#aZ"/><use transform="matrix(0.035555555555555556,0,0,0.035555555555555556,192.42666666666665,0)" xlink:href="#ce"/></g><g id="aa"><use transform="matrix(0.035555555555555556,0,0,0.035555555555555556,0,0)" xlink:href="#bP"/><use transform="matrix(0.035555555555555556,0,0,0.035555555555555556,26.31111111111111,0)" xlink:href="#aY"/><use transform="matrix(0.035555555555555556,0,0,0.035555555555555556,47.50222222222222,0)" xlink:href="#aZ"/><use transform="matrix(0.035555555555555556,0,0,0.035555555555555556,65.10222222222222,0)" xlink:href="#aU"/><use transform="matrix(0.035555555555555556,0,0,0.035555555555555556,79.60888888888888,0)" xlink:href="#bL"/></g><g id="ac"><use transform="matrix(0.035555555555555556,0,0,0.035555555555555556,0,0)" xlink:href="#bA"/><use transform="matrix(0.035555555555555556,0,0,0.035555555555555556,35.48444444444444,0)" xlink:href="#be"/><use transform="matrix(0.035555555555555556,0,0,0.035555555555555556,49.88444444444445,0)" xlink:href="#bk"/><use transform="matrix(0.035555555555555556,0,0,0.035555555555555556,61.22666666666666,0)" xlink:href="#bk"/><use transform="matrix(0.035555555555555556,0,0,0.035555555555555556,72.56888888888888,0)" xlink:href="#bC"/><use transform="matrix(0.035555555555555556,0,0,0.035555555555555556,91.94666666666664,0)" xlink:href="#bi"/><use transform="matrix(0.035555555555555556,0,0,0.035555555555555556,107.87555555555555,0)" xlink:href="#cb"/></g><g id="ad"><use transform="matrix(0.035555555555555556,0,0,0.035555555555555556,0,0)" xlink:href="#bx"/><use transform="matrix(0.035555555555555556,0,0,0.035555555555555556,25.066666666666666,0)" xlink:href="#bb"/><use transform="matrix(0.035555555555555556,0,0,0.035555555555555556,34.986666666666665,0)" xlink:href="#bh"/><use transform="matrix(0.035555555555555556,0,0,0.035555555555555556,48.74666666666667,0)" xlink:href="#bh"/><use transform="matrix(0.035555555555555556,0,0,0.035555555555555556,61.191111111111105,0)" xlink:href="#bi"/><use transform="matrix(0.035555555555555556,0,0,0.035555555555555556,76.8711111111111,0)" xlink:href="#bd"/><use transform="matrix(0.035555555555555556,0,0,0.035555555555555556,86.1511111111111,0)" xlink:href="#bd"/></g><g id="ae"><use transform="matrix(0.035555555555555556,0,0,0.035555555555555556,0,0)" xlink:href="#bA"/><use transform="matrix(0.035555555555555556,0,0,0.035555555555555556,35.91111111111111,0)" xlink:href="#bb"/><use transform="matrix(0.035555555555555556,0,0,0.035555555555555556,45.333333333333336,0)" xlink:href="#bj"/><use transform="matrix(0.035555555555555556,0,0,0.035555555555555556,60.58666666666667,0)" xlink:href="#bC"/><use transform="matrix(0.035555555555555556,0,0,0.035555555555555556,80.78222222222225,0)" xlink:href="#be"/><use transform="matrix(0.035555555555555556,0,0,0.035555555555555556,95.50222222222222,0)" xlink:href="#bi"/><use transform="matrix(0.035555555555555556,0,0,0.035555555555555556,111.18222222222224,0)" xlink:href="#bd"/></g><g id="af"><use transform="matrix(0.035555555555555556,0,0,0.035555555555555556,0,0)" xlink:href="#bS"/><use transform="matrix(0.035555555555555556,0,0,0.035555555555555556,31.004444444444445,0)" xlink:href="#bl"/><use transform="matrix(0.035555555555555556,0,0,0.035555555555555556,49.92,0)" xlink:href="#bh"/><use transform="matrix(0.035555555555555556,0,0,0.035555555555555556,63.60888888888889,0)" xlink:href="#bG"/><use transform="matrix(0.035555555555555556,0,0,0.035555555555555556,94.54222222222222,0)" xlink:href="#be"/><use transform="matrix(0.035555555555555556,0,0,0.035555555555555556,109.26222222222222,0)" xlink:href="#bn"/></g><path d="M684 3c-67-26-160 12-248 12C218 15 47-137 47-332c0-197 181-352 412-352 66 0 139 25 205 45 9 0 15-3 21-11h27l10 188h-43c-33-107-110-167-213-167-153 0-259 116-259 285 0 173 118 306 272 306 98 0 180-56 223-154h43c-7 48-37 146-61 195" id="cf"/><path d="M47-332c0-205 189-356 410-356 226 0 384 140 384 341 0 211-169 362-405 362C206 15 47-127 47-332zm634 20c1-160-86-330-250-330-136 0-223 105-223 268 0 204 103 343 253 343 146 0 220-132 220-281" id="cg"/><path d="M272-136c-6 97 40 92 126 94V0H33v-42c78-4 91 0 91-87v-409c6-91-19-83-99-87v-42c124-8 304-17 345-17 163 0 294 69 295 210 0 124-105 204-269 204-41 0-80-4-124-11v145zm0-189c130 29 232-21 232-154 0-132-105-186-232-151v305" id="ch"/><g id="ag"><use transform="matrix(0.035555555555555556,0,0,0.035555555555555556,0,0)" xlink:href="#cf"/><use transform="matrix(0.035555555555555556,0,0,0.035555555555555556,27.76888888888889,0)" xlink:href="#cg"/><use transform="matrix(0.035555555555555556,0,0,0.035555555555555556,58.844444444444456,0)" xlink:href="#ch"/><use transform="matrix(0.035555555555555556,0,0,0.035555555555555556,83.09333333333333,0)" xlink:href="#ch"/><use transform="matrix(0.035555555555555556,0,0,0.035555555555555556,107.62666666666667,0)" xlink:href="#bH"/></g><g id="ai"><use transform="matrix(0.035555555555555556,0,0,0.035555555555555556,0,0)" xlink:href="#bm"/><use transform="matrix(0.035555555555555556,0,0,0.035555555555555556,11.093333333333334,0)" xlink:href="#bc"/><use transform="matrix(0.035555555555555556,0,0,0.035555555555555556,31.217777777777776,0)" xlink:href="#be"/><use transform="matrix(0.035555555555555556,0,0,0.035555555555555556,45.937777777777775,0)" xlink:href="#bn"/></g><g id="aj"><use transform="matrix(0.035555555555555556,0,0,0.035555555555555556,0,0)" xlink:href="#bp"/><use transform="matrix(0.035555555555555556,0,0,0.035555555555555556,20.72888888888889,0)" xlink:href="#be"/><use transform="matrix(0.035555555555555556,0,0,0.035555555555555556,35.342222222222226,0)" xlink:href="#bq"/><use transform="matrix(0.035555555555555556,0,0,0.035555555555555556,53.653333333333336,0)" xlink:href="#bd"/><use transform="matrix(0.035555555555555556,0,0,0.035555555555555556,62.57777777777778,0)" xlink:href="#bl"/></g><path d="M444 17C236 17 56-128 56-328c0-197 182-356 390-356 198 0 380 142 380 335 0 206-167 366-382 366zm-28-676c-161 0-260 150-259 306C157-155 287-8 463-8c160 0 263-147 263-310 0-197-131-341-310-341" id="ci"/><g id="ak"><use transform="matrix(0.035555555555555556,0,0,0.035555555555555556,0,0)" xlink:href="#ci"/><use transform="matrix(0.035555555555555556,0,0,0.035555555555555556,30.897777777777776,0)" xlink:href="#bd"/><use transform="matrix(0.035555555555555556,0,0,0.035555555555555556,40.17777777777778,0)" xlink:href="#bd"/><use transform="matrix(0.035555555555555556,0,0,0.035555555555555556,49.102222222222224,0)" xlink:href="#bi"/></g><path d="M36 0v-20c37 1 62-6 75-21 15-16 16-19 16-94v-397c0-94-9-109-77-115v-20h255v20c-37 0-60 5-73 21-15 17-16 19-16 94v177h421v-177c0-65-3-79-15-94-14-17-50-23-90-21v-20h276v20c-72 4-82 20-82 115v397c0 75 2 78 16 94 14 15 42 22 81 21V0H520v-20c94-5 117 4 117-115v-184H216v184c0 75 1 78 16 94 13 15 38 22 74 21V0H36" id="cj"/><g id="al"><use transform="matrix(0.035555555555555556,0,0,0.035555555555555556,0,0)" xlink:href="#cj"/><use transform="matrix(0.035555555555555556,0,0,0.035555555555555556,29.93777777777778,0)" xlink:href="#bi"/><use transform="matrix(0.035555555555555556,0,0,0.035555555555555556,45.724444444444444,0)" xlink:href="#bb"/><use transform="matrix(0.035555555555555556,0,0,0.035555555555555556,55.644444444444446,0)" xlink:href="#bn"/><use transform="matrix(0.035555555555555556,0,0,0.035555555555555556,75.05777777777779,0)" xlink:href="#bl"/><use transform="matrix(0.035555555555555556,0,0,0.035555555555555556,93.86666666666666,0)" xlink:href="#bn"/><use transform="matrix(0.035555555555555556,0,0,0.035555555555555556,113.38666666666667,0)" xlink:href="#bi"/><use transform="matrix(0.035555555555555556,0,0,0.035555555555555556,129.20888888888888,0)" xlink:href="#bn"/></g><g id="am"><use transform="matrix(0.035555555555555556,0,0,0.035555555555555556,0,0)" xlink:href="#bp"/><use transform="matrix(0.035555555555555556,0,0,0.035555555555555556,20.72888888888889,0)" xlink:href="#be"/><use transform="matrix(0.035555555555555556,0,0,0.035555555555555556,35.093333333333334,0)" xlink:href="#bc"/><use transform="matrix(0.035555555555555556,0,0,0.035555555555555556,54.93333333333333,0)" xlink:href="#bd"/></g><g id="an"><use transform="matrix(0.035555555555555556,0,0,0.035555555555555556,0,0)" xlink:href="#bS"/><use transform="matrix(0.035555555555555556,0,0,0.035555555555555556,31.004444444444445,0)" xlink:href="#bi"/><use transform="matrix(0.035555555555555556,0,0,0.035555555555555556,47.28888888888889,0)" xlink:href="#be"/><use transform="matrix(0.035555555555555556,0,0,0.035555555555555556,62.00888888888889,0)" xlink:href="#bd"/><use transform="matrix(0.035555555555555556,0,0,0.035555555555555556,70.93333333333334,0)" xlink:href="#bi"/><use transform="matrix(0.035555555555555556,0,0,0.035555555555555556,87.21777777777778,0)" xlink:href="#bs"/></g><g id="ao"><use transform="matrix(0.035555555555555556,0,0,0.035555555555555556,0,0)" xlink:href="#bt"/><use transform="matrix(0.035555555555555556,0,0,0.035555555555555556,20.053333333333335,0)" xlink:href="#bi"/><use transform="matrix(0.035555555555555556,0,0,0.035555555555555556,35.80444444444444,0)" xlink:href="#bh"/><use transform="matrix(0.035555555555555556,0,0,0.035555555555555556,49.56444444444443,0)" xlink:href="#bh"/><use transform="matrix(0.035555555555555556,0,0,0.035555555555555556,63.431111111111115,0)" xlink:href="#bb"/><use transform="matrix(0.035555555555555556,0,0,0.035555555555555556,72.85333333333331,0)" xlink:href="#bi"/><use transform="matrix(0.035555555555555556,0,0,0.035555555555555556,88.60444444444444,0)" xlink:href="#bh"/></g><path d="M581-205c-4-82-44-67-132-74v-41h356v41c-57 1-76 18-76 68v160C603-3 521 15 425 15 201 15 47-127 47-333c0-205 163-351 391-351 52 0 143 39 233 39 14 0 24-4 31-14h27v195h-44c-28-111-110-176-221-176-152 0-256 120-256 296 0 221 179 373 373 280v-141" id="ck"/><path d="M473-59c106 5 119-36 140-109h40L640 0H-5v-42c87-2 128 3 128-94v-395c2-88-24-91-104-94v-42h590l12 155h-42c-15-70-7-97-92-96H271v244h157c77-3 90-11 96-76h44v213h-43c2-59-19-78-96-78H271v151c0 95 0 95 58 95h144" id="cl"/><g id="ap"><use transform="matrix(0.035555555555555556,0,0,0.035555555555555556,0,0)" xlink:href="#bH"/><use transform="matrix(0.035555555555555556,0,0,0.035555555555555556,21.44,0)" xlink:href="#bH"/><use transform="matrix(0.035555555555555556,0,0,0.035555555555555556,42.59555555555556,0)" xlink:href="#bK"/><use transform="matrix(0.035555555555555556,0,0,0.035555555555555556,68.58666666666667,0)" xlink:href="#ck"/><use transform="matrix(0.035555555555555556,0,0,0.035555555555555556,98.0977777777778,0)" xlink:href="#cl"/><use transform="matrix(0.035555555555555556,0,0,0.035555555555555556,122.88000000000001,0)" xlink:href="#bH"/></g><g id="aq"><use transform="matrix(0.035555555555555556,0,0,0.035555555555555556,0,0)" xlink:href="#bm"/><use transform="matrix(0.035555555555555556,0,0,0.035555555555555556,11.093333333333334,0)" xlink:href="#bc"/><use transform="matrix(0.035555555555555556,0,0,0.035555555555555556,31.217777777777776,0)" xlink:href="#be"/><use transform="matrix(0.035555555555555556,0,0,0.035555555555555556,45.937777777777775,0)" xlink:href="#bn"/></g><g id="ar"><use transform="matrix(0.035555555555555556,0,0,0.035555555555555556,0,0)" xlink:href="#bm"/><use transform="matrix(0.035555555555555556,0,0,0.035555555555555556,11.306666666666667,0)" xlink:href="#bl"/><use transform="matrix(0.035555555555555556,0,0,0.035555555555555556,30.115555555555556,0)" xlink:href="#bn"/><use transform="matrix(0.035555555555555556,0,0,0.035555555555555556,50.488888888888894,0)" xlink:href="#be"/><use transform="matrix(0.035555555555555556,0,0,0.035555555555555556,64.8888888888889,0)" xlink:href="#bk"/><use transform="matrix(0.035555555555555556,0,0,0.035555555555555556,76.2311111111111,0)" xlink:href="#bC"/><use transform="matrix(0.035555555555555556,0,0,0.035555555555555556,96.42666666666668,0)" xlink:href="#be"/><use transform="matrix(0.035555555555555556,0,0,0.035555555555555556,111.14666666666669,0)" xlink:href="#bn"/></g><g id="as"><use transform="matrix(0.035555555555555556,0,0,0.035555555555555556,0,0)" xlink:href="#bF"/><use transform="matrix(0.035555555555555556,0,0,0.035555555555555556,36.94222222222222,0)" xlink:href="#bC"/><use transform="matrix(0.035555555555555556,0,0,0.035555555555555556,56.74666666666667,0)" xlink:href="#bb"/><use transform="matrix(0.035555555555555556,0,0,0.035555555555555556,66.66666666666667,0)" xlink:href="#bk"/><use transform="matrix(0.035555555555555556,0,0,0.035555555555555556,78.00888888888889,0)" xlink:href="#bG"/><use transform="matrix(0.035555555555555556,0,0,0.035555555555555556,107.98222222222222,0)" xlink:href="#bi"/><use transform="matrix(0.035555555555555556,0,0,0.035555555555555556,123.73333333333333,0)" xlink:href="#bh"/></g><g id="at"><use transform="matrix(0.035555555555555556,0,0,0.035555555555555556,0,0)" xlink:href="#bR"/><use transform="matrix(0.035555555555555556,0,0,0.035555555555555556,18.666666666666668,0)" xlink:href="#bC"/><use transform="matrix(0.035555555555555556,0,0,0.035555555555555556,38.86222222222223,0)" xlink:href="#be"/><use transform="matrix(0.035555555555555556,0,0,0.035555555555555556,53.58222222222223,0)" xlink:href="#bh"/><use transform="matrix(0.035555555555555556,0,0,0.035555555555555556,66.02666666666667,0)" xlink:href="#bl"/><use transform="matrix(0.035555555555555556,0,0,0.035555555555555556,84.83555555555556,0)" xlink:href="#bn"/></g><g id="au"><use transform="matrix(0.035555555555555556,0,0,0.035555555555555556,0,0)" xlink:href="#ba"/><use transform="matrix(0.035555555555555556,0,0,0.035555555555555556,27.875555555555554,0)" xlink:href="#bd"/><use transform="matrix(0.035555555555555556,0,0,0.035555555555555556,36.80000000000001,0)" xlink:href="#bl"/><use transform="matrix(0.035555555555555556,0,0,0.035555555555555556,55.644444444444446,0)" xlink:href="#bk"/><use transform="matrix(0.035555555555555556,0,0,0.035555555555555556,66.98666666666666,0)" xlink:href="#bT"/><use transform="matrix(0.035555555555555556,0,0,0.035555555555555556,82.77333333333333,0)" xlink:href="#bi"/><use transform="matrix(0.035555555555555556,0,0,0.035555555555555556,98.52444444444446,0)" xlink:href="#bh"/></g><g id="av"><use transform="matrix(0.035555555555555556,0,0,0.035555555555555556,0,0)" xlink:href="#bA"/><use transform="matrix(0.035555555555555556,0,0,0.035555555555555556,34.595555555555556,0)" xlink:href="#bl"/><use transform="matrix(0.035555555555555556,0,0,0.035555555555555556,53.404444444444444,0)" xlink:href="#bn"/><use transform="matrix(0.035555555555555556,0,0,0.035555555555555556,73.38666666666667,0)" xlink:href="#bb"/><use transform="matrix(0.035555555555555556,0,0,0.035555555555555556,82.80888888888889,0)" xlink:href="#bj"/><use transform="matrix(0.035555555555555556,0,0,0.035555555555555556,98.77333333333333,0)" xlink:href="#be"/></g><g id="aw"><use transform="matrix(0.035555555555555556,0,0,0.035555555555555556,0,0)" xlink:href="#ci"/><use transform="matrix(0.035555555555555556,0,0,0.035555555555555556,30.897777777777776,0)" xlink:href="#bd"/><use transform="matrix(0.035555555555555556,0,0,0.035555555555555556,40.17777777777778,0)" xlink:href="#bB"/><use transform="matrix(0.035555555555555556,0,0,0.035555555555555556,56.46222222222222,0)" xlink:href="#bi"/><use transform="matrix(0.035555555555555556,0,0,0.035555555555555556,72.21333333333334,0)" xlink:href="#bh"/><use transform="matrix(0.035555555555555556,0,0,0.035555555555555556,85.26222222222222,0)" xlink:href="#be"/></g><g id="ax"><use transform="matrix(0.035555555555555556,0,0,0.035555555555555556,0,0)" xlink:href="#bd"/><use transform="matrix(0.035555555555555556,0,0,0.035555555555555556,9.777777777777779,0)" xlink:href="#be"/></g><g id="ay"><use transform="matrix(0.035555555555555556,0,0,0.035555555555555556,0,0)" xlink:href="#bQ"/><use transform="matrix(0.035555555555555556,0,0,0.035555555555555556,27.804444444444446,0)" xlink:href="#bh"/><use transform="matrix(0.035555555555555556,0,0,0.035555555555555556,41.67111111111112,0)" xlink:href="#bc"/><use transform="matrix(0.035555555555555556,0,0,0.035555555555555556,61.51111111111112,0)" xlink:href="#bT"/></g><g id="az"><use transform="matrix(0.035555555555555556,0,0,0.035555555555555556,0,0)" xlink:href="#bg"/><use transform="matrix(0.035555555555555556,0,0,0.035555555555555556,29.191111111111113,0)" xlink:href="#bG"/><use transform="matrix(0.035555555555555556,0,0,0.035555555555555556,59.52,0)" xlink:href="#bb"/><use transform="matrix(0.035555555555555556,0,0,0.035555555555555556,69.44,0)" xlink:href="#bk"/><use transform="matrix(0.035555555555555556,0,0,0.035555555555555556,80.78222222222222,0)" xlink:href="#bh"/><use transform="matrix(0.035555555555555556,0,0,0.035555555555555556,94.64888888888888,0)" xlink:href="#bb"/></g><g id="aA"><use transform="matrix(0.035555555555555556,0,0,0.035555555555555556,0,0)" xlink:href="#bx"/><use transform="matrix(0.035555555555555556,0,0,0.035555555555555556,23.217777777777783,0)" xlink:href="#be"/><use transform="matrix(0.035555555555555556,0,0,0.035555555555555556,37.93777777777779,0)" xlink:href="#bd"/><use transform="matrix(0.035555555555555556,0,0,0.035555555555555556,47.71555555555556,0)" xlink:href="#be"/><use transform="matrix(0.035555555555555556,0,0,0.035555555555555556,62.15111111111111,0)" xlink:href="#br"/><use transform="matrix(0.035555555555555556,0,0,0.035555555555555556,80.39111111111112,0)" xlink:href="#bb"/><use transform="matrix(0.035555555555555556,0,0,0.035555555555555556,90.31111111111112,0)" xlink:href="#bn"/></g><path d="M841-347C841-182 721-34 551 2c44 29 61 40 111 90 70 70 127 101 193 104l-19 41c-65 15-119 6-184-16-66-22-102-47-205-132-59-50-92-77-140-92C145-54 47-168 47-327c0-208 174-361 411-361 225 0 383 141 383 341zm-160 35c1-160-86-330-250-330-136 0-223 105-223 268 0 204 103 344 253 344 146 0 220-133 220-282" id="cm"/><path d="M74-22v-539c8-60-28-61-66-78v-26l163-52h34v357c62-57 127-89 179-89 97 0 173 91 173 206C557-96 441 12 285 12 236 12 137-4 74-22zm131-158c0 102 29 146 96 146 76 0 121-60 121-161 0-155-137-225-217-114v129" id="cn"/><path d="M22 0v-34c68-2 153-117 203-163L102-346c-35-43-54-54-88-58v-34h263v34c-35-1-44 15-29 34l67 83c23-30 61-52 73-92 0-16-14-24-46-25v-34h200v34c-66-4-152 105-200 153l119 144c43 52 68 73 104 73V0H289v-34c47 4 52-20 26-52l-61-76-68 73c-25 25-24 57 27 55V0H22" id="co"/><g id="aB"><use transform="matrix(0.035555555555555556,0,0,0.035555555555555556,0,0)" xlink:href="#cm"/><use transform="matrix(0.035555555555555556,0,0,0.035555555555555556,31.502222222222223,0)" xlink:href="#cn"/><use transform="matrix(0.035555555555555556,0,0,0.035555555555555556,52.62222222222222,0)" xlink:href="#aY"/><use transform="matrix(0.035555555555555556,0,0,0.035555555555555556,73.81333333333333,0)" xlink:href="#co"/></g><g id="aC"><use transform="matrix(0.035555555555555556,0,0,0.035555555555555556,0,0)" xlink:href="#bt"/><use transform="matrix(0.035555555555555556,0,0,0.035555555555555556,20.302222222222223,0)" xlink:href="#bh"/><use transform="matrix(0.035555555555555556,0,0,0.035555555555555556,33.35111111111111,0)" xlink:href="#be"/><use transform="matrix(0.035555555555555556,0,0,0.035555555555555556,48.07111111111111,0)" xlink:href="#bn"/><use transform="matrix(0.035555555555555556,0,0,0.035555555555555556,68.05333333333333,0)" xlink:href="#bu"/><use transform="matrix(0.035555555555555556,0,0,0.035555555555555556,84.01777777777777,0)" xlink:href="#bl"/><use transform="matrix(0.035555555555555556,0,0,0.035555555555555556,102.79111111111109,0)" xlink:href="#bb"/><use transform="matrix(0.035555555555555556,0,0,0.035555555555555556,112.7111111111111,0)" xlink:href="#bv"/></g><g id="aD"><use transform="matrix(0.035555555555555556,0,0,0.035555555555555556,0,0)" xlink:href="#ba"/><use transform="matrix(0.035555555555555556,0,0,0.035555555555555556,28.053333333333335,0)" xlink:href="#bs"/><use transform="matrix(0.035555555555555556,0,0,0.035555555555555556,45.22666666666667,0)" xlink:href="#bw"/><use transform="matrix(0.035555555555555556,0,0,0.035555555555555556,62.471111111111114,0)" xlink:href="#bb"/></g><g id="aE"><use transform="matrix(0.035555555555555556,0,0,0.035555555555555556,0,0)" xlink:href="#ba"/><use transform="matrix(0.035555555555555556,0,0,0.035555555555555556,27.875555555555554,0)" xlink:href="#bb"/><use transform="matrix(0.035555555555555556,0,0,0.035555555555555556,37.79555555555555,0)" xlink:href="#bc"/><use transform="matrix(0.035555555555555556,0,0,0.035555555555555556,57.635555555555555,0)" xlink:href="#bd"/><use transform="matrix(0.035555555555555556,0,0,0.035555555555555556,66.91555555555556,0)" xlink:href="#bb"/><use transform="matrix(0.035555555555555556,0,0,0.035555555555555556,77.04888888888888,0)" xlink:href="#be"/></g><g id="aF"><use transform="matrix(0.035555555555555556,0,0,0.035555555555555556,0,0)" xlink:href="#ba"/><use transform="matrix(0.035555555555555556,0,0,0.035555555555555556,28.58666666666667,0)" xlink:href="#be"/><use transform="matrix(0.035555555555555556,0,0,0.035555555555555556,43.30666666666667,0)" xlink:href="#bd"/><use transform="matrix(0.035555555555555556,0,0,0.035555555555555556,52.58666666666667,0)" xlink:href="#bd"/><use transform="matrix(0.035555555555555556,0,0,0.035555555555555556,61.866666666666674,0)" xlink:href="#bb"/></g><g id="aG"><use transform="matrix(0.035555555555555556,0,0,0.035555555555555556,0,0)" xlink:href="#bA"/><use transform="matrix(0.035555555555555556,0,0,0.035555555555555556,35.48444444444444,0)" xlink:href="#be"/><use transform="matrix(0.035555555555555556,0,0,0.035555555555555556,50.20444444444444,0)" xlink:href="#bh"/><use transform="matrix(0.035555555555555556,0,0,0.035555555555555556,64.07111111111111,0)" xlink:href="#bb"/><use transform="matrix(0.035555555555555556,0,0,0.035555555555555556,74.20444444444445,0)" xlink:href="#be"/></g><g id="aH"><use transform="matrix(0.035555555555555556,0,0,0.035555555555555556,0,0)" xlink:href="#bQ"/><use transform="matrix(0.035555555555555556,0,0,0.035555555555555556,27.484444444444446,0)" xlink:href="#bC"/><use transform="matrix(0.035555555555555556,0,0,0.035555555555555556,47.68000000000001,0)" xlink:href="#be"/><use transform="matrix(0.035555555555555556,0,0,0.035555555555555556,62.400000000000006,0)" xlink:href="#bn"/></g><g id="aI"><use transform="matrix(0.035555555555555556,0,0,0.035555555555555556,0,0)" xlink:href="#bm"/><use transform="matrix(0.035555555555555556,0,0,0.035555555555555556,11.306666666666667,0)" xlink:href="#bl"/><use transform="matrix(0.035555555555555556,0,0,0.035555555555555556,30.044444444444444,0)" xlink:href="#bC"/><use transform="matrix(0.035555555555555556,0,0,0.035555555555555556,49.848888888888894,0)" xlink:href="#bn"/></g><g id="aJ"><use transform="matrix(0.035555555555555556,0,0,0.035555555555555556,0,0)" xlink:href="#bA"/><use transform="matrix(0.035555555555555556,0,0,0.035555555555555556,35.91111111111111,0)" xlink:href="#bb"/><use transform="matrix(0.035555555555555556,0,0,0.035555555555555556,45.83111111111111,0)" xlink:href="#bk"/><use transform="matrix(0.035555555555555556,0,0,0.035555555555555556,57.17333333333333,0)" xlink:href="#bj"/><use transform="matrix(0.035555555555555556,0,0,0.035555555555555556,72.42666666666666,0)" xlink:href="#bC"/><use transform="matrix(0.035555555555555556,0,0,0.035555555555555556,91.80444444444444,0)" xlink:href="#bi"/><use transform="matrix(0.035555555555555556,0,0,0.035555555555555556,107.48444444444445,0)" xlink:href="#bd"/><use transform="matrix(0.035555555555555556,0,0,0.035555555555555556,116.76444444444445,0)" xlink:href="#bd"/></g><g id="aK"><use transform="matrix(0.035555555555555556,0,0,0.035555555555555556,0,0)" xlink:href="#bt"/><use transform="matrix(0.035555555555555556,0,0,0.035555555555555556,20.053333333333335,0)" xlink:href="#bi"/><use transform="matrix(0.035555555555555556,0,0,0.035555555555555556,35.87555555555555,0)" xlink:href="#bn"/><use transform="matrix(0.035555555555555556,0,0,0.035555555555555556,55.21777777777777,0)" xlink:href="#bk"/><use transform="matrix(0.035555555555555556,0,0,0.035555555555555556,66.55999999999999,0)" xlink:href="#bi"/><use transform="matrix(0.035555555555555556,0,0,0.035555555555555556,82.31111111111109,0)" xlink:href="#bh"/></g><g id="aL"><use transform="matrix(0.035555555555555556,0,0,0.035555555555555556,0,0)" xlink:href="#bx"/><use transform="matrix(0.035555555555555556,0,0,0.035555555555555556,23.217777777777783,0)" xlink:href="#be"/><use transform="matrix(0.035555555555555556,0,0,0.035555555555555556,37.93777777777779,0)" xlink:href="#bd"/><use transform="matrix(0.035555555555555556,0,0,0.035555555555555556,47.71555555555556,0)" xlink:href="#be"/><use transform="matrix(0.035555555555555556,0,0,0.035555555555555556,62.15111111111111,0)" xlink:href="#br"/><use transform="matrix(0.035555555555555556,0,0,0.035555555555555556,80.39111111111112,0)" xlink:href="#bb"/><use transform="matrix(0.035555555555555556,0,0,0.035555555555555556,90.31111111111112,0)" xlink:href="#bn"/></g><path d="M369 15L107-536c-24-51-29-59-43-71-15-14-37-19-67-18v-42h285v42c-49 6-45 29-26 69l196 410 69-141-127-266c-29-61-41-70-73-72v-42h470v42c-40 9-55 23-82 77l-78 159 113 229 151-381c19-47 10-87-54-84v-42h216v42c-53 5-75 26-103 96L737 15h-71L552-222 440 15h-71zm230-470c23-50 53-94 70-150 2-29-68-20-100-20-44 0-48 15-31 47" id="cp"/><path d="M472-136c-5 94 34 91 119 94V0H205v-42c85-2 119-1 119-94v-476H212c-96 0-108 12-129 127H39l18-200h35c19 18 19 18 78 18h481c36 0 44-3 55-18h33l19 200h-42c-23-114-35-127-117-127H472v476" id="cq"/><g id="aM"><use transform="matrix(0.035555555555555556,0,0,0.035555555555555556,0,0)" xlink:href="#cp"/><use transform="matrix(0.035555555555555556,0,0,0.035555555555555556,37.653333333333336,0)" xlink:href="#cl"/><use transform="matrix(0.035555555555555556,0,0,0.035555555555555556,62.43555555555557,0)" xlink:href="#bH"/><use transform="matrix(0.035555555555555556,0,0,0.035555555555555556,83.23555555555558,0)" xlink:href="#cq"/></g><g id="aN"><use transform="matrix(0.035555555555555556,0,0,0.035555555555555556,0,0)" xlink:href="#bA"/><use transform="matrix(0.035555555555555556,0,0,0.035555555555555556,35.48444444444444,0)" xlink:href="#be"/><use transform="matrix(0.035555555555555556,0,0,0.035555555555555556,50.20444444444444,0)" xlink:href="#bh"/><use transform="matrix(0.035555555555555556,0,0,0.035555555555555556,62.43555555555555,0)" xlink:href="#bj"/><use transform="matrix(0.035555555555555556,0,0,0.035555555555555556,78.39999999999998,0)" xlink:href="#bl"/></g><g id="aO"><use transform="matrix(0.035555555555555556,0,0,0.035555555555555556,0,0)" xlink:href="#ba"/><use transform="matrix(0.035555555555555556,0,0,0.035555555555555556,28.444444444444443,0)" xlink:href="#bl"/><use transform="matrix(0.035555555555555556,0,0,0.035555555555555556,46.75555555555557,0)" xlink:href="#bB"/><use transform="matrix(0.035555555555555556,0,0,0.035555555555555556,62.96888888888889,0)" xlink:href="#bl"/><use transform="matrix(0.035555555555555556,0,0,0.035555555555555556,81.77777777777777,0)" xlink:href="#bn"/><use transform="matrix(0.035555555555555556,0,0,0.035555555555555556,101.75999999999998,0)" xlink:href="#bb"/></g><g id="aP"><use transform="matrix(0.035555555555555556,0,0,0.035555555555555556,0,0)" xlink:href="#bA"/><use transform="matrix(0.035555555555555556,0,0,0.035555555555555556,34.70222222222222,0)" xlink:href="#bi"/><use transform="matrix(0.035555555555555556,0,0,0.035555555555555556,50.45333333333333,0)" xlink:href="#bh"/><use transform="matrix(0.035555555555555556,0,0,0.035555555555555556,62.684444444444445,0)" xlink:href="#bj"/><use transform="matrix(0.035555555555555556,0,0,0.035555555555555556,78.64888888888889,0)" xlink:href="#bl"/><use transform="matrix(0.035555555555555556,0,0,0.035555555555555556,97.56444444444445,0)" xlink:href="#bc"/><use transform="matrix(0.035555555555555556,0,0,0.035555555555555556,117.40444444444445,0)" xlink:href="#bh"/><use transform="matrix(0.035555555555555556,0,0,0.035555555555555556,131.2711111111111,0)" xlink:href="#bb"/></g><g id="aQ"><use transform="matrix(0.035555555555555556,0,0,0.035555555555555556,0,0)" xlink:href="#bD"/><use transform="matrix(0.035555555555555556,0,0,0.035555555555555556,27.626666666666672,0)" xlink:href="#be"/><use transform="matrix(0.035555555555555556,0,0,0.035555555555555556,42.34666666666668,0)" xlink:href="#bn"/><use transform="matrix(0.035555555555555556,0,0,0.035555555555555556,62.72,0)" xlink:href="#be"/><use transform="matrix(0.035555555555555556,0,0,0.035555555555555556,77.12,0)" xlink:href="#bk"/><use transform="matrix(0.035555555555555556,0,0,0.035555555555555556,88.46222222222222,0)" xlink:href="#bT"/><use transform="matrix(0.035555555555555556,0,0,0.035555555555555556,103.96444444444444,0)" xlink:href="#bb"/><use transform="matrix(0.035555555555555556,0,0,0.035555555555555556,113.42222222222222,0)" xlink:href="#bo"/><use transform="matrix(0.035555555555555556,0,0,0.035555555555555556,132.48,0)" xlink:href="#bb"/><use transform="matrix(0.035555555555555556,0,0,0.035555555555555556,142.39999999999998,0)" xlink:href="#bv"/></g><g id="aR"><use transform="matrix(0.035555555555555556,0,0,0.035555555555555556,0,0)" xlink:href="#bA"/><use transform="matrix(0.035555555555555556,0,0,0.035555555555555556,35.91111111111111,0)" xlink:href="#bb"/><use transform="matrix(0.035555555555555556,0,0,0.035555555555555556,45.83111111111111,0)" xlink:href="#bk"/><use transform="matrix(0.035555555555555556,0,0,0.035555555555555556,57.17333333333333,0)" xlink:href="#bj"/><use transform="matrix(0.035555555555555556,0,0,0.035555555555555556,72.42666666666666,0)" xlink:href="#bC"/><use transform="matrix(0.035555555555555556,0,0,0.035555555555555556,91.80444444444444,0)" xlink:href="#bi"/><use transform="matrix(0.035555555555555556,0,0,0.035555555555555556,107.48444444444445,0)" xlink:href="#bd"/><use transform="matrix(0.035555555555555556,0,0,0.035555555555555556,116.76444444444445,0)" xlink:href="#bd"/></g></defs></g></svg>