<svg xmlns="http://www.w3.org/2000/svg" xmlns:xlink="http://www.w3.org/1999/xlink" width="1760" height="1360"><g transform="translate(0 0)"><path d="M636 285c0-2.76 2.24-5 5-5h478c2.76 0 5 2.24 5 5v312.67c0 2.76-2.24 5-5 5H641c-2.76 0-5-2.24-5-5z" stroke="#666" stroke-width="2" fill="#e7e5e5"/><use xlink:href="#a" transform="matrix(1,0,0,1,648,292) translate(0 28.444444444444446)"/><use xlink:href="#b" transform="matrix(1,0,0,1,648,292) translate(0 71.11111111111111)"/><use xlink:href="#c" transform="matrix(1,0,0,1,648,292) translate(0 113.77777777777779)"/><use xlink:href="#d" transform="matrix(1,0,0,1,648,292) translate(97.58024691358027 113.77777777777779)"/><use xlink:href="#e" transform="matrix(1,0,0,1,648,292) translate(186.27160493827165 113.77777777777779)"/><use xlink:href="#f" transform="matrix(1,0,0,1,648,292) translate(0 156.44444444444446)"/><use xlink:href="#g" transform="matrix(1,0,0,1,648,292) translate(131.06172839506175 156.44444444444446)"/><use xlink:href="#h" transform="matrix(1,0,0,1,648,292) translate(219.85185185185188 156.44444444444446)"/><use xlink:href="#i" transform="matrix(1,0,0,1,648,292) translate(295.20987654320993 156.44444444444446)"/><use xlink:href="#j" transform="matrix(1,0,0,1,648,292) translate(0 199.11111111111114)"/><use xlink:href="#k" transform="matrix(1,0,0,1,648,292) translate(73.97530864197532 199.11111111111114)"/><use xlink:href="#l" transform="matrix(1,0,0,1,648,292) translate(116.34567901234568 199.11111111111114)"/><use xlink:href="#m" transform="matrix(1,0,0,1,648,292) translate(215.01234567901236 199.11111111111114)"/><use xlink:href="#n" transform="matrix(1,0,0,1,648,292) translate(328.3950617283951 199.11111111111114)"/><use xlink:href="#o" transform="matrix(1,0,0,1,648,292) translate(0 241.77777777777783)"/><use xlink:href="#p" transform="matrix(1,0,0,1,648,292) translate(101.4320987654321 241.77777777777783)"/><use xlink:href="#h" transform="matrix(1,0,0,1,648,292) translate(225.77777777777777 241.77777777777783)"/><use xlink:href="#i" transform="matrix(1,0,0,1,648,292) translate(301.1358024691358 241.77777777777783)"/><use xlink:href="#q" transform="matrix(1,0,0,1,648,292) translate(0 284.4444444444445)"/><use xlink:href="#r" transform="matrix(1,0,0,1,648,292) translate(135.11111111111114 284.4444444444445)"/><use xlink:href="#h" transform="matrix(1,0,0,1,648,292) translate(277.6296296296297 284.4444444444445)"/><use xlink:href="#s" transform="matrix(1,0,0,1,648,292) translate(352.9876543209877 284.4444444444445)"/><path d="M1200 121c0-2.76 2.24-5 5-5h490c2.76 0 5 2.24 5 5v611.33c0 2.76-2.24 5-5 5h-490c-2.76 0-5-2.24-5-5z" stroke="#666" stroke-width="2" fill="#deebf7"/><use xlink:href="#t" transform="matrix(1,0,0,1,1212,128) translate(0 28.444444444444446)"/><use xlink:href="#u" transform="matrix(1,0,0,1,1212,128) translate(148.64197530864197 28.444444444444446)"/><use xlink:href="#v" transform="matrix(1,0,0,1,1212,128) translate(295.60493827160496 28.444444444444446)"/><use xlink:href="#w" transform="matrix(1,0,0,1,1212,128) translate(0 71.11111111111111)"/><use xlink:href="#x" transform="matrix(1,0,0,1,1212,128) translate(0 113.77777777777779)"/><use xlink:href="#y" transform="matrix(1,0,0,1,1212,128) translate(95.60493827160494 113.77777777777779)"/><use xlink:href="#z" transform="matrix(1,0,0,1,1212,128) translate(138.96296296296296 113.77777777777779)"/><use xlink:href="#A" transform="matrix(1,0,0,1,1212,128) translate(0 156.44444444444446)"/><use xlink:href="#y" transform="matrix(1,0,0,1,1212,128) translate(105.4814814814815 156.44444444444446)"/><use xlink:href="#B" transform="matrix(1,0,0,1,1212,128) translate(148.83950617283952 156.44444444444446)"/><use xlink:href="#C" transform="matrix(1,0,0,1,1212,128) translate(0 199.11111111111114)"/><use xlink:href="#D" transform="matrix(1,0,0,1,1212,128) translate(103.40740740740742 199.11111111111114)"/><use xlink:href="#E" transform="matrix(1,0,0,1,1212,128) translate(0 241.77777777777783)"/><use xlink:href="#F" transform="matrix(1,0,0,1,1212,128) translate(115.25925925925927 241.77777777777783)"/><use xlink:href="#G" transform="matrix(1,0,0,1,1212,128) translate(0 284.4444444444445)"/><use xlink:href="#H" transform="matrix(1,0,0,1,1212,128) translate(180.44444444444446 284.4444444444445)"/><use xlink:href="#I" transform="matrix(1,0,0,1,1212,128) translate(219.85185185185185 284.4444444444445)"/><use xlink:href="#J" transform="matrix(1,0,0,1,1212,128) translate(0 327.1111111111112)"/><use xlink:href="#K" transform="matrix(1,0,0,1,1212,128) translate(125.13580246913581 327.1111111111112)"/><use xlink:href="#L" transform="matrix(1,0,0,1,1212,128) translate(0 369.7777777777779)"/><use xlink:href="#M" transform="matrix(1,0,0,1,1212,128) translate(81.67901234567901 369.7777777777779)"/><use xlink:href="#N" transform="matrix(1,0,0,1,1212,128) translate(195.25925925925927 369.7777777777779)"/><use xlink:href="#O" transform="matrix(1,0,0,1,1212,128) translate(0 412.44444444444457)"/><use xlink:href="#P" transform="matrix(1,0,0,1,1212,128) translate(95.60493827160494 412.44444444444457)"/><use xlink:href="#Q" transform="matrix(1,0,0,1,1212,128) translate(0 455.11111111111126)"/><use xlink:href="#R" transform="matrix(1,0,0,1,1212,128) translate(119.11111111111111 455.11111111111126)"/><use xlink:href="#S" transform="matrix(1,0,0,1,1212,128) translate(0 497.77777777777794)"/><use xlink:href="#T" transform="matrix(1,0,0,1,1212,128) translate(152.79012345679016 497.77777777777794)"/><use xlink:href="#U" transform="matrix(1,0,0,1,1212,128) translate(0 540.4444444444446)"/><use xlink:href="#V" transform="matrix(1,0,0,1,1212,128) translate(123.25925925925927 540.4444444444446)"/><use xlink:href="#W" transform="matrix(1,0,0,1,1212,128) translate(0 583.1111111111112)"/><use xlink:href="#X" transform="matrix(1,0,0,1,1212,128) translate(120.98765432098766 583.1111111111112)"/><path d="M140 345.67c0-2.76 2.24-5 5-5h410c2.76 0 5 2.24 5 5v192.66c0 2.76-2.24 5-5 5H145c-2.76 0-5-2.24-5-5z" stroke="#666" stroke-width="2" fill="#deebf7"/><g><use xlink:href="#Y" transform="matrix(1,0,0,1,152,352.6666666666667) translate(0 28.444444444444446)"/><use xlink:href="#Z" transform="matrix(1,0,0,1,152,352.6666666666667) translate(196.2469135802469 28.444444444444446)"/><use xlink:href="#aa" transform="matrix(1,0,0,1,152,352.6666666666667) translate(299.85185185185185 28.444444444444446)"/><use xlink:href="#ab" transform="matrix(1,0,0,1,152,352.6666666666667) translate(0 71.11111111111111)"/><use xlink:href="#ac" transform="matrix(1,0,0,1,152,352.6666666666667) translate(0 113.77777777777779)"/><use xlink:href="#ad" transform="matrix(1,0,0,1,152,352.6666666666667) translate(135.01234567901238 113.77777777777779)"/><use xlink:href="#ae" transform="matrix(1,0,0,1,152,352.6666666666667) translate(0 156.44444444444446)"/><use xlink:href="#af" transform="matrix(1,0,0,1,152,352.6666666666667) translate(125.13580246913581 156.44444444444446)"/></g><path d="M1320 834c0-2.76 2.24-5 5-5h370c2.76 0 5 2.24 5 5v483c0 2.76-2.24 5-5 5h-370c-2.76 0-5-2.24-5-5z" stroke="#666" stroke-width="2" fill="#e7e5e5"/><g><use xlink:href="#ag" transform="matrix(1,0,0,1,1332,841) translate(0 28.444444444444446)"/><use xlink:href="#b" transform="matrix(1,0,0,1,1332,841) translate(0 71.11111111111111)"/><use xlink:href="#ah" transform="matrix(1,0,0,1,1332,841) translate(0 113.77777777777779)"/><use xlink:href="#ai" transform="matrix(1,0,0,1,1332,841) translate(0 156.44444444444446)"/><use xlink:href="#aj" transform="matrix(1,0,0,1,1332,841) translate(31.60493827160494 156.44444444444446)"/><use xlink:href="#ak" transform="matrix(1,0,0,1,1332,841) translate(73.9753086419753 156.44444444444446)"/><use xlink:href="#al" transform="matrix(1,0,0,1,1332,841) translate(0 199.11111111111114)"/><use xlink:href="#am" transform="matrix(1,0,0,1,1332,841) translate(43.358024691358025 199.11111111111114)"/><use xlink:href="#an" transform="matrix(1,0,0,1,1332,841) translate(0 241.77777777777783)"/><use xlink:href="#ao" transform="matrix(1,0,0,1,1332,841) translate(0 284.4444444444445)"/><use xlink:href="#ap" transform="matrix(1,0,0,1,1332,841) translate(33.580246913580254 284.4444444444445)"/><use xlink:href="#aq" transform="matrix(1,0,0,1,1332,841) translate(0 327.1111111111112)"/><use xlink:href="#ar" transform="matrix(1,0,0,1,1332,841) translate(43.358024691358025 327.1111111111112)"/></g><path d="M900 834c0-2.76 2.24-5 5-5h370c2.76 0 5 2.24 5 5v483.33c0 2.76-2.24 5-5 5H905c-2.76 0-5-2.24-5-5z" stroke="#666" stroke-width="2" fill="#e7e5e5"/><g><use xlink:href="#as" transform="matrix(1,0,0,1,912,841) translate(0 28.444444444444446)"/><use xlink:href="#b" transform="matrix(1,0,0,1,912,841) translate(0 71.11111111111111)"/><use xlink:href="#at" transform="matrix(1,0,0,1,912,841) translate(0 113.77777777777779)"/><use xlink:href="#au" transform="matrix(1,0,0,1,912,841) translate(0 156.44444444444446)"/><use xlink:href="#aj" transform="matrix(1,0,0,1,912,841) translate(31.60493827160494 156.44444444444446)"/><use xlink:href="#ak" transform="matrix(1,0,0,1,912,841) translate(73.9753086419753 156.44444444444446)"/><use xlink:href="#ai" transform="matrix(1,0,0,1,912,841) translate(0 199.11111111111114)"/><use xlink:href="#av" transform="matrix(1,0,0,1,912,841) translate(31.60493827160494 199.11111111111114)"/><use xlink:href="#aw" transform="matrix(1,0,0,1,912,841) translate(0 241.77777777777783)"/><use xlink:href="#ax" transform="matrix(1,0,0,1,912,841) translate(37.53086419753087 241.77777777777783)"/><use xlink:href="#ay" transform="matrix(1,0,0,1,912,841) translate(0 284.4444444444445)"/><use xlink:href="#az" transform="matrix(1,0,0,1,912,841) translate(49.38271604938272 284.4444444444445)"/><use xlink:href="#aj" transform="matrix(1,0,0,1,912,841) translate(154.66666666666669 284.4444444444445)"/><use xlink:href="#aA" transform="matrix(1,0,0,1,912,841) translate(197.03703703703707 284.4444444444445)"/><use xlink:href="#aB" transform="matrix(1,0,0,1,912,841) translate(231.5061728395062 284.4444444444445)"/><use xlink:href="#an" transform="matrix(1,0,0,1,912,841) translate(0 327.1111111111112)"/><use xlink:href="#aC" transform="matrix(1,0,0,1,912,841) translate(0 369.7777777777779)"/><use xlink:href="#aD" transform="matrix(1,0,0,1,912,841) translate(43.358024691358025 369.7777777777779)"/><use xlink:href="#ao" transform="matrix(1,0,0,1,912,841) translate(0 412.44444444444457)"/><use xlink:href="#ap" transform="matrix(1,0,0,1,912,841) translate(33.580246913580254 412.44444444444457)"/><use xlink:href="#aq" transform="matrix(1,0,0,1,912,841) translate(0 455.11111111111126)"/><use xlink:href="#ar" transform="matrix(1,0,0,1,912,841) translate(43.358024691358025 455.11111111111126)"/></g><path d="M480 834c0-2.76 2.24-5 5-5h370c2.76 0 5 2.24 5 5v483c0 2.76-2.24 5-5 5H485c-2.76 0-5-2.24-5-5z" stroke="#666" stroke-width="2" fill="#e7e5e5"/><g><use xlink:href="#aE" transform="matrix(1,0,0,1,492,841) translate(0 28.444444444444446)"/><use xlink:href="#b" transform="matrix(1,0,0,1,492,841) translate(0 71.11111111111111)"/><use xlink:href="#at" transform="matrix(1,0,0,1,492,841) translate(0 113.77777777777779)"/><use xlink:href="#aF" transform="matrix(1,0,0,1,492,841) translate(0 156.44444444444446)"/><use xlink:href="#aG" transform="matrix(1,0,0,1,492,841) translate(34.66666666666667 156.44444444444446)"/><use xlink:href="#aH" transform="matrix(1,0,0,1,492,841) translate(0 199.11111111111114)"/><use xlink:href="#aI" transform="matrix(1,0,0,1,492,841) translate(43.358024691358025 199.11111111111114)"/><use xlink:href="#ay" transform="matrix(1,0,0,1,492,841) translate(0 241.77777777777783)"/><use xlink:href="#aJ" transform="matrix(1,0,0,1,492,841) translate(49.38271604938272 241.77777777777783)"/><use xlink:href="#an" transform="matrix(1,0,0,1,492,841) translate(0 284.4444444444445)"/><use xlink:href="#ai" transform="matrix(1,0,0,1,492,841) translate(0 327.1111111111112)"/><use xlink:href="#aK" transform="matrix(1,0,0,1,492,841) translate(31.60493827160494 327.1111111111112)"/><use xlink:href="#ao" transform="matrix(1,0,0,1,492,841) translate(0 369.7777777777779)"/><use xlink:href="#aL" transform="matrix(1,0,0,1,492,841) translate(33.580246913580254 369.7777777777779)"/><use xlink:href="#aC" transform="matrix(1,0,0,1,492,841) translate(0 412.44444444444457)"/><use xlink:href="#aM" transform="matrix(1,0,0,1,492,841) translate(43.358024691358025 412.44444444444457)"/></g><path d="M60 834c0-2.76 2.24-5 5-5h370c2.76 0 5 2.24 5 5v483c0 2.76-2.24 5-5 5H65c-2.76 0-5-2.24-5-5z" stroke="#666" stroke-width="2" fill="#e7e5e5"/><g><use xlink:href="#aN" transform="matrix(1,0,0,1,72,841) translate(0 28.444444444444446)"/><use xlink:href="#b" transform="matrix(1,0,0,1,72,841) translate(0 71.11111111111111)"/><use xlink:href="#ah" transform="matrix(1,0,0,1,72,841) translate(0 113.77777777777779)"/><use xlink:href="#ay" transform="matrix(1,0,0,1,72,841) translate(0 156.44444444444446)"/><use xlink:href="#aO" transform="matrix(1,0,0,1,72,841) translate(49.38271604938272 156.44444444444446)"/><use xlink:href="#aH" transform="matrix(1,0,0,1,72,841) translate(0 199.11111111111114)"/><use xlink:href="#aI" transform="matrix(1,0,0,1,72,841) translate(43.358024691358025 199.11111111111114)"/><use xlink:href="#ay" transform="matrix(1,0,0,1,72,841) translate(0 241.77777777777783)"/><use xlink:href="#aJ" transform="matrix(1,0,0,1,72,841) translate(49.38271604938272 241.77777777777783)"/><use xlink:href="#an" transform="matrix(1,0,0,1,72,841) translate(0 284.4444444444445)"/><use xlink:href="#ay" transform="matrix(1,0,0,1,72,841) translate(0 327.1111111111112)"/><use xlink:href="#aP" transform="matrix(1,0,0,1,72,841) translate(49.38271604938272 327.1111111111112)"/><use xlink:href="#ai" transform="matrix(1,0,0,1,72,841) translate(0 369.7777777777779)"/><use xlink:href="#aQ" transform="matrix(1,0,0,1,72,841) translate(31.60493827160494 369.7777777777779)"/></g><path d="M560 442h37.4c.06 0 .1-.04.1-.1 0-.04.04-.08.1-.08H635" stroke="#999" stroke-width="4" fill="none"/><path d="M636 443.82h-1v-4h1z" fill="#999"/><path d="M1199 441.5h-37.42c-.04 0-.08-.04-.08-.08 0-.05-.04-.1-.08-.1H1124" stroke="#999" stroke-width="4" fill="none"/><path d="M1200 443.5h-1v-4h1z" fill="#999"/><path d="M32 25c0-2.76 2.24-5 5-5h1690c2.76 0 5 2.24 5 5v1318c0 2.76-2.24 5-5 5H37c-2.76 0-5-2.24-5-5z" stroke="#666" stroke-width="2" fill="none"/><path d="M882 603.46V771" stroke="#999" stroke-width="4" fill="none"/><path d="M884 603.46h-4v-.8h4z" fill="#999"/><path d="M1090 829v-58M1510 829v-58M670 829v-58M250 829v-58" stroke="#999" stroke-width="4" fill="none"/><path d="M250 771h1260M1200 426.67l-1.14.9" stroke="#999" stroke-width="2" fill="none"/><path d="M1200 426.67l-.63-.78.63-.52zM1199.5 428.36l-2.34 1.9-1.26-1.57 2.34-1.9z" fill="#999"/><defs><path d="M92-20c74 11 92-29 92-98 0-66-23-103-92-98v196zm150-99C242 9 136 6 6 0v-13l31-5v-200l-31-5v-13h112c81 0 124 34 124 117" id="aR"/><path d="M77-16l18 4V0H8v-12l18-4v-133l-17-5v-11h68v149zM51-196c-16 0-27-10-27-27s10-27 27-27 27 11 27 27c0 17-10 27-27 27" id="aS"/><path d="M132-132c-21 0-37 9-50 16v100l26 4V0H10v-12l21-4v-133l-21-5v-11h69l2 34c17-18 35-41 71-40v61c-17 3-14-14-20-22" id="aT"/><path d="M12-83c0-55 22-85 75-86 52-1 66 33 63 88H64c-1 37 6 64 44 63 14 0 28-4 39-6 3 28-28 25-55 27-57 4-80-31-80-86zm90-17c2-26 0-63-27-48-10 9-11 28-11 48h38" id="aU"/><path d="M109-18c15 0 31-2 42-6v14c-11 9-31 13-51 13-59 0-86-28-88-86-3-75 66-101 135-80v48h-13c-3-20-7-40-34-37-51 7-55 138 9 134" id="aV"/><path d="M78-41c-2 24 21 26 40 20C122 3 98 2 77 4 5 10 32-84 27-147H6v-11l25-7 21-38h26v38h35v18H78v106" id="aW"/><path d="M90-170c54-1 76 32 76 87 1 56-23 87-77 87-53 0-75-32-75-87s23-86 76-87zM89-14c28-2 26-38 26-69s3-69-26-69c-27 0-24 39-24 69s-3 66 24 69" id="aX"/><path d="M31-163c51-5 127-20 127 40v107l17 4V0h-61l-4-13C82 13 12 12 12-46c0-51 46-52 95-53 9-45-22-69-57-44l-7 20H31v-40zM62-47c0 30 26 34 45 23v-59c-28 0-45 6-45 36" id="aY"/><g id="a"><use transform="matrix(0.09876543209876544,0,0,0.09876543209876544,0,0)" xlink:href="#aR"/><use transform="matrix(0.09876543209876544,0,0,0.09876543209876544,25.58024691358025,0)" xlink:href="#aS"/><use transform="matrix(0.09876543209876544,0,0,0.09876543209876544,35.4567901234568,0)" xlink:href="#aT"/><use transform="matrix(0.09876543209876544,0,0,0.09876543209876544,50.46913580246914,0)" xlink:href="#aU"/><use transform="matrix(0.09876543209876544,0,0,0.09876543209876544,66.17283950617285,0)" xlink:href="#aV"/><use transform="matrix(0.09876543209876544,0,0,0.09876543209876544,81.87654320987656,0)" xlink:href="#aW"/><use transform="matrix(0.09876543209876544,0,0,0.09876543209876544,93.62962962962965,0)" xlink:href="#aX"/><use transform="matrix(0.09876543209876544,0,0,0.09876543209876544,111.40740740740742,0)" xlink:href="#aT"/><use transform="matrix(0.09876543209876544,0,0,0.09876543209876544,127.11111111111113,0)" xlink:href="#aY"/><use transform="matrix(0.09876543209876544,0,0,0.09876543209876544,144.8888888888889,0)" xlink:href="#aW"/><use transform="matrix(0.09876543209876544,0,0,0.09876543209876544,156.641975308642,0)" xlink:href="#aU"/></g><path d="M52-115c0 90 69 126 140 93v-67l-30-5v-9h87v9l-23 5v77c-27 8-56 16-90 16C59 2 15-37 15-115c-1-82 41-123 122-123 31 0 59 4 83 10v51h-12l-5-29c-15-12-38-18-65-18-66-1-86 42-86 109" id="aZ"/><path d="M47-200c-23 0-25-39 0-38 13 0 18 7 20 19-1 11-8 19-20 19zM65-12l28 4v8H8v-8l28-4v-141l-24-4v-8h53v153" id="ba"/><path d="M124-13C89 8 26 15 26-45v-108c-8-3-24 2-21-12h50v118c-3 37 42 32 69 25v-131l-25-4v-8h54v153c8 3 24-2 21 12h-48" id="bb"/><path d="M65-12l28 4v8H7v-8l28-4v-226l-28-4v-8h58v238" id="bc"/><path d="M32-163c41-10 102-14 102 39v112c8 3 24-2 21 12h-45l-4-17C83 13 3 13 13-46c-2-50 45-50 92-51 4-36-5-70-42-56-6 2-12 4-16 6-4 7 0 23-15 20v-36zM42-47c0 41 41 33 63 22v-59c-34 1-63-1-63 37" id="bd"/><g id="c"><use transform="matrix(0.09876543209876544,0,0,0.09876543209876544,0,0)" xlink:href="#aZ"/><use transform="matrix(0.09876543209876544,0,0,0.09876543209876544,25.58024691358025,0)" xlink:href="#ba"/><use transform="matrix(0.09876543209876544,0,0,0.09876543209876544,35.4567901234568,0)" xlink:href="#bb"/><use transform="matrix(0.09876543209876544,0,0,0.09876543209876544,53.23456790123457,0)" xlink:href="#bc"/><use transform="matrix(0.09876543209876544,0,0,0.09876543209876544,63.111111111111114,0)" xlink:href="#ba"/><use transform="matrix(0.09876543209876544,0,0,0.09876543209876544,72.98765432098767,0)" xlink:href="#bd"/></g><path d="M42-37c43 0 23 74-4 81-7 4-14 8-24 11V42c17-5 29-14 31-30C42-2 20 1 21-18c0-12 9-19 21-19" id="be"/><g id="d"><use transform="matrix(0.09876543209876544,0,0,0.09876543209876544,0,0)" xlink:href="#aZ"/><use transform="matrix(0.09876543209876544,0,0,0.09876543209876544,25.58024691358025,0)" xlink:href="#bd"/><use transform="matrix(0.09876543209876544,0,0,0.09876543209876544,41.283950617283956,0)" xlink:href="#bc"/><use transform="matrix(0.09876543209876544,0,0,0.09876543209876544,51.1604938271605,0)" xlink:href="#bc"/><use transform="matrix(0.09876543209876544,0,0,0.09876543209876544,61.037037037037045,0)" xlink:href="#ba"/><use transform="matrix(0.09876543209876544,0,0,0.09876543209876544,70.9135802469136,0)" xlink:href="#be"/></g><path d="M75-17c87 13 134-18 134-103 0-78-51-106-134-100v203zm171-102C246 5 139 7 10 0v-9l31-5v-208l-31-4v-10h107c82 0 129 35 129 117" id="bf"/><path d="M57-145c16-10 35-24 60-25v45c-19 1-8-30-40-17l-20 6v124l29 4v8H7v-8l21-4v-141c-8-3-24 2-21-12h48" id="bg"/><path d="M84-170c49 0 66 33 63 87H46c-8 60 38 80 95 63v10C128-2 108 4 88 4 34 4 14-29 14-84c-1-54 22-86 70-86zm33 73c12-57-57-82-69-24-1 7-2 15-2 24h71" id="bh"/><path d="M45-84c0 64 52 80 104 63 1 25-30 25-55 25-56 0-80-32-80-88 0-76 62-98 131-80v46h-10c-5-15-4-31-23-35-47-10-67 21-67 69" id="bi"/><path d="M54-38c-1 25 24 26 44 20v12C71 10 25 9 25-35v-115H4c-2-14 14-10 21-15l18-38h11v38h38v15H54v112" id="bj"/><path d="M90-170c52 0 76 32 76 87 0 54-24 87-77 87-51 0-75-34-75-87 0-54 24-87 76-87zM89-10c39 0 46-35 46-73 0-39-7-73-46-73-39 1-44 34-44 73s6 72 44 73" id="bk"/><g id="e"><use transform="matrix(0.09876543209876544,0,0,0.09876543209876544,0,0)" xlink:href="#bf"/><use transform="matrix(0.09876543209876544,0,0,0.09876543209876544,25.58024691358025,0)" xlink:href="#ba"/><use transform="matrix(0.09876543209876544,0,0,0.09876543209876544,35.4567901234568,0)" xlink:href="#bg"/><use transform="matrix(0.09876543209876544,0,0,0.09876543209876544,47.20987654320989,0)" xlink:href="#bh"/><use transform="matrix(0.09876543209876544,0,0,0.09876543209876544,62.91358024691358,0)" xlink:href="#bi"/><use transform="matrix(0.09876543209876544,0,0,0.09876543209876544,78.61728395061729,0)" xlink:href="#bj"/><use transform="matrix(0.09876543209876544,0,0,0.09876543209876544,88.49382716049384,0)" xlink:href="#bk"/><use transform="matrix(0.09876543209876544,0,0,0.09876543209876544,106.27160493827161,0)" xlink:href="#bg"/></g><path d="M75-106v92l39 5v9H13v-9l28-5v-208l-31-4v-10h177v57h-11l-6-38c-28-4-63-3-95-3v98h69l5-28h11v73h-11l-5-29H75" id="bl"/><path d="M125-118c4-37-41-34-68-26v132l23 4v8H8C5-13 21-9 28-12v-141c-7-3-23 1-20-12h47l2 13c31-23 98-29 98 31v109c7 3 23-1 20 12h-72v-8l22-4v-106" id="bm"/><path d="M45-84c0 64 52 80 104 63 1 25-30 25-55 25-56 0-80-32-80-88 0-76 62-98 131-80v46h-10c-5-15-4-31-23-35-47-10-67 21-67 69zm45 95c19 3 33 11 34 30 1 33-38 42-68 32V60c17 4 42 6 41-16-1-14-13-19-26-20l7-27h15" id="bn"/><path d="M41-130c7 48 86 23 86 84 0 56-69 57-112 41v-40c20 0 9 29 31 31 35 19 77-26 41-50-27-18-72-13-72-59 0-50 58-52 100-41v36c-19 1-8-25-28-25-21-7-50-1-46 23" id="bo"/><g id="f"><use transform="matrix(0.09876543209876544,0,0,0.09876543209876544,0,0)" xlink:href="#bl"/><use transform="matrix(0.09876543209876544,0,0,0.09876543209876544,19.75308641975309,0)" xlink:href="#bg"/><use transform="matrix(0.09876543209876544,0,0,0.09876543209876544,31.506172839506174,0)" xlink:href="#bd"/><use transform="matrix(0.09876543209876544,0,0,0.09876543209876544,47.20987654320988,0)" xlink:href="#bm"/><use transform="matrix(0.09876543209876544,0,0,0.09876543209876544,64.98765432098766,0)" xlink:href="#bn"/><use transform="matrix(0.09876543209876544,0,0,0.09876543209876544,80.69135802469137,0)" xlink:href="#bk"/><use transform="matrix(0.09876543209876544,0,0,0.09876543209876544,98.46913580246914,0)" xlink:href="#ba"/><use transform="matrix(0.09876543209876544,0,0,0.09876543209876544,108.34567901234568,0)" xlink:href="#bo"/></g><path d="M161-154L85 37C75 66 49 86 8 75V39c18-2 6 24 29 21 30-4 38-32 47-58L21-153c-7-3-20 0-17-12h77v8l-26 4 45 116 43-116-26-4v-8h62v8" id="bp"/><path d="M141-152c28 39 5 97-54 97-9 0-20-2-27-3L49-35c29 22 130-14 124 52-4 45-38 57-88 61C21 83-8 26 45-2 33-6 22-15 21-31l28-31c-19-9-28-26-28-51-2-51 53-65 100-52l38-20 7 8zM85 64c35 0 61-11 61-42 0-35-57-17-89-21-9 8-16 19-17 34 0 25 19 29 45 29zM52-113c1 26 7 46 35 44 28-1 34-16 35-44 0-26-6-43-34-43s-36 17-36 43" id="bq"/><g id="g"><use transform="matrix(0.09876543209876544,0,0,0.09876543209876544,0,0)" xlink:href="#aZ"/><use transform="matrix(0.09876543209876544,0,0,0.09876543209876544,25.58024691358025,0)" xlink:href="#bp"/><use transform="matrix(0.09876543209876544,0,0,0.09876543209876544,43.358024691358025,0)" xlink:href="#bq"/><use transform="matrix(0.09876543209876544,0,0,0.09876543209876544,61.13580246913581,0)" xlink:href="#ba"/><use transform="matrix(0.09876543209876544,0,0,0.09876543209876544,71.01234567901236,0)" xlink:href="#be"/></g><path d="M55 0v-9l38-5v-207c-22 1-53 0-70 4l-5 37H7v-56h207v56h-12l-5-37-70-3v206l37 5v9H55" id="br"/><path d="M60-80l68-73c-7-3-20 0-17-12h58c3 13-13 9-20 12l-47 48 60 93c7 3 21-1 18 12h-68c-3-12 9-9 15-12L82-83 60-60v48c7 3 21-1 18 12H10v-8l21-4v-226l-24-4v-8h53v170" id="bs"/><g id="h"><use transform="matrix(0.09876543209876544,0,0,0.09876543209876544,0,0)" xlink:href="#br"/><use transform="matrix(0.09876543209876544,0,0,0.09876543209876544,19.160493827160494,0)" xlink:href="#bd"/><use transform="matrix(0.09876543209876544,0,0,0.09876543209876544,34.864197530864196,0)" xlink:href="#bo"/><use transform="matrix(0.09876543209876544,0,0,0.09876543209876544,48.691358024691354,0)" xlink:href="#bs"/></g><path d="M111-226l-36 4v207c33-1 73 2 101-4l11-49h11l-3 68H10v-9l31-5v-208l-31-4v-10h101v10" id="bt"/><path d="M13-81c0-71 46-101 114-85l-1-72-28-4v-8h57v238c8 3 24-2 21 12h-47l-2-12C80 23 13-1 13-81zm77-74c-37 1-44 33-45 74 0 38 9 66 45 66 14 0 27-3 36-7v-130c-10-1-24-3-36-3" id="bu"/><g id="i"><use transform="matrix(0.09876543209876544,0,0,0.09876543209876544,0,0)" xlink:href="#bt"/><use transform="matrix(0.09876543209876544,0,0,0.09876543209876544,21.62962962962963,0)" xlink:href="#bh"/><use transform="matrix(0.09876543209876544,0,0,0.09876543209876544,37.333333333333336,0)" xlink:href="#bd"/><use transform="matrix(0.09876543209876544,0,0,0.09876543209876544,53.03703703703704,0)" xlink:href="#bu"/></g><path d="M106-76c4 61-43 93-98 74v-43h11c2 18 5 33 28 33 16 0 25-11 25-33v-177l-30-4v-10h91v10l-27 4v146" id="bv"/><g id="j"><use transform="matrix(0.09876543209876544,0,0,0.09876543209876544,0,0)" xlink:href="#bv"/><use transform="matrix(0.09876543209876544,0,0,0.09876543209876544,13.827160493827162,0)" xlink:href="#bb"/><use transform="matrix(0.09876543209876544,0,0,0.09876543209876544,31.60493827160494,0)" xlink:href="#bd"/><use transform="matrix(0.09876543209876544,0,0,0.09876543209876544,47.308641975308646,0)" xlink:href="#bm"/></g><g id="k"><use transform="matrix(0.09876543209876544,0,0,0.09876543209876544,0,0)" xlink:href="#bu"/><use transform="matrix(0.09876543209876544,0,0,0.09876543209876544,17.77777777777778,0)" xlink:href="#bh"/></g><path d="M75-108c48 3 76-12 76-58s-28-57-76-54v112zm111-58c-1 60-46 78-111 74v78l37 5v9H13v-9l28-5v-208l-31-4v-10c81 1 178-14 176 70" id="bw"/><path d="M53-14c58 12 82-15 82-73 0-52-35-77-82-58v131zM89 4C64 4 42-2 24-9v-229l-24-4v-8h53l-1 94c48-33 114-4 114 69 0 57-23 91-77 91" id="bx"/><g id="l"><use transform="matrix(0.09876543209876544,0,0,0.09876543209876544,0,0)" xlink:href="#bw"/><use transform="matrix(0.09876543209876544,0,0,0.09876543209876544,19.75308641975309,0)" xlink:href="#bd"/><use transform="matrix(0.09876543209876544,0,0,0.09876543209876544,35.45679012345679,0)" xlink:href="#bx"/><use transform="matrix(0.09876543209876544,0,0,0.09876543209876544,53.23456790123457,0)" xlink:href="#bc"/><use transform="matrix(0.09876543209876544,0,0,0.09876543209876544,63.111111111111114,0)" xlink:href="#bk"/><use transform="matrix(0.09876543209876544,0,0,0.09876543209876544,80.88888888888889,0)" xlink:href="#be"/></g><path d="M166-85c3 67-44 102-111 85l1 64 29 4v9H6v-9l21-4v-217c-7-3-22 1-19-12h46l1 9c11-8 26-14 45-14 47 2 64 36 66 85zM56-13c53 14 83-14 78-72 7-53-33-79-78-60v132" id="by"/><g id="m"><use transform="matrix(0.09876543209876544,0,0,0.09876543209876544,0,0)" xlink:href="#bf"/><use transform="matrix(0.09876543209876544,0,0,0.09876543209876544,25.58024691358025,0)" xlink:href="#bh"/><use transform="matrix(0.09876543209876544,0,0,0.09876543209876544,41.283950617283956,0)" xlink:href="#by"/><use transform="matrix(0.09876543209876544,0,0,0.09876543209876544,59.061728395061735,0)" xlink:href="#bb"/><use transform="matrix(0.09876543209876544,0,0,0.09876543209876544,76.83950617283952,0)" xlink:href="#bj"/><use transform="matrix(0.09876543209876544,0,0,0.09876543209876544,86.71604938271606,0)" xlink:href="#bp"/></g><g id="n"><use transform="matrix(0.09876543209876544,0,0,0.09876543209876544,0,0)" xlink:href="#bf"/><use transform="matrix(0.09876543209876544,0,0,0.09876543209876544,25.58024691358025,0)" xlink:href="#ba"/><use transform="matrix(0.09876543209876544,0,0,0.09876543209876544,35.4567901234568,0)" xlink:href="#bg"/><use transform="matrix(0.09876543209876544,0,0,0.09876543209876544,47.20987654320989,0)" xlink:href="#bh"/><use transform="matrix(0.09876543209876544,0,0,0.09876543209876544,62.91358024691358,0)" xlink:href="#bi"/><use transform="matrix(0.09876543209876544,0,0,0.09876543209876544,78.61728395061729,0)" xlink:href="#bj"/><use transform="matrix(0.09876543209876544,0,0,0.09876543209876544,88.49382716049384,0)" xlink:href="#bk"/><use transform="matrix(0.09876543209876544,0,0,0.09876543209876544,106.27160493827161,0)" xlink:href="#bg"/></g><path d="M152 0h-7L59-203v189l32 5v9H10v-9l31-5v-208l-31-4v-10h72l76 180 84-180h68v10l-31 4v208l31 5v9h-96v-9l32-5v-189" id="bz"/><g id="o"><use transform="matrix(0.09876543209876544,0,0,0.09876543209876544,0,0)" xlink:href="#bz"/><use transform="matrix(0.09876543209876544,0,0,0.09876543209876544,31.60493827160494,0)" xlink:href="#bd"/><use transform="matrix(0.09876543209876544,0,0,0.09876543209876544,47.308641975308646,0)" xlink:href="#bg"/><use transform="matrix(0.09876543209876544,0,0,0.09876543209876544,59.061728395061735,0)" xlink:href="#bi"/><use transform="matrix(0.09876543209876544,0,0,0.09876543209876544,74.76543209876544,0)" xlink:href="#bk"/></g><path d="M164-154L98 4H85L17-153c-7-3-20 0-17-12h77v8l-26 4L99-38l46-115-26-4v-8h61v8" id="bA"/><g id="p"><use transform="matrix(0.09876543209876544,0,0,0.09876543209876544,0,0)" xlink:href="#aZ"/><use transform="matrix(0.09876543209876544,0,0,0.09876543209876544,25.58024691358025,0)" xlink:href="#bk"/><use transform="matrix(0.09876543209876544,0,0,0.09876543209876544,43.358024691358025,0)" xlink:href="#bA"/><use transform="matrix(0.09876543209876544,0,0,0.09876543209876544,61.13580246913581,0)" xlink:href="#bk"/><use transform="matrix(0.09876543209876544,0,0,0.09876543209876544,78.91358024691358,0)" xlink:href="#bm"/><use transform="matrix(0.09876543209876544,0,0,0.09876543209876544,96.69135802469137,0)" xlink:href="#ba"/><use transform="matrix(0.09876543209876544,0,0,0.09876543209876544,106.56790123456791,0)" xlink:href="#be"/></g><path d="M126-119c3-38-42-31-69-25v132l23 4v8H7v-8l21-4v-226l-24-4v-8h53l-1 98c31-22 99-31 99 31v109c7 3 23-1 20 12h-71v-8l22-4v-107" id="bB"/><g id="q"><use transform="matrix(0.09876543209876544,0,0,0.09876543209876544,0,0)" xlink:href="#bv"/><use transform="matrix(0.09876543209876544,0,0,0.09876543209876544,13.827160493827162,0)" xlink:href="#bk"/><use transform="matrix(0.09876543209876544,0,0,0.09876543209876544,31.60493827160494,0)" xlink:href="#bm"/><use transform="matrix(0.09876543209876544,0,0,0.09876543209876544,49.38271604938272,0)" xlink:href="#bd"/><use transform="matrix(0.09876543209876544,0,0,0.09876543209876544,65.08641975308643,0)" xlink:href="#bj"/><use transform="matrix(0.09876543209876544,0,0,0.09876543209876544,74.96296296296298,0)" xlink:href="#bB"/><use transform="matrix(0.09876543209876544,0,0,0.09876543209876544,92.74074074074076,0)" xlink:href="#bd"/><use transform="matrix(0.09876543209876544,0,0,0.09876543209876544,108.44444444444447,0)" xlink:href="#bm"/></g><path d="M319-222L242 5h-10l-61-162L108 5h-9L21-222l-21-4v-10h90v10l-34 4 56 166 63-163h8l61 163 54-166-37-4v-10h78v10" id="bC"/><path d="M126-118c4-37-42-32-68-25v131l24 4v8H8C5-13 21-9 28-12v-141c-7-3-23 1-20-12h48l1 13c22-15 77-30 92 2 32-22 104-36 104 29v109c8 3 24-2 21 12h-75v-8l25-4v-106c3-39-45-31-72-24 7 37 1 88 3 130l25 4v8h-78v-8l24-4v-106" id="bD"/><g id="r"><use transform="matrix(0.09876543209876544,0,0,0.09876543209876544,0,0)" xlink:href="#bC"/><use transform="matrix(0.09876543209876544,0,0,0.09876543209876544,33.48148148148148,0)" xlink:href="#bB"/><use transform="matrix(0.09876543209876544,0,0,0.09876543209876544,51.25925925925927,0)" xlink:href="#ba"/><use transform="matrix(0.09876543209876544,0,0,0.09876543209876544,61.13580246913581,0)" xlink:href="#bj"/><use transform="matrix(0.09876543209876544,0,0,0.09876543209876544,71.01234567901236,0)" xlink:href="#bD"/><use transform="matrix(0.09876543209876544,0,0,0.09876543209876544,98.66666666666669,0)" xlink:href="#bh"/><use transform="matrix(0.09876543209876544,0,0,0.09876543209876544,114.37037037037041,0)" xlink:href="#bg"/><use transform="matrix(0.09876543209876544,0,0,0.09876543209876544,124.74074074074075,0)" xlink:href="#be"/></g><g id="s"><use transform="matrix(0.09876543209876544,0,0,0.09876543209876544,0,0)" xlink:href="#bt"/><use transform="matrix(0.09876543209876544,0,0,0.09876543209876544,21.62962962962963,0)" xlink:href="#bh"/><use transform="matrix(0.09876543209876544,0,0,0.09876543209876544,37.333333333333336,0)" xlink:href="#bd"/><use transform="matrix(0.09876543209876544,0,0,0.09876543209876544,53.03703703703704,0)" xlink:href="#bu"/></g><path d="M185-72C185 13 82 14 19-9v-63h16c2 37 21 58 61 58 46 0 69-51 31-71-42-23-106-23-106-90 0-69 87-70 148-56v56h-16l-7-32c-26-25-110-13-82 35 39 34 121 26 121 100" id="bE"/><path d="M127-114c3-31-26-38-50-25v123l15 4V0H10v-12l16-4v-133l-16-5v-11h64l2 14c31-23 102-32 102 30v105l17 4V0h-82v-12l14-4v-98" id="bF"/><path d="M107-230c-31-13-29 30-29 65h34v18H78v131l27 4V0H10v-12l18-4v-131H3v-12l25-7c-8-66 31-98 95-84v39h-11" id="bG"/><g id="t"><use transform="matrix(0.09876543209876544,0,0,0.09876543209876544,0,0)" xlink:href="#bE"/><use transform="matrix(0.09876543209876544,0,0,0.09876543209876544,19.75308641975309,0)" xlink:href="#aV"/><use transform="matrix(0.09876543209876544,0,0,0.09876543209876544,35.45679012345679,0)" xlink:href="#aS"/><use transform="matrix(0.09876543209876544,0,0,0.09876543209876544,45.333333333333336,0)" xlink:href="#aU"/><use transform="matrix(0.09876543209876544,0,0,0.09876543209876544,61.037037037037045,0)" xlink:href="#bF"/><use transform="matrix(0.09876543209876544,0,0,0.09876543209876544,80.79012345679013,0)" xlink:href="#aW"/><use transform="matrix(0.09876543209876544,0,0,0.09876543209876544,92.54320987654322,0)" xlink:href="#aS"/><use transform="matrix(0.09876543209876544,0,0,0.09876543209876544,102.41975308641976,0)" xlink:href="#bG"/><use transform="matrix(0.09876543209876544,0,0,0.09876543209876544,114.17283950617285,0)" xlink:href="#aS"/><use transform="matrix(0.09876543209876544,0,0,0.09876543209876544,124.0493827160494,0)" xlink:href="#aV"/></g><path d="M75-13V0H4v-13l17-5 84-220h51l83 220 18 5V0H152v-13l28-5-23-61H67L45-18zm38-189L74-98h76" id="bH"/><path d="M15-82c-4-69 47-101 113-83l-1-69-17-4v-12h68v234l18 4V0h-63l-4-9C77 23 5-9 15-82zm112-66c-43-16-64 17-61 65 2 33 3 67 32 67 12 0 22-3 29-8v-124" id="bI"/><path d="M168-150L102 4H81L12-149c-7-2-15-4-12-16h85v11l-20 5 42 94 38-94-19-5v-11h54v11" id="bJ"/><path d="M102-142c-14-17-68-15-54 18 24 26 83 17 83 72 0 62-72 62-120 47v-45h12c4 23 16 37 43 37 35 0 39-37 9-46-31-9-65-19-64-61 0-52 59-55 108-45v43h-11" id="bK"/><path d="M81 5L15-149c-7-2-13-5-11-16h84v11l-20 5 39 91 35-91-19-5v-11h53c2 11-4 13-11 15C134-81 111-5 75 58 65 77 34 83 8 74V32h11c0 24 29 35 43 12 7-11 13-25 19-39" id="bL"/><g id="u"><use transform="matrix(0.09876543209876544,0,0,0.09876543209876544,0,0)" xlink:href="#bH"/><use transform="matrix(0.09876543209876544,0,0,0.09876543209876544,25.58024691358025,0)" xlink:href="#bI"/><use transform="matrix(0.09876543209876544,0,0,0.09876543209876544,45.33333333333334,0)" xlink:href="#bJ"/><use transform="matrix(0.09876543209876544,0,0,0.09876543209876544,63.111111111111114,0)" xlink:href="#aS"/><use transform="matrix(0.09876543209876544,0,0,0.09876543209876544,72.98765432098767,0)" xlink:href="#bK"/><use transform="matrix(0.09876543209876544,0,0,0.09876543209876544,86.81481481481484,0)" xlink:href="#aX"/><use transform="matrix(0.09876543209876544,0,0,0.09876543209876544,104.5925925925926,0)" xlink:href="#aT"/><use transform="matrix(0.09876543209876544,0,0,0.09876543209876544,120.29629629629633,0)" xlink:href="#bL"/></g><path d="M92-134c39 3 62-4 62-44 0-37-25-40-62-38v82zm0 115c49 5 80-2 80-50 0-44-34-49-80-46v96zm138-50C230 26 101-4 6 0v-13l30-5v-200l-30-5v-13c79 7 206-26 206 54 0 33-22 49-49 56 39 3 67 18 67 57" id="bM"/><g id="v"><use transform="matrix(0.09876543209876544,0,0,0.09876543209876544,0,0)" xlink:href="#bM"/><use transform="matrix(0.09876543209876544,0,0,0.09876543209876544,23.703703703703706,0)" xlink:href="#aX"/><use transform="matrix(0.09876543209876544,0,0,0.09876543209876544,41.48148148148148,0)" xlink:href="#aY"/><use transform="matrix(0.09876543209876544,0,0,0.09876543209876544,59.25925925925927,0)" xlink:href="#aT"/><use transform="matrix(0.09876543209876544,0,0,0.09876543209876544,74.96296296296296,0)" xlink:href="#bI"/></g><g id="x"><use transform="matrix(0.09876543209876544,0,0,0.09876543209876544,0,0)" xlink:href="#bf"/><use transform="matrix(0.09876543209876544,0,0,0.09876543209876544,25.58024691358025,0)" xlink:href="#bd"/><use transform="matrix(0.09876543209876544,0,0,0.09876543209876544,41.283950617283956,0)" xlink:href="#bA"/><use transform="matrix(0.09876543209876544,0,0,0.09876543209876544,59.061728395061735,0)" xlink:href="#ba"/><use transform="matrix(0.09876543209876544,0,0,0.09876543209876544,68.93827160493828,0)" xlink:href="#bu"/></g><path d="M45-37c13 0 21 8 21 21C67-2 57 4 45 5 33 4 23-2 24-16c0-13 8-21 21-21" id="bN"/><g id="y"><use transform="matrix(0.09876543209876544,0,0,0.09876543209876544,0,0)" xlink:href="#aZ"/><use transform="matrix(0.09876543209876544,0,0,0.09876543209876544,25.58024691358025,0)" xlink:href="#bN"/></g><path d="M52-115c0 93 80 130 150 87l7-35h11l-1 55c-23 7-52 12-83 12C60 4 19-37 15-115c-5-113 97-141 201-114l1 51h-12l-5-30c-15-9-39-16-62-16-66 0-86 41-86 109" id="bO"/><g id="z"><use transform="matrix(0.09876543209876544,0,0,0.09876543209876544,0,0)" xlink:href="#bO"/><use transform="matrix(0.09876543209876544,0,0,0.09876543209876544,23.703703703703706,0)" xlink:href="#bd"/><use transform="matrix(0.09876543209876544,0,0,0.09876543209876544,39.40740740740741,0)" xlink:href="#bB"/><use transform="matrix(0.09876543209876544,0,0,0.09876543209876544,57.18518518518519,0)" xlink:href="#ba"/><use transform="matrix(0.09876543209876544,0,0,0.09876543209876544,67.06172839506173,0)" xlink:href="#bc"/><use transform="matrix(0.09876543209876544,0,0,0.09876543209876544,76.93827160493828,0)" xlink:href="#bc"/></g><path d="M178-68c0 79-95 82-154 59v-54h12c1 35 22 52 60 52 50 0 69-58 33-82-39-24-105-21-105-85 0-67 86-66 142-53v49h-12l-6-29c-31-27-121-7-89 42 28 43 119 24 119 101" id="bP"/><g id="A"><use transform="matrix(0.09876543209876544,0,0,0.09876543209876544,0,0)" xlink:href="#bP"/><use transform="matrix(0.09876543209876544,0,0,0.09876543209876544,19.75308641975309,0)" xlink:href="#bj"/><use transform="matrix(0.09876543209876544,0,0,0.09876543209876544,29.629629629629633,0)" xlink:href="#bh"/><use transform="matrix(0.09876543209876544,0,0,0.09876543209876544,45.333333333333336,0)" xlink:href="#bA"/><use transform="matrix(0.09876543209876544,0,0,0.09876543209876544,63.111111111111114,0)" xlink:href="#bh"/><use transform="matrix(0.09876543209876544,0,0,0.09876543209876544,78.81481481481482,0)" xlink:href="#bm"/></g><g id="B"><use transform="matrix(0.09876543209876544,0,0,0.09876543209876544,0,0)" xlink:href="#bt"/><use transform="matrix(0.09876543209876544,0,0,0.09876543209876544,21.62962962962963,0)" xlink:href="#bk"/><use transform="matrix(0.09876543209876544,0,0,0.09876543209876544,39.407407407407405,0)" xlink:href="#bb"/><use transform="matrix(0.09876543209876544,0,0,0.09876543209876544,57.185185185185176,0)" xlink:href="#ba"/><use transform="matrix(0.09876543209876544,0,0,0.09876543209876544,67.06172839506172,0)" xlink:href="#bh"/></g><path d="M203-222l-32-4v-10h81v10l-31 4V0h-17L59-212v198l32 5v9H10v-9l31-5v-208l-31-4v-10h72L203-61v-161" id="bQ"/><g id="C"><use transform="matrix(0.09876543209876544,0,0,0.09876543209876544,0,0)" xlink:href="#bQ"/><use transform="matrix(0.09876543209876544,0,0,0.09876543209876544,25.58024691358025,0)" xlink:href="#ba"/><use transform="matrix(0.09876543209876544,0,0,0.09876543209876544,35.4567901234568,0)" xlink:href="#bi"/><use transform="matrix(0.09876543209876544,0,0,0.09876543209876544,51.1604938271605,0)" xlink:href="#bk"/><use transform="matrix(0.09876543209876544,0,0,0.09876543209876544,68.93827160493828,0)" xlink:href="#bc"/><use transform="matrix(0.09876543209876544,0,0,0.09876543209876544,78.81481481481482,0)" xlink:href="#bd"/></g><path d="M10 0v-8l90-143c-23 2-54-4-70 6-5 8 1 26-14 24v-44h122v8L47-14c29-2 65 3 86-8l9-35h8l-5 57H10" id="bR"/><g id="D"><use transform="matrix(0.09876543209876544,0,0,0.09876543209876544,0,0)" xlink:href="#bz"/><use transform="matrix(0.09876543209876544,0,0,0.09876543209876544,31.60493827160494,0)" xlink:href="#bd"/><use transform="matrix(0.09876543209876544,0,0,0.09876543209876544,47.308641975308646,0)" xlink:href="#bg"/><use transform="matrix(0.09876543209876544,0,0,0.09876543209876544,59.061728395061735,0)" xlink:href="#bR"/><use transform="matrix(0.09876543209876544,0,0,0.09876543209876544,74.76543209876544,0)" xlink:href="#bd"/><use transform="matrix(0.09876543209876544,0,0,0.09876543209876544,90.46913580246915,0)" xlink:href="#bg"/><use transform="matrix(0.09876543209876544,0,0,0.09876543209876544,102.22222222222226,0)" xlink:href="#ba"/></g><g id="E"><use transform="matrix(0.09876543209876544,0,0,0.09876543209876544,0,0)" xlink:href="#bz"/><use transform="matrix(0.09876543209876544,0,0,0.09876543209876544,31.60493827160494,0)" xlink:href="#bd"/><use transform="matrix(0.09876543209876544,0,0,0.09876543209876544,47.308641975308646,0)" xlink:href="#bg"/><use transform="matrix(0.09876543209876544,0,0,0.09876543209876544,59.061728395061735,0)" xlink:href="#bi"/><use transform="matrix(0.09876543209876544,0,0,0.09876543209876544,74.76543209876544,0)" xlink:href="#bb"/><use transform="matrix(0.09876543209876544,0,0,0.09876543209876544,92.54320987654322,0)" xlink:href="#bo"/></g><path d="M124-13C89 8 26 15 26-45v-108c-8-3-24 2-21-12h50v118c-3 37 42 32 69 25v-131l-25-4v-8h54v153c8 3 24-2 21 12h-48zm-3-214c10 0 18 7 18 17 0 11-7 18-18 18-9 0-18-7-17-18 0-10 7-17 17-17zm-62 0c10 0 17 7 17 17s-7 18-17 18-19-7-18-18c0-11 8-17 18-17" id="bS"/><g id="F"><use transform="matrix(0.09876543209876544,0,0,0.09876543209876544,0,0)" xlink:href="#bz"/><use transform="matrix(0.09876543209876544,0,0,0.09876543209876544,31.60493827160494,0)" xlink:href="#bS"/><use transform="matrix(0.09876543209876544,0,0,0.09876543209876544,49.38271604938272,0)" xlink:href="#bc"/><use transform="matrix(0.09876543209876544,0,0,0.09876543209876544,59.25925925925927,0)" xlink:href="#bc"/><use transform="matrix(0.09876543209876544,0,0,0.09876543209876544,69.13580246913581,0)" xlink:href="#bh"/><use transform="matrix(0.09876543209876544,0,0,0.09876543209876544,84.83950617283952,0)" xlink:href="#bg"/></g><path d="M81-9v9H4v-9l26-5 81-224h33l83 224 30 5v9h-99v-9l31-5-23-68H73L49-14zm38-203L78-98h82" id="bT"/><g id="G"><use transform="matrix(0.09876543209876544,0,0,0.09876543209876544,0,0)" xlink:href="#bT"/><use transform="matrix(0.09876543209876544,0,0,0.09876543209876544,25.58024691358025,0)" xlink:href="#bj"/><use transform="matrix(0.09876543209876544,0,0,0.09876543209876544,35.4567901234568,0)" xlink:href="#bB"/><use transform="matrix(0.09876543209876544,0,0,0.09876543209876544,53.23456790123457,0)" xlink:href="#bd"/><use transform="matrix(0.09876543209876544,0,0,0.09876543209876544,68.93827160493828,0)" xlink:href="#bm"/><use transform="matrix(0.09876543209876544,0,0,0.09876543209876544,86.71604938271605,0)" xlink:href="#bd"/><use transform="matrix(0.09876543209876544,0,0,0.09876543209876544,102.41975308641976,0)" xlink:href="#bo"/><use transform="matrix(0.09876543209876544,0,0,0.09876543209876544,116.24691358024693,0)" xlink:href="#bo"/><use transform="matrix(0.09876543209876544,0,0,0.09876543209876544,130.07407407407408,0)" xlink:href="#ba"/><use transform="matrix(0.09876543209876544,0,0,0.09876543209876544,139.95061728395063,0)" xlink:href="#bk"/><use transform="matrix(0.09876543209876544,0,0,0.09876543209876544,157.7283950617284,0)" xlink:href="#bo"/></g><path d="M56-15s89 2 122-6l10-45h12l-5 66H17v-17l132-204c-33 1-75-1-103 4l-6 37H28v-56h161v15" id="bU"/><g id="H"><use transform="matrix(0.09876543209876544,0,0,0.09876543209876544,0,0)" xlink:href="#bU"/><use transform="matrix(0.09876543209876544,0,0,0.09876543209876544,21.62962962962963,0)" xlink:href="#bN"/></g><g id="I"><use transform="matrix(0.09876543209876544,0,0,0.09876543209876544,0,0)" xlink:href="#bw"/><use transform="matrix(0.09876543209876544,0,0,0.09876543209876544,19.75308641975309,0)" xlink:href="#bd"/><use transform="matrix(0.09876543209876544,0,0,0.09876543209876544,35.45679012345679,0)" xlink:href="#bm"/><use transform="matrix(0.09876543209876544,0,0,0.09876543209876544,53.23456790123457,0)" xlink:href="#bd"/><use transform="matrix(0.09876543209876544,0,0,0.09876543209876544,68.93827160493828,0)" xlink:href="#bq"/><use transform="matrix(0.09876543209876544,0,0,0.09876543209876544,86.71604938271605,0)" xlink:href="#ba"/><use transform="matrix(0.09876543209876544,0,0,0.09876543209876544,96.5925925925926,0)" xlink:href="#bk"/><use transform="matrix(0.09876543209876544,0,0,0.09876543209876544,114.37037037037038,0)" xlink:href="#bj"/><use transform="matrix(0.09876543209876544,0,0,0.09876543209876544,124.24691358024693,0)" xlink:href="#bk"/><use transform="matrix(0.09876543209876544,0,0,0.09876543209876544,142.0246913580247,0)" xlink:href="#by"/><use transform="matrix(0.09876543209876544,0,0,0.09876543209876544,159.80246913580248,0)" xlink:href="#bk"/><use transform="matrix(0.09876543209876544,0,0,0.09876543209876544,177.58024691358025,0)" xlink:href="#bb"/><use transform="matrix(0.09876543209876544,0,0,0.09876543209876544,195.35802469135803,0)" xlink:href="#bc"/><use transform="matrix(0.09876543209876544,0,0,0.09876543209876544,205.23456790123458,0)" xlink:href="#bk"/><use transform="matrix(0.09876543209876544,0,0,0.09876543209876544,223.01234567901236,0)" xlink:href="#bo"/></g><g id="J"><use transform="matrix(0.09876543209876544,0,0,0.09876543209876544,0,0)" xlink:href="#bz"/><use transform="matrix(0.09876543209876544,0,0,0.09876543209876544,31.60493827160494,0)" xlink:href="#ba"/><use transform="matrix(0.09876543209876544,0,0,0.09876543209876544,41.48148148148148,0)" xlink:href="#bi"/><use transform="matrix(0.09876543209876544,0,0,0.09876543209876544,57.185185185185176,0)" xlink:href="#bB"/><use transform="matrix(0.09876543209876544,0,0,0.09876543209876544,74.96296296296296,0)" xlink:href="#bd"/><use transform="matrix(0.09876543209876544,0,0,0.09876543209876544,90.66666666666667,0)" xlink:href="#bh"/><use transform="matrix(0.09876543209876544,0,0,0.09876543209876544,106.37037037037038,0)" xlink:href="#bc"/></g><g id="K"><use transform="matrix(0.09876543209876544,0,0,0.09876543209876544,0,0)" xlink:href="#bw"/><use transform="matrix(0.09876543209876544,0,0,0.09876543209876544,19.75308641975309,0)" xlink:href="#bd"/><use transform="matrix(0.09876543209876544,0,0,0.09876543209876544,35.45679012345679,0)" xlink:href="#bp"/><use transform="matrix(0.09876543209876544,0,0,0.09876543209876544,53.23456790123457,0)" xlink:href="#bm"/><use transform="matrix(0.09876543209876544,0,0,0.09876543209876544,71.01234567901236,0)" xlink:href="#bh"/></g><g id="L"><use transform="matrix(0.09876543209876544,0,0,0.09876543209876544,0,0)" xlink:href="#bw"/><use transform="matrix(0.09876543209876544,0,0,0.09876543209876544,19.75308641975309,0)" xlink:href="#bh"/><use transform="matrix(0.09876543209876544,0,0,0.09876543209876544,35.45679012345679,0)" xlink:href="#bj"/><use transform="matrix(0.09876543209876544,0,0,0.09876543209876544,45.333333333333336,0)" xlink:href="#bh"/><use transform="matrix(0.09876543209876544,0,0,0.09876543209876544,61.037037037037045,0)" xlink:href="#bg"/></g><path d="M199-173c-1 36-21 56-49 65l64 94 26 5v9h-57l-66-103H75v89l35 5v9H13v-9l28-5v-208l-31-4v-10c80 4 190-20 189 63zM75-119c50 2 89-1 89-51 0-49-39-52-89-50v101" id="bV"/><g id="M"><use transform="matrix(0.09876543209876544,0,0,0.09876543209876544,0,0)" xlink:href="#bV"/><use transform="matrix(0.09876543209876544,0,0,0.09876543209876544,23.703703703703706,0)" xlink:href="#bk"/><use transform="matrix(0.09876543209876544,0,0,0.09876543209876544,41.48148148148148,0)" xlink:href="#bo"/><use transform="matrix(0.09876543209876544,0,0,0.09876543209876544,55.308641975308646,0)" xlink:href="#bo"/><use transform="matrix(0.09876543209876544,0,0,0.09876543209876544,69.13580246913581,0)" xlink:href="#bs"/><use transform="matrix(0.09876543209876544,0,0,0.09876543209876544,86.9135802469136,0)" xlink:href="#bp"/></g><path d="M108-235c-52 28-62 95-58 178 3 56 21 97 58 119v15C7 49-17-153 67-223c12-10 25-19 41-27v15" id="bW"/><path d="M12-250C113-222 137-19 52 49 40 59 28 69 12 77V62C56 37 70-16 70-87c0-70-13-123-58-148v-15" id="bX"/><g id="N"><use transform="matrix(0.09876543209876544,0,0,0.09876543209876544,0,0)" xlink:href="#bW"/><use transform="matrix(0.09876543209876544,0,0,0.09876543209876544,11.753086419753087,0)" xlink:href="#bO"/><use transform="matrix(0.09876543209876544,0,0,0.09876543209876544,35.45679012345679,0)" xlink:href="#bB"/><use transform="matrix(0.09876543209876544,0,0,0.09876543209876544,53.23456790123457,0)" xlink:href="#bd"/><use transform="matrix(0.09876543209876544,0,0,0.09876543209876544,68.93827160493828,0)" xlink:href="#ba"/><use transform="matrix(0.09876543209876544,0,0,0.09876543209876544,78.81481481481482,0)" xlink:href="#bg"/><use transform="matrix(0.09876543209876544,0,0,0.09876543209876544,90.56790123456791,0)" xlink:href="#bX"/></g><g id="O"><use transform="matrix(0.09876543209876544,0,0,0.09876543209876544,0,0)" xlink:href="#bT"/><use transform="matrix(0.09876543209876544,0,0,0.09876543209876544,25.58024691358025,0)" xlink:href="#bm"/><use transform="matrix(0.09876543209876544,0,0,0.09876543209876544,43.358024691358025,0)" xlink:href="#bq"/><use transform="matrix(0.09876543209876544,0,0,0.09876543209876544,61.13580246913581,0)" xlink:href="#bh"/><use transform="matrix(0.09876543209876544,0,0,0.09876543209876544,76.8395061728395,0)" xlink:href="#bc"/></g><g id="P"><use transform="matrix(0.09876543209876544,0,0,0.09876543209876544,0,0)" xlink:href="#bV"/><use transform="matrix(0.09876543209876544,0,0,0.09876543209876544,23.703703703703706,0)" xlink:href="#bb"/><use transform="matrix(0.09876543209876544,0,0,0.09876543209876544,41.48148148148148,0)" xlink:href="#bx"/><use transform="matrix(0.09876543209876544,0,0,0.09876543209876544,59.25925925925927,0)" xlink:href="#ba"/><use transform="matrix(0.09876543209876544,0,0,0.09876543209876544,69.1358024691358,0)" xlink:href="#bk"/></g><path d="M10-9l31-5v-208l-31-4v-10h177v57h-11l-6-38c-28-4-63-3-95-3v92h63l6-28h11v73h-11l-6-29H75v96l105-3 10-43h12l-3 62H10v-9" id="bY"/><path d="M240-154L185 4h-14l-41-109L90 4H77L20-153c-7-3-23 1-20-12h79v8l-27 4L91-41l40-108h14l40 109 38-113-28-4v-8h63v8" id="bZ"/><g id="Q"><use transform="matrix(0.09876543209876544,0,0,0.09876543209876544,0,0)" xlink:href="#bY"/><use transform="matrix(0.09876543209876544,0,0,0.09876543209876544,21.62962962962963,0)" xlink:href="#bu"/><use transform="matrix(0.09876543209876544,0,0,0.09876543209876544,39.407407407407405,0)" xlink:href="#bZ"/><use transform="matrix(0.09876543209876544,0,0,0.09876543209876544,64.98765432098766,0)" xlink:href="#bd"/><use transform="matrix(0.09876543209876544,0,0,0.09876543209876544,80.69135802469137,0)" xlink:href="#bg"/><use transform="matrix(0.09876543209876544,0,0,0.09876543209876544,92.44444444444446,0)" xlink:href="#bu"/></g><g id="R"><use transform="matrix(0.09876543209876544,0,0,0.09876543209876544,0,0)" xlink:href="#bP"/><use transform="matrix(0.09876543209876544,0,0,0.09876543209876544,19.75308641975309,0)" xlink:href="#bh"/><use transform="matrix(0.09876543209876544,0,0,0.09876543209876544,35.45679012345679,0)" xlink:href="#ba"/><use transform="matrix(0.09876543209876544,0,0,0.09876543209876544,45.333333333333336,0)" xlink:href="#bu"/><use transform="matrix(0.09876543209876544,0,0,0.09876543209876544,63.111111111111114,0)" xlink:href="#bh"/><use transform="matrix(0.09876543209876544,0,0,0.09876543209876544,78.81481481481482,0)" xlink:href="#bc"/></g><g id="S"><use transform="matrix(0.09876543209876544,0,0,0.09876543209876544,0,0)" xlink:href="#bP"/><use transform="matrix(0.09876543209876544,0,0,0.09876543209876544,19.75308641975309,0)" xlink:href="#bd"/><use transform="matrix(0.09876543209876544,0,0,0.09876543209876544,35.45679012345679,0)" xlink:href="#bu"/><use transform="matrix(0.09876543209876544,0,0,0.09876543209876544,53.23456790123457,0)" xlink:href="#bd"/><use transform="matrix(0.09876543209876544,0,0,0.09876543209876544,68.93827160493828,0)" xlink:href="#bo"/><use transform="matrix(0.09876543209876544,0,0,0.09876543209876544,82.76543209876544,0)" xlink:href="#ba"/><use transform="matrix(0.09876543209876544,0,0,0.09876543209876544,92.64197530864199,0)" xlink:href="#bA"/><use transform="matrix(0.09876543209876544,0,0,0.09876543209876544,110.41975308641979,0)" xlink:href="#bd"/><use transform="matrix(0.09876543209876544,0,0,0.09876543209876544,126.12345679012348,0)" xlink:href="#bm"/></g><g id="T"><use transform="matrix(0.09876543209876544,0,0,0.09876543209876544,0,0)" xlink:href="#bP"/><use transform="matrix(0.09876543209876544,0,0,0.09876543209876544,19.75308641975309,0)" xlink:href="#bB"/><use transform="matrix(0.09876543209876544,0,0,0.09876543209876544,37.53086419753087,0)" xlink:href="#bd"/><use transform="matrix(0.09876543209876544,0,0,0.09876543209876544,53.23456790123457,0)" xlink:href="#bm"/><use transform="matrix(0.09876543209876544,0,0,0.09876543209876544,71.01234567901236,0)" xlink:href="#bs"/><use transform="matrix(0.09876543209876544,0,0,0.09876543209876544,88.79012345679013,0)" xlink:href="#bd"/><use transform="matrix(0.09876543209876544,0,0,0.09876543209876544,104.49382716049384,0)" xlink:href="#bg"/></g><g id="U"><use transform="matrix(0.09876543209876544,0,0,0.09876543209876544,0,0)" xlink:href="#br"/><use transform="matrix(0.09876543209876544,0,0,0.09876543209876544,21.62962962962963,0)" xlink:href="#bB"/><use transform="matrix(0.09876543209876544,0,0,0.09876543209876544,39.407407407407405,0)" xlink:href="#bk"/><use transform="matrix(0.09876543209876544,0,0,0.09876543209876544,57.185185185185176,0)" xlink:href="#bD"/><use transform="matrix(0.09876543209876544,0,0,0.09876543209876544,84.8395061728395,0)" xlink:href="#bd"/><use transform="matrix(0.09876543209876544,0,0,0.09876543209876544,100.54320987654322,0)" xlink:href="#bo"/></g><g id="V"><use transform="matrix(0.09876543209876544,0,0,0.09876543209876544,0,0)" xlink:href="#br"/><use transform="matrix(0.09876543209876544,0,0,0.09876543209876544,20.34567901234568,0)" xlink:href="#bg"/><use transform="matrix(0.09876543209876544,0,0,0.09876543209876544,32.098765432098766,0)" xlink:href="#bb"/><use transform="matrix(0.09876543209876544,0,0,0.09876543209876544,49.876543209876544,0)" xlink:href="#bo"/><use transform="matrix(0.09876543209876544,0,0,0.09876543209876544,63.70370370370371,0)" xlink:href="#bs"/><use transform="matrix(0.09876543209876544,0,0,0.09876543209876544,81.4814814814815,0)" xlink:href="#bh"/><use transform="matrix(0.09876543209876544,0,0,0.09876543209876544,97.1851851851852,0)" xlink:href="#bj"/><use transform="matrix(0.09876543209876544,0,0,0.09876543209876544,107.06172839506176,0)" xlink:href="#bj"/></g><g id="W"><use transform="matrix(0.09876543209876544,0,0,0.09876543209876544,0,0)" xlink:href="#br"/><use transform="matrix(0.09876543209876544,0,0,0.09876543209876544,21.62962962962963,0)" xlink:href="#bB"/><use transform="matrix(0.09876543209876544,0,0,0.09876543209876544,39.407407407407405,0)" xlink:href="#bh"/><use transform="matrix(0.09876543209876544,0,0,0.09876543209876544,55.11111111111111,0)" xlink:href="#bg"/><use transform="matrix(0.09876543209876544,0,0,0.09876543209876544,66.86419753086419,0)" xlink:href="#bh"/><use transform="matrix(0.09876543209876544,0,0,0.09876543209876544,82.5679012345679,0)" xlink:href="#bo"/><use transform="matrix(0.09876543209876544,0,0,0.09876543209876544,96.39506172839506,0)" xlink:href="#bd"/></g><g id="X"><use transform="matrix(0.09876543209876544,0,0,0.09876543209876544,0,0)" xlink:href="#bC"/><use transform="matrix(0.09876543209876544,0,0,0.09876543209876544,32.098765432098766,0)" xlink:href="#ba"/><use transform="matrix(0.09876543209876544,0,0,0.09876543209876544,41.97530864197531,0)" xlink:href="#bm"/><use transform="matrix(0.09876543209876544,0,0,0.09876543209876544,59.75308641975309,0)" xlink:href="#bu"/><use transform="matrix(0.09876543209876544,0,0,0.09876543209876544,77.53086419753086,0)" xlink:href="#bb"/><use transform="matrix(0.09876543209876544,0,0,0.09876543209876544,95.30864197530863,0)" xlink:href="#bo"/></g><path d="M98-18l30 5V0H12v-13l30-5v-200l-30-5v-13h116v13l-30 5v200" id="ca"/><path d="M73-51c-3 31 27 38 51 25v-123l-16-5v-11h66v149l17 4V0h-65l-2-14C94 9 22 18 22-44v-105l-17-5v-11h68v114" id="cb"/><path d="M76-16l18 4V0H7v-12l18-4v-218l-17-4v-12h68v234" id="cc"/><g id="Y"><use transform="matrix(0.09876543209876544,0,0,0.09876543209876544,0,0)" xlink:href="#ca"/><use transform="matrix(0.09876543209876544,0,0,0.09876543209876544,13.827160493827162,0)" xlink:href="#bF"/><use transform="matrix(0.09876543209876544,0,0,0.09876543209876544,33.580246913580254,0)" xlink:href="#bK"/><use transform="matrix(0.09876543209876544,0,0,0.09876543209876544,47.40740740740742,0)" xlink:href="#aW"/><use transform="matrix(0.09876543209876544,0,0,0.09876543209876544,59.16049382716051,0)" xlink:href="#aS"/><use transform="matrix(0.09876543209876544,0,0,0.09876543209876544,69.03703703703705,0)" xlink:href="#aW"/><use transform="matrix(0.09876543209876544,0,0,0.09876543209876544,80.79012345679014,0)" xlink:href="#cb"/><use transform="matrix(0.09876543209876544,0,0,0.09876543209876544,100.54320987654323,0)" xlink:href="#aW"/><use transform="matrix(0.09876543209876544,0,0,0.09876543209876544,112.29629629629633,0)" xlink:href="#aS"/><use transform="matrix(0.09876543209876544,0,0,0.09876543209876544,122.17283950617288,0)" xlink:href="#aX"/><use transform="matrix(0.09876543209876544,0,0,0.09876543209876544,139.95061728395063,0)" xlink:href="#bF"/><use transform="matrix(0.09876543209876544,0,0,0.09876543209876544,159.70370370370372,0)" xlink:href="#aY"/><use transform="matrix(0.09876543209876544,0,0,0.09876543209876544,177.4814814814815,0)" xlink:href="#cc"/></g><g id="Z"><use transform="matrix(0.09876543209876544,0,0,0.09876543209876544,0,0)" xlink:href="#bM"/><use transform="matrix(0.09876543209876544,0,0,0.09876543209876544,23.703703703703706,0)" xlink:href="#aX"/><use transform="matrix(0.09876543209876544,0,0,0.09876543209876544,41.48148148148148,0)" xlink:href="#aY"/><use transform="matrix(0.09876543209876544,0,0,0.09876543209876544,59.25925925925927,0)" xlink:href="#aT"/><use transform="matrix(0.09876543209876544,0,0,0.09876543209876544,74.96296296296296,0)" xlink:href="#bI"/></g><path d="M108-230c-35 27-44 80-44 143s8 116 44 144v20C7 49-17-153 67-223c12-10 25-19 41-27v20" id="cd"/><path d="M12-250C113-222 137-19 52 49 40 59 28 69 12 77V57C48 29 56-24 56-87s-9-116-44-143v-20" id="ce"/><g id="aa"><use transform="matrix(0.09876543209876544,0,0,0.09876543209876544,0,0)" xlink:href="#cd"/><use transform="matrix(0.09876543209876544,0,0,0.09876543209876544,11.753086419753087,0)" xlink:href="#ca"/><use transform="matrix(0.09876543209876544,0,0,0.09876543209876544,25.58024691358025,0)" xlink:href="#bM"/><use transform="matrix(0.09876543209876544,0,0,0.09876543209876544,49.28395061728395,0)" xlink:href="#ce"/></g><g id="ac"><use transform="matrix(0.09876543209876544,0,0,0.09876543209876544,0,0)" xlink:href="#bz"/><use transform="matrix(0.09876543209876544,0,0,0.09876543209876544,31.60493827160494,0)" xlink:href="#bd"/><use transform="matrix(0.09876543209876544,0,0,0.09876543209876544,47.308641975308646,0)" xlink:href="#bj"/><use transform="matrix(0.09876543209876544,0,0,0.09876543209876544,57.18518518518519,0)" xlink:href="#bj"/><use transform="matrix(0.09876543209876544,0,0,0.09876543209876544,67.06172839506173,0)" xlink:href="#bB"/><use transform="matrix(0.09876543209876544,0,0,0.09876543209876544,84.83950617283952,0)" xlink:href="#bh"/><use transform="matrix(0.09876543209876544,0,0,0.09876543209876544,100.54320987654323,0)" xlink:href="#bZ"/></g><g id="ad"><use transform="matrix(0.09876543209876544,0,0,0.09876543209876544,0,0)" xlink:href="#br"/><use transform="matrix(0.09876543209876544,0,0,0.09876543209876544,20.34567901234568,0)" xlink:href="#ba"/><use transform="matrix(0.09876543209876544,0,0,0.09876543209876544,30.222222222222225,0)" xlink:href="#bg"/><use transform="matrix(0.09876543209876544,0,0,0.09876543209876544,41.97530864197531,0)" xlink:href="#bg"/><use transform="matrix(0.09876543209876544,0,0,0.09876543209876544,53.7283950617284,0)" xlink:href="#bh"/><use transform="matrix(0.09876543209876544,0,0,0.09876543209876544,69.4320987654321,0)" xlink:href="#bc"/><use transform="matrix(0.09876543209876544,0,0,0.09876543209876544,79.30864197530865,0)" xlink:href="#bc"/></g><g id="ae"><use transform="matrix(0.09876543209876544,0,0,0.09876543209876544,0,0)" xlink:href="#bz"/><use transform="matrix(0.09876543209876544,0,0,0.09876543209876544,31.60493827160494,0)" xlink:href="#ba"/><use transform="matrix(0.09876543209876544,0,0,0.09876543209876544,41.48148148148148,0)" xlink:href="#bi"/><use transform="matrix(0.09876543209876544,0,0,0.09876543209876544,57.185185185185176,0)" xlink:href="#bB"/><use transform="matrix(0.09876543209876544,0,0,0.09876543209876544,74.96296296296296,0)" xlink:href="#bd"/><use transform="matrix(0.09876543209876544,0,0,0.09876543209876544,90.66666666666667,0)" xlink:href="#bh"/><use transform="matrix(0.09876543209876544,0,0,0.09876543209876544,106.37037037037038,0)" xlink:href="#bc"/></g><g id="af"><use transform="matrix(0.09876543209876544,0,0,0.09876543209876544,0,0)" xlink:href="#bQ"/><use transform="matrix(0.09876543209876544,0,0,0.09876543209876544,25.58024691358025,0)" xlink:href="#bk"/><use transform="matrix(0.09876543209876544,0,0,0.09876543209876544,43.358024691358025,0)" xlink:href="#bg"/><use transform="matrix(0.09876543209876544,0,0,0.09876543209876544,55.111111111111114,0)" xlink:href="#bD"/><use transform="matrix(0.09876543209876544,0,0,0.09876543209876544,82.76543209876544,0)" xlink:href="#bd"/><use transform="matrix(0.09876543209876544,0,0,0.09876543209876544,98.46913580246915,0)" xlink:href="#bm"/></g><path d="M76-116c0 86 71 126 135 84l6-39h16l-1 60C138 21 18 1 18-115c0-117 106-141 210-112l1 57h-16l-5-34c-13-9-32-16-54-16-60 0-78 42-78 104" id="cf"/><path d="M140-221c-55 0-64 47-64 103S8-14 140-14c56 0 64-48 64-104s-9-103-64-103zm0 225C61 4 18-36 18-118c0-81 41-120 122-120 80 0 122 39 122 120C262-36 219 4 140 4" id="cg"/><path d="M92-112c43 4 61-13 61-54s-18-54-61-50v104zm118-54c0 63-50 78-118 74v74l39 5V0H8v-13l28-5v-200l-30-5v-13c88 3 205-20 204 70" id="ch"/><g id="ag"><use transform="matrix(0.09876543209876544,0,0,0.09876543209876544,0,0)" xlink:href="#cf"/><use transform="matrix(0.09876543209876544,0,0,0.09876543209876544,25.58024691358025,0)" xlink:href="#cg"/><use transform="matrix(0.09876543209876544,0,0,0.09876543209876544,53.23456790123457,0)" xlink:href="#ch"/><use transform="matrix(0.09876543209876544,0,0,0.09876543209876544,74.8641975308642,0)" xlink:href="#ch"/><use transform="matrix(0.09876543209876544,0,0,0.09876543209876544,96.49382716049384,0)" xlink:href="#bE"/></g><g id="ah"><use transform="matrix(0.09876543209876544,0,0,0.09876543209876544,0,0)" xlink:href="#ch"/><use transform="matrix(0.09876543209876544,0,0,0.09876543209876544,21.62962962962963,0)" xlink:href="#ca"/><use transform="matrix(0.09876543209876544,0,0,0.09876543209876544,35.45679012345679,0)" xlink:href="#bK"/></g><g id="ai"><use transform="matrix(0.09876543209876544,0,0,0.09876543209876544,0,0)" xlink:href="#bv"/><use transform="matrix(0.09876543209876544,0,0,0.09876543209876544,13.827160493827162,0)" xlink:href="#bN"/></g><g id="aj"><use transform="matrix(0.09876543209876544,0,0,0.09876543209876544,0,0)" xlink:href="#bu"/><use transform="matrix(0.09876543209876544,0,0,0.09876543209876544,17.77777777777778,0)" xlink:href="#bh"/></g><g id="ak"><use transform="matrix(0.09876543209876544,0,0,0.09876543209876544,0,0)" xlink:href="#bw"/><use transform="matrix(0.09876543209876544,0,0,0.09876543209876544,19.75308641975309,0)" xlink:href="#bd"/><use transform="matrix(0.09876543209876544,0,0,0.09876543209876544,35.45679012345679,0)" xlink:href="#bx"/><use transform="matrix(0.09876543209876544,0,0,0.09876543209876544,53.23456790123457,0)" xlink:href="#bc"/><use transform="matrix(0.09876543209876544,0,0,0.09876543209876544,63.111111111111114,0)" xlink:href="#bk"/></g><path d="M130-224c-62 0-78 43-78 106 0 64 16 108 78 108s78-45 78-108-16-106-78-106zm0 228C53 4 15-39 15-118c-1-80 37-120 115-120s115 42 115 120C245-39 207 4 130 4" id="ci"/><g id="al"><use transform="matrix(0.09876543209876544,0,0,0.09876543209876544,0,0)" xlink:href="#ci"/><use transform="matrix(0.09876543209876544,0,0,0.09876543209876544,25.58024691358025,0)" xlink:href="#bN"/></g><path d="M10 0v-9l31-5v-208l-31-4v-10h95v10l-30 4v93h110v-93l-30-4v-10h94v10l-30 4v208l30 5v9h-94v-9l30-5v-99H75v99l30 5v9H10" id="cj"/><g id="am"><use transform="matrix(0.09876543209876544,0,0,0.09876543209876544,0,0)" xlink:href="#cj"/><use transform="matrix(0.09876543209876544,0,0,0.09876543209876544,25.58024691358025,0)" xlink:href="#bh"/><use transform="matrix(0.09876543209876544,0,0,0.09876543209876544,41.283950617283956,0)" xlink:href="#ba"/><use transform="matrix(0.09876543209876544,0,0,0.09876543209876544,51.1604938271605,0)" xlink:href="#bm"/><use transform="matrix(0.09876543209876544,0,0,0.09876543209876544,68.93827160493828,0)" xlink:href="#bk"/><use transform="matrix(0.09876543209876544,0,0,0.09876543209876544,86.71604938271605,0)" xlink:href="#bm"/><use transform="matrix(0.09876543209876544,0,0,0.09876543209876544,104.49382716049381,0)" xlink:href="#bh"/><use transform="matrix(0.09876543209876544,0,0,0.09876543209876544,120.19753086419755,0)" xlink:href="#bm"/></g><g id="ao"><use transform="matrix(0.09876543209876544,0,0,0.09876543209876544,0,0)" xlink:href="#bw"/><use transform="matrix(0.09876543209876544,0,0,0.09876543209876544,15.80246913580247,0)" xlink:href="#bN"/></g><g id="ap"><use transform="matrix(0.09876543209876544,0,0,0.09876543209876544,0,0)" xlink:href="#bQ"/><use transform="matrix(0.09876543209876544,0,0,0.09876543209876544,25.58024691358025,0)" xlink:href="#bh"/><use transform="matrix(0.09876543209876544,0,0,0.09876543209876544,41.283950617283956,0)" xlink:href="#bd"/><use transform="matrix(0.09876543209876544,0,0,0.09876543209876544,56.98765432098766,0)" xlink:href="#bc"/><use transform="matrix(0.09876543209876544,0,0,0.09876543209876544,66.8641975308642,0)" xlink:href="#bh"/><use transform="matrix(0.09876543209876544,0,0,0.09876543209876544,82.56790123456791,0)" xlink:href="#bp"/></g><g id="aq"><use transform="matrix(0.09876543209876544,0,0,0.09876543209876544,0,0)" xlink:href="#bQ"/><use transform="matrix(0.09876543209876544,0,0,0.09876543209876544,25.58024691358025,0)" xlink:href="#bN"/></g><g id="ar"><use transform="matrix(0.09876543209876544,0,0,0.09876543209876544,0,0)" xlink:href="#bl"/><use transform="matrix(0.09876543209876544,0,0,0.09876543209876544,19.75308641975309,0)" xlink:href="#bh"/><use transform="matrix(0.09876543209876544,0,0,0.09876543209876544,35.45679012345679,0)" xlink:href="#bg"/><use transform="matrix(0.09876543209876544,0,0,0.09876543209876544,47.20987654320988,0)" xlink:href="#bg"/><use transform="matrix(0.09876543209876544,0,0,0.09876543209876544,58.96296296296297,0)" xlink:href="#ba"/><use transform="matrix(0.09876543209876544,0,0,0.09876543209876544,68.83950617283952,0)" xlink:href="#bh"/><use transform="matrix(0.09876543209876544,0,0,0.09876543209876544,84.54320987654323,0)" xlink:href="#bg"/></g><path d="M76-115c0 75 46 117 116 94v-68l-30-5v-13h108v13l-23 5v77C218-3 181 4 145 4 67 4 18-36 18-115c0-83 46-123 130-123 37-1 66 6 91 15v54h-15c2-41-32-51-70-51-60 0-78 41-78 105" id="ck"/><path d="M6-13l30-5v-200l-30-5v-13h201v60h-16l-6-38-93-2v86h61l6-26h16v73h-16l-6-27H92v91l104-3 10-44h16l-4 66H6v-13" id="cl"/><g id="as"><use transform="matrix(0.09876543209876544,0,0,0.09876543209876544,0,0)" xlink:href="#bE"/><use transform="matrix(0.09876543209876544,0,0,0.09876543209876544,19.75308641975309,0)" xlink:href="#bE"/><use transform="matrix(0.09876543209876544,0,0,0.09876543209876544,39.50617283950618,0)" xlink:href="#bH"/><use transform="matrix(0.09876543209876544,0,0,0.09876543209876544,65.08641975308643,0)" xlink:href="#ck"/><use transform="matrix(0.09876543209876544,0,0,0.09876543209876544,92.74074074074076,0)" xlink:href="#cl"/><use transform="matrix(0.09876543209876544,0,0,0.09876543209876544,116.44444444444447,0)" xlink:href="#bE"/></g><g id="at"><use transform="matrix(0.09876543209876544,0,0,0.09876543209876544,0,0)" xlink:href="#ch"/><use transform="matrix(0.09876543209876544,0,0,0.09876543209876544,21.62962962962963,0)" xlink:href="#ca"/><use transform="matrix(0.09876543209876544,0,0,0.09876543209876544,35.45679012345679,0)" xlink:href="#bK"/></g><g id="au"><use transform="matrix(0.09876543209876544,0,0,0.09876543209876544,0,0)" xlink:href="#bv"/><use transform="matrix(0.09876543209876544,0,0,0.09876543209876544,13.827160493827162,0)" xlink:href="#bN"/></g><g id="av"><use transform="matrix(0.09876543209876544,0,0,0.09876543209876544,0,0)" xlink:href="#bC"/><use transform="matrix(0.09876543209876544,0,0,0.09876543209876544,33.48148148148148,0)" xlink:href="#bB"/><use transform="matrix(0.09876543209876544,0,0,0.09876543209876544,51.25925925925927,0)" xlink:href="#ba"/><use transform="matrix(0.09876543209876544,0,0,0.09876543209876544,61.13580246913581,0)" xlink:href="#bj"/><use transform="matrix(0.09876543209876544,0,0,0.09876543209876544,71.01234567901236,0)" xlink:href="#bD"/><use transform="matrix(0.09876543209876544,0,0,0.09876543209876544,98.66666666666669,0)" xlink:href="#bh"/><use transform="matrix(0.09876543209876544,0,0,0.09876543209876544,114.37037037037041,0)" xlink:href="#bg"/></g><g id="aw"><use transform="matrix(0.09876543209876544,0,0,0.09876543209876544,0,0)" xlink:href="#bP"/><use transform="matrix(0.09876543209876544,0,0,0.09876543209876544,19.75308641975309,0)" xlink:href="#bN"/></g><g id="ax"><use transform="matrix(0.09876543209876544,0,0,0.09876543209876544,0,0)" xlink:href="#aZ"/><use transform="matrix(0.09876543209876544,0,0,0.09876543209876544,25.58024691358025,0)" xlink:href="#bc"/><use transform="matrix(0.09876543209876544,0,0,0.09876543209876544,35.4567901234568,0)" xlink:href="#bk"/><use transform="matrix(0.09876543209876544,0,0,0.09876543209876544,53.23456790123457,0)" xlink:href="#bj"/><use transform="matrix(0.09876543209876544,0,0,0.09876543209876544,63.111111111111114,0)" xlink:href="#bR"/><use transform="matrix(0.09876543209876544,0,0,0.09876543209876544,78.81481481481482,0)" xlink:href="#bh"/><use transform="matrix(0.09876543209876544,0,0,0.09876543209876544,94.51851851851853,0)" xlink:href="#bg"/></g><g id="ay"><use transform="matrix(0.09876543209876544,0,0,0.09876543209876544,0,0)" xlink:href="#bz"/><use transform="matrix(0.09876543209876544,0,0,0.09876543209876544,31.60493827160494,0)" xlink:href="#bN"/></g><g id="az"><use transform="matrix(0.09876543209876544,0,0,0.09876543209876544,0,0)" xlink:href="#ci"/><use transform="matrix(0.09876543209876544,0,0,0.09876543209876544,25.58024691358025,0)" xlink:href="#bc"/><use transform="matrix(0.09876543209876544,0,0,0.09876543209876544,35.4567901234568,0)" xlink:href="#bA"/><use transform="matrix(0.09876543209876544,0,0,0.09876543209876544,53.23456790123457,0)" xlink:href="#bh"/><use transform="matrix(0.09876543209876544,0,0,0.09876543209876544,68.93827160493828,0)" xlink:href="#bg"/><use transform="matrix(0.09876543209876544,0,0,0.09876543209876544,80.69135802469137,0)" xlink:href="#bd"/></g><g id="aA"><use transform="matrix(0.09876543209876544,0,0,0.09876543209876544,0,0)" xlink:href="#bc"/><use transform="matrix(0.09876543209876544,0,0,0.09876543209876544,9.876543209876544,0)" xlink:href="#bd"/></g><g id="aB"><use transform="matrix(0.09876543209876544,0,0,0.09876543209876544,0,0)" xlink:href="#bO"/><use transform="matrix(0.09876543209876544,0,0,0.09876543209876544,23.703703703703706,0)" xlink:href="#bg"/><use transform="matrix(0.09876543209876544,0,0,0.09876543209876544,35.45679012345679,0)" xlink:href="#bb"/><use transform="matrix(0.09876543209876544,0,0,0.09876543209876544,53.23456790123457,0)" xlink:href="#bR"/></g><g id="aC"><use transform="matrix(0.09876543209876544,0,0,0.09876543209876544,0,0)" xlink:href="#bf"/><use transform="matrix(0.09876543209876544,0,0,0.09876543209876544,25.58024691358025,0)" xlink:href="#bN"/></g><g id="aD"><use transform="matrix(0.09876543209876544,0,0,0.09876543209876544,0,0)" xlink:href="#br"/><use transform="matrix(0.09876543209876544,0,0,0.09876543209876544,19.160493827160494,0)" xlink:href="#bd"/><use transform="matrix(0.09876543209876544,0,0,0.09876543209876544,34.864197530864196,0)" xlink:href="#bc"/><use transform="matrix(0.09876543209876544,0,0,0.09876543209876544,44.74074074074074,0)" xlink:href="#bd"/><use transform="matrix(0.09876543209876544,0,0,0.09876543209876544,60.444444444444436,0)" xlink:href="#by"/><use transform="matrix(0.09876543209876544,0,0,0.09876543209876544,78.22222222222223,0)" xlink:href="#ba"/><use transform="matrix(0.09876543209876544,0,0,0.09876543209876544,88.09876543209877,0)" xlink:href="#bm"/></g><path d="M138 4C60 2 18-37 18-118s41-120 122-120c80 0 122 39 122 120 0 59-22 97-65 112 17 20 30 48 67 42v15c-34 14-83 3-102-19zm2-225c-55 0-64 47-64 103S8-14 140-14c56 0 64-48 64-104s-9-103-64-103" id="cm"/><path d="M72-18c49 15 64-22 62-69-1-34-4-62-34-63-10-1-23 2-28 6v126zm33 22C77 4 48-3 21-8v-226l-16-4v-12h67c-1 31 2 66-2 94 11-8 28-14 47-14 51 0 70 31 69 83-1 55-26 91-81 91" id="cn"/><path d="M5-154v-11h89v11l-19 5 24 37 32-37-16-5v-11h56v11l-15 4-46 54 52 81 16 4V0H90v-11l18-4-29-45-38 45 17 4V0H1v-11l15-3 53-62-48-73" id="co"/><g id="aE"><use transform="matrix(0.09876543209876544,0,0,0.09876543209876544,0,0)" xlink:href="#cm"/><use transform="matrix(0.09876543209876544,0,0,0.09876543209876544,27.654320987654323,0)" xlink:href="#cn"/><use transform="matrix(0.09876543209876544,0,0,0.09876543209876544,47.40740740740741,0)" xlink:href="#aX"/><use transform="matrix(0.09876543209876544,0,0,0.09876543209876544,65.18518518518519,0)" xlink:href="#co"/></g><g id="aF"><use transform="matrix(0.09876543209876544,0,0,0.09876543209876544,0,0)" xlink:href="#bl"/><use transform="matrix(0.09876543209876544,0,0,0.09876543209876544,16.888888888888893,0)" xlink:href="#bN"/></g><g id="aG"><use transform="matrix(0.09876543209876544,0,0,0.09876543209876544,0,0)" xlink:href="#aZ"/><use transform="matrix(0.09876543209876544,0,0,0.09876543209876544,25.58024691358025,0)" xlink:href="#bp"/><use transform="matrix(0.09876543209876544,0,0,0.09876543209876544,43.358024691358025,0)" xlink:href="#bq"/><use transform="matrix(0.09876543209876544,0,0,0.09876543209876544,61.13580246913581,0)" xlink:href="#ba"/></g><g id="aH"><use transform="matrix(0.09876543209876544,0,0,0.09876543209876544,0,0)" xlink:href="#aZ"/><use transform="matrix(0.09876543209876544,0,0,0.09876543209876544,25.58024691358025,0)" xlink:href="#bN"/></g><g id="aI"><use transform="matrix(0.09876543209876544,0,0,0.09876543209876544,0,0)" xlink:href="#aZ"/><use transform="matrix(0.09876543209876544,0,0,0.09876543209876544,25.58024691358025,0)" xlink:href="#bd"/><use transform="matrix(0.09876543209876544,0,0,0.09876543209876544,41.283950617283956,0)" xlink:href="#bc"/><use transform="matrix(0.09876543209876544,0,0,0.09876543209876544,51.1604938271605,0)" xlink:href="#bc"/><use transform="matrix(0.09876543209876544,0,0,0.09876543209876544,61.037037037037045,0)" xlink:href="#ba"/></g><g id="aJ"><use transform="matrix(0.09876543209876544,0,0,0.09876543209876544,0,0)" xlink:href="#bO"/><use transform="matrix(0.09876543209876544,0,0,0.09876543209876544,23.703703703703706,0)" xlink:href="#bB"/><use transform="matrix(0.09876543209876544,0,0,0.09876543209876544,41.48148148148148,0)" xlink:href="#bd"/><use transform="matrix(0.09876543209876544,0,0,0.09876543209876544,57.185185185185176,0)" xlink:href="#bm"/></g><g id="aK"><use transform="matrix(0.09876543209876544,0,0,0.09876543209876544,0,0)" xlink:href="#bz"/><use transform="matrix(0.09876543209876544,0,0,0.09876543209876544,31.60493827160494,0)" xlink:href="#ba"/><use transform="matrix(0.09876543209876544,0,0,0.09876543209876544,41.48148148148148,0)" xlink:href="#bj"/><use transform="matrix(0.09876543209876544,0,0,0.09876543209876544,51.35802469135803,0)" xlink:href="#bi"/><use transform="matrix(0.09876543209876544,0,0,0.09876543209876544,67.06172839506173,0)" xlink:href="#bB"/><use transform="matrix(0.09876543209876544,0,0,0.09876543209876544,84.83950617283952,0)" xlink:href="#bh"/><use transform="matrix(0.09876543209876544,0,0,0.09876543209876544,100.54320987654323,0)" xlink:href="#bc"/><use transform="matrix(0.09876543209876544,0,0,0.09876543209876544,110.41975308641979,0)" xlink:href="#bc"/></g><g id="aL"><use transform="matrix(0.09876543209876544,0,0,0.09876543209876544,0,0)" xlink:href="#bl"/><use transform="matrix(0.09876543209876544,0,0,0.09876543209876544,19.75308641975309,0)" xlink:href="#bh"/><use transform="matrix(0.09876543209876544,0,0,0.09876543209876544,35.45679012345679,0)" xlink:href="#bm"/><use transform="matrix(0.09876543209876544,0,0,0.09876543209876544,53.23456790123457,0)" xlink:href="#bj"/><use transform="matrix(0.09876543209876544,0,0,0.09876543209876544,63.111111111111114,0)" xlink:href="#bh"/><use transform="matrix(0.09876543209876544,0,0,0.09876543209876544,78.81481481481482,0)" xlink:href="#bg"/></g><g id="aM"><use transform="matrix(0.09876543209876544,0,0,0.09876543209876544,0,0)" xlink:href="#br"/><use transform="matrix(0.09876543209876544,0,0,0.09876543209876544,19.160493827160494,0)" xlink:href="#bd"/><use transform="matrix(0.09876543209876544,0,0,0.09876543209876544,34.864197530864196,0)" xlink:href="#bc"/><use transform="matrix(0.09876543209876544,0,0,0.09876543209876544,44.74074074074074,0)" xlink:href="#bd"/><use transform="matrix(0.09876543209876544,0,0,0.09876543209876544,60.444444444444436,0)" xlink:href="#by"/><use transform="matrix(0.09876543209876544,0,0,0.09876543209876544,78.22222222222223,0)" xlink:href="#ba"/><use transform="matrix(0.09876543209876544,0,0,0.09876543209876544,88.09876543209877,0)" xlink:href="#bm"/></g><path d="M334-218L264 5h-22l-58-145L125 5h-21L26-218l-21-5v-13h106v13l-28 5 51 140 55-138h22l55 138 42-140-30-5v-13h76v13" id="cp"/><path d="M54 0v-13l38-5v-199l-66 3-4 44H6v-66h229v66h-17l-4-44c-17-2-44-3-67-3v199l38 5V0H54" id="cq"/><g id="aN"><use transform="matrix(0.09876543209876544,0,0,0.09876543209876544,0,0)" xlink:href="#cp"/><use transform="matrix(0.09876543209876544,0,0,0.09876543209876544,35.55555555555556,0)" xlink:href="#cl"/><use transform="matrix(0.09876543209876544,0,0,0.09876543209876544,59.25925925925927,0)" xlink:href="#bE"/><use transform="matrix(0.09876543209876544,0,0,0.09876543209876544,79.01234567901236,0)" xlink:href="#cq"/></g><g id="aO"><use transform="matrix(0.09876543209876544,0,0,0.09876543209876544,0,0)" xlink:href="#aZ"/><use transform="matrix(0.09876543209876544,0,0,0.09876543209876544,25.58024691358025,0)" xlink:href="#bk"/><use transform="matrix(0.09876543209876544,0,0,0.09876543209876544,43.358024691358025,0)" xlink:href="#bA"/><use transform="matrix(0.09876543209876544,0,0,0.09876543209876544,61.13580246913581,0)" xlink:href="#bk"/><use transform="matrix(0.09876543209876544,0,0,0.09876543209876544,78.91358024691358,0)" xlink:href="#bm"/><use transform="matrix(0.09876543209876544,0,0,0.09876543209876544,96.69135802469137,0)" xlink:href="#ba"/></g><path d="M238-236v10l-27 4-81 79L231-14l25 5v9h-57l-93-119-31 25v80l33 5v9H10v-9l31-5v-208l-31-4v-10h95v10l-30 4v111l112-111-23-4v-10h74" id="cr"/><g id="aP"><use transform="matrix(0.09876543209876544,0,0,0.09876543209876544,0,0)" xlink:href="#cr"/><use transform="matrix(0.09876543209876544,0,0,0.09876543209876544,25.58024691358025,0)" xlink:href="#bd"/><use transform="matrix(0.09876543209876544,0,0,0.09876543209876544,41.283950617283956,0)" xlink:href="#bm"/><use transform="matrix(0.09876543209876544,0,0,0.09876543209876544,59.061728395061735,0)" xlink:href="#bd"/><use transform="matrix(0.09876543209876544,0,0,0.09876543209876544,74.76543209876544,0)" xlink:href="#bj"/><use transform="matrix(0.09876543209876544,0,0,0.09876543209876544,84.64197530864199,0)" xlink:href="#bR"/><use transform="matrix(0.09876543209876544,0,0,0.09876543209876544,100.3456790123457,0)" xlink:href="#ba"/><use transform="matrix(0.09876543209876544,0,0,0.09876543209876544,110.22222222222223,0)" xlink:href="#bu"/><use transform="matrix(0.09876543209876544,0,0,0.09876543209876544,128.00000000000003,0)" xlink:href="#ba"/><use transform="matrix(0.09876543209876544,0,0,0.09876543209876544,137.87654320987656,0)" xlink:href="#bo"/></g><g id="aQ"><use transform="matrix(0.09876543209876544,0,0,0.09876543209876544,0,0)" xlink:href="#bz"/><use transform="matrix(0.09876543209876544,0,0,0.09876543209876544,31.60493827160494,0)" xlink:href="#ba"/><use transform="matrix(0.09876543209876544,0,0,0.09876543209876544,41.48148148148148,0)" xlink:href="#bj"/><use transform="matrix(0.09876543209876544,0,0,0.09876543209876544,51.35802469135803,0)" xlink:href="#bi"/><use transform="matrix(0.09876543209876544,0,0,0.09876543209876544,67.06172839506173,0)" xlink:href="#bB"/><use transform="matrix(0.09876543209876544,0,0,0.09876543209876544,84.83950617283952,0)" xlink:href="#bh"/><use transform="matrix(0.09876543209876544,0,0,0.09876543209876544,100.54320987654323,0)" xlink:href="#bc"/><use transform="matrix(0.09876543209876544,0,0,0.09876543209876544,110.41975308641979,0)" xlink:href="#bc"/></g></defs></g></svg>